<svg width="125" height="39" viewBox="0 0 125 39" fill="none" xmlns="http://www.w3.org/2000/svg">
<rect width="125" height="39" rx="5.43478" fill="black"/>
<path d="M20.4764 25.0764V20.0778L16.9067 14.9351C16.8004 14.7588 16.8307 14.5025 16.9827 14.3903C17.1497 14.2461 17.3928 14.2782 17.4991 14.4544L20.8258 19.2768L24.1677 14.4544C24.274 14.2782 24.517 14.2461 24.6841 14.3903C24.8512 14.5025 24.8816 14.7588 24.7601 14.9351L21.2056 20.0458V25.0764C21.2056 25.2847 21.0537 25.4609 20.841 25.4609C20.6435 25.4609 20.4764 25.2847 20.4764 25.0764Z" fill="white"/>
<path d="M25.3517 19.7734C25.3669 16.6333 27.615 14.0859 30.486 14.0859C33.3266 14.0859 35.5596 16.6333 35.5747 19.7734C35.5596 22.9136 33.3266 25.4609 30.486 25.4609C27.615 25.4609 25.3669 22.9136 25.3517 19.7734ZM26.096 19.7734C26.096 22.513 28.0707 24.6759 30.486 24.6759C32.8253 24.6759 34.8 22.513 34.8152 19.7734C34.8 17.0018 32.8253 14.887 30.486 14.887C28.0707 14.887 26.096 17.0018 26.096 19.7734Z" fill="white"/>
<path d="M38.0612 20.927V14.6307C38.0612 14.4224 38.2283 14.2461 38.4258 14.2461C38.6384 14.2461 38.8055 14.4224 38.8055 14.6307V20.927C38.8055 22.9937 40.4005 24.6599 42.3449 24.6759C44.3196 24.6599 45.9146 22.9937 45.9146 20.927V14.6307C45.9146 14.4224 46.0817 14.2461 46.2792 14.2461C46.4918 14.2461 46.6589 14.4224 46.6589 14.6307V20.927C46.6589 23.4263 44.7298 25.4609 42.3449 25.4609C39.9904 25.4609 38.0612 23.4263 38.0612 20.927Z" fill="white"/>
<path d="M55.607 24.772C55.4247 24.4035 55.3183 23.8748 55.3183 22.9296C55.3183 22.1125 54.9234 21.5998 54.4525 21.2314C53.9816 20.8789 53.4196 20.7027 53.2221 20.6706C53.1765 20.6546 53.1613 20.6386 53.1461 20.6386H50.5638V25.0764C50.5638 25.2847 50.3967 25.4609 50.184 25.4609C49.9865 25.4609 49.8195 25.2847 49.8195 25.0764V14.6307C49.8195 14.4384 49.9714 14.2622 50.1536 14.2461H53.1917C54.8626 14.2461 56.2146 15.672 56.2146 17.4504C56.2146 18.7321 55.5006 19.8375 54.4677 20.3502C54.5133 20.3822 54.5588 20.3983 54.6196 20.4303C55.3183 20.8469 56.0475 21.6639 56.0475 22.9296C56.0475 23.5865 56.1082 23.987 56.1842 24.2273C56.245 24.4196 56.3209 24.4836 56.3361 24.4997C56.5032 24.4836 56.6855 24.5798 56.7462 24.756C56.7918 24.9643 56.7007 25.1886 56.5032 25.2687C56.488 25.2687 56.412 25.2847 56.3209 25.2847H56.2905C56.093 25.2847 55.7741 25.1245 55.607 24.772ZM55.4854 17.4504C55.4854 16.1046 54.4525 15.0312 53.1917 15.0312H50.5638V19.8696H53.2525C54.4829 19.8375 55.4854 18.7641 55.4854 17.4504Z" fill="white"/>
<path d="M69.9133 25.4609H64.4447C64.2473 25.4609 64.0802 25.2847 64.0802 25.0764V14.6307C64.0802 14.4224 64.2473 14.2461 64.4447 14.2461C64.6574 14.2461 64.8245 14.4224 64.8245 14.6307V24.6759H69.9133C70.1259 24.6759 70.293 24.8521 70.293 25.0764C70.293 25.2847 70.1259 25.4609 69.9133 25.4609Z" fill="white"/>
<path d="M71.5605 19.7734C71.5756 16.6333 73.8238 14.0859 76.6948 14.0859C79.5354 14.0859 81.7683 16.6333 81.7835 19.7734C81.7683 22.9136 79.5354 25.4609 76.6948 25.4609C73.8238 25.4609 71.5756 22.9136 71.5605 19.7734ZM72.3048 19.7734C72.3048 22.513 74.2795 24.6759 76.6948 24.6759C79.0341 24.6759 81.0088 22.513 81.024 19.7734C81.0088 17.0018 79.0341 14.887 76.6948 14.887C74.2795 14.887 72.3048 17.0018 72.3048 19.7734Z" fill="white"/>
<path d="M92.8058 20.4143H89.9044C89.6917 20.4143 89.5246 20.2541 89.5246 20.0298C89.5246 19.8055 89.6917 19.6292 89.9044 19.6292H93.2311C93.4134 19.6453 93.5653 19.8215 93.5653 20.0298V23.9389C93.5501 24.0511 93.5045 24.1632 93.4286 24.2273C92.4868 25.0123 91.3019 25.4609 89.9955 25.4609C86.9423 25.4449 84.4663 22.9296 84.4663 19.7574C84.4663 16.6333 86.9423 14.0859 89.9955 14.0859C91.3171 14.0859 92.4868 14.5666 93.4437 15.3516C93.5805 15.4638 93.626 15.7361 93.4893 15.8963C93.3678 16.0565 93.1399 16.0886 92.9576 15.9604C92.1829 15.2875 91.1348 14.871 89.9955 14.871C87.3372 14.871 85.2106 17.0659 85.2106 19.7574C85.2106 22.481 87.3372 24.6759 89.9955 24.6759C91.0285 24.6759 92.0159 24.3234 92.8058 23.7146V20.4143Z" fill="white"/>
<path d="M96.8381 19.7734C96.8533 16.6333 99.1014 14.0859 101.972 14.0859C104.813 14.0859 107.046 16.6333 107.061 19.7734C107.046 22.9136 104.813 25.4609 101.972 25.4609C99.1014 25.4609 96.8533 22.9136 96.8381 19.7734ZM97.5824 19.7734C97.5824 22.513 99.5571 24.6759 101.972 24.6759C104.312 24.6759 106.286 22.513 106.302 19.7734C106.286 17.0018 104.312 14.887 101.972 14.887C99.5571 14.887 97.5824 17.0018 97.5824 19.7734Z" fill="white"/>
</svg>
