<svg width="125" height="40" viewBox="0 0 125 40" fill="none" xmlns="http://www.w3.org/2000/svg">
<rect y="0.4375" width="125" height="39.1304" rx="5.43478" fill="black"/>
<path d="M20.4842 25.5976V20.5823L16.9145 15.4223C16.8082 15.2455 16.8386 14.9883 16.9905 14.8757C17.1576 14.7311 17.4006 14.7632 17.5069 14.94L20.8336 19.7785L24.1755 14.94C24.2818 14.7632 24.5249 14.7311 24.6919 14.8757C24.859 14.9883 24.8894 15.2455 24.7679 15.4223L21.2134 20.5501V25.5976C21.2134 25.8065 21.0615 25.9834 20.8488 25.9834C20.6513 25.9834 20.4842 25.8065 20.4842 25.5976Z" fill="white"/>
<path d="M25.3595 20.2768C25.3747 17.1262 27.6228 14.5703 30.4938 14.5703C33.3344 14.5703 35.5674 17.1262 35.5826 20.2768C35.5674 23.4275 33.3344 25.9834 30.4938 25.9834C27.6228 25.9834 25.3747 23.4275 25.3595 20.2768ZM26.1038 20.2768C26.1038 23.0256 28.0786 25.1957 30.4938 25.1957C32.8331 25.1957 34.8079 23.0256 34.823 20.2768C34.8079 17.4959 32.8331 15.374 30.4938 15.374C28.0786 15.374 26.1038 17.4959 26.1038 20.2768Z" fill="white"/>
<path d="M38.069 21.4342V15.1169C38.069 14.9079 38.2361 14.7311 38.4336 14.7311C38.6463 14.7311 38.8134 14.9079 38.8134 15.1169V21.4342C38.8134 23.5079 40.4083 25.1796 42.3527 25.1957C44.3274 25.1796 45.9224 23.5079 45.9224 21.4342V15.1169C45.9224 14.9079 46.0895 14.7311 46.287 14.7311C46.4996 14.7311 46.6667 14.9079 46.6667 15.1169V21.4342C46.6667 23.9419 44.7376 25.9834 42.3527 25.9834C39.9982 25.9834 38.069 23.9419 38.069 21.4342Z" fill="white"/>
<path d="M55.6148 25.2921C55.4325 24.9224 55.3262 24.392 55.3262 23.4436C55.3262 22.6237 54.9312 22.1094 54.4603 21.7396C53.9894 21.386 53.4274 21.2092 53.2299 21.177C53.1843 21.1609 53.1691 21.1449 53.1539 21.1449H50.5716V25.5976C50.5716 25.8065 50.4045 25.9834 50.1918 25.9834C49.9944 25.9834 49.8273 25.8065 49.8273 25.5976V15.1169C49.8273 14.924 49.9792 14.7471 50.1615 14.7311H53.1995C54.8704 14.7311 56.2224 16.1617 56.2224 17.946C56.2224 19.232 55.5084 20.3411 54.4755 20.8555C54.5211 20.8877 54.5666 20.9037 54.6274 20.9359C55.3262 21.3538 56.0553 22.1736 56.0553 23.4436C56.0553 24.1026 56.1161 24.5045 56.192 24.7456C56.2528 24.9385 56.3287 25.0028 56.3439 25.0189C56.511 25.0028 56.6933 25.0992 56.754 25.2761C56.7996 25.485 56.7085 25.7101 56.511 25.7905C56.4958 25.7905 56.4199 25.8065 56.3287 25.8065H56.2983C56.1009 25.8065 55.7819 25.6458 55.6148 25.2921ZM55.4933 17.946C55.4933 16.5957 54.4603 15.5187 53.1995 15.5187H50.5716V20.3733H53.2603C54.4907 20.3411 55.4933 19.2641 55.4933 17.946Z" fill="white"/>
<path d="M69.9211 25.9834H64.4526C64.2551 25.9834 64.088 25.8065 64.088 25.5976V15.1169C64.088 14.9079 64.2551 14.7311 64.4526 14.7311C64.6652 14.7311 64.8323 14.9079 64.8323 15.1169V25.1957H69.9211C70.1337 25.1957 70.3008 25.3725 70.3008 25.5976C70.3008 25.8065 70.1337 25.9834 69.9211 25.9834Z" fill="white"/>
<path d="M71.5683 20.2768C71.5835 17.1262 73.8316 14.5703 76.7026 14.5703C79.5432 14.5703 81.7762 17.1262 81.7913 20.2768C81.7762 23.4275 79.5432 25.9834 76.7026 25.9834C73.8316 25.9834 71.5835 23.4275 71.5683 20.2768ZM72.3126 20.2768C72.3126 23.0256 74.2873 25.1957 76.7026 25.1957C79.0419 25.1957 81.0166 23.0256 81.0318 20.2768C81.0166 17.4959 79.0419 15.374 76.7026 15.374C74.2873 15.374 72.3126 17.4959 72.3126 20.2768Z" fill="white"/>
<path d="M92.8136 20.9198H89.9122C89.6995 20.9198 89.5325 20.7591 89.5325 20.534C89.5325 20.309 89.6995 20.1322 89.9122 20.1322H93.2389C93.4212 20.1482 93.5731 20.3251 93.5731 20.534V24.4563C93.5579 24.5688 93.5123 24.6813 93.4364 24.7456C92.4946 25.5333 91.3097 25.9834 90.0034 25.9834C86.9501 25.9673 84.4741 23.4436 84.4741 20.2608C84.4741 17.1262 86.9501 14.5703 90.0034 14.5703C91.3249 14.5703 92.4946 15.0526 93.4516 15.8402C93.5883 15.9527 93.6338 16.226 93.4971 16.3868C93.3756 16.5475 93.1478 16.5797 92.9655 16.4511C92.1908 15.7759 91.1426 15.358 90.0034 15.358C87.3451 15.358 85.2184 17.5602 85.2184 20.2608C85.2184 22.9935 87.3451 25.1957 90.0034 25.1957C91.0363 25.1957 92.0237 24.8421 92.8136 24.2312V20.9198Z" fill="white"/>
<path d="M96.8459 20.2768C96.8611 17.1262 99.1092 14.5703 101.98 14.5703C104.821 14.5703 107.054 17.1262 107.069 20.2768C107.054 23.4275 104.821 25.9834 101.98 25.9834C99.1092 25.9834 96.8611 23.4275 96.8459 20.2768ZM97.5902 20.2768C97.5902 23.0256 99.5649 25.1957 101.98 25.1957C104.32 25.1957 106.294 23.0256 106.309 20.2768C106.294 17.4959 104.32 15.374 101.98 15.374C99.5649 15.374 97.5902 17.4959 97.5902 20.2768Z" fill="white"/>
</svg>
