<svg width="166" height="21" viewBox="0 0 166 21" fill="none" xmlns="http://www.w3.org/2000/svg">
<path d="M6.68412 20.2901V11.062L0.115829 1.56761C-0.0798218 1.24225 -0.0239215 0.769015 0.25558 0.561972C0.563032 0.295774 1.01023 0.35493 1.20589 0.680282L7.32697 9.5831L13.476 0.680282C13.6717 0.35493 14.1189 0.295774 14.4263 0.561972C14.7338 0.769015 14.7897 1.24225 14.5661 1.56761L8.02572 11.0028V20.2901C8.02572 20.6746 7.74622 21 7.35492 21C6.99157 21 6.68412 20.6746 6.68412 20.2901Z" fill="white"/>
<path d="M15.6546 10.5C15.6825 4.70282 19.8192 0 25.1017 0C30.3284 0 34.4371 4.70282 34.465 10.5C34.4371 16.2972 30.3284 21 25.1017 21C19.8192 21 15.6825 16.2972 15.6546 10.5ZM17.0241 10.5C17.0241 15.5577 20.6577 19.5507 25.1017 19.5507C29.4061 19.5507 33.0396 15.5577 33.0675 10.5C33.0396 5.3831 29.4061 1.47887 25.1017 1.47887C20.6577 1.47887 17.0241 5.3831 17.0241 10.5Z" fill="white"/>
<path d="M39.0401 12.6296V1.00563C39.0401 0.621128 39.3476 0.295774 39.7109 0.295774C40.1022 0.295774 40.4097 0.621128 40.4097 1.00563V12.6296C40.4097 16.4451 43.3445 19.5211 46.9221 19.5507C50.5556 19.5211 53.4904 16.4451 53.4904 12.6296V1.00563C53.4904 0.621128 53.7978 0.295774 54.1612 0.295774C54.5525 0.295774 54.8599 0.621128 54.8599 1.00563V12.6296C54.8599 17.2437 51.3102 21 46.9221 21C42.5898 21 39.0401 17.2437 39.0401 12.6296Z" fill="white"/>
<path d="M71.3243 19.7282C70.9889 19.0479 70.7933 18.0718 70.7933 16.3268C70.7933 14.8183 70.0666 13.8718 69.2001 13.1915C68.3336 12.5408 67.2995 12.2155 66.9361 12.1563C66.8523 12.1268 66.8243 12.0972 66.7964 12.0972H62.0449V20.2901C62.0449 20.6746 61.7374 21 61.3461 21C60.9827 21 60.6753 20.6746 60.6753 20.2901V1.00563C60.6753 0.650705 60.9548 0.325351 61.2902 0.295774H66.8802C69.9548 0.295774 72.4423 2.92817 72.4423 6.21127C72.4423 8.57747 71.1287 10.6183 69.228 11.5648C69.3119 11.6239 69.3957 11.6535 69.5075 11.7127C70.7933 12.4817 72.1349 13.9901 72.1349 16.3268C72.1349 17.5394 72.2467 18.2789 72.3864 18.7225C72.4982 19.0775 72.638 19.1958 72.6659 19.2254C72.9734 19.1958 73.3088 19.3732 73.4206 19.6986C73.5044 20.0831 73.3367 20.4972 72.9734 20.6451C72.9454 20.6451 72.8057 20.6746 72.638 20.6746H72.5821C72.2187 20.6746 71.6318 20.3789 71.3243 19.7282ZM71.1007 6.21127C71.1007 3.72676 69.2001 1.74507 66.8802 1.74507H62.0449V10.6775H66.992C69.256 10.6183 71.1007 8.63662 71.1007 6.21127Z" fill="white"/>
<path d="M97.6479 21H87.5858C87.2225 21 86.915 20.6746 86.915 20.2901V1.00563C86.915 0.621128 87.2225 0.295774 87.5858 0.295774C87.9771 0.295774 88.2846 0.621128 88.2846 1.00563V19.5507H97.6479C98.0392 19.5507 98.3466 19.8761 98.3466 20.2901C98.3466 20.6746 98.0392 21 97.6479 21Z" fill="white"/>
<path d="M100.679 10.5C100.707 4.70282 104.843 0 110.126 0C115.353 0 119.461 4.70282 119.489 10.5C119.461 16.2972 115.353 21 110.126 21C104.843 21 100.707 16.2972 100.679 10.5ZM102.048 10.5C102.048 15.5577 105.682 19.5507 110.126 19.5507C114.43 19.5507 118.064 15.5577 118.092 10.5C118.064 5.3831 114.43 1.47887 110.126 1.47887C105.682 1.47887 102.048 5.3831 102.048 10.5Z" fill="white"/>
<path d="M139.77 11.6831H134.432C134.04 11.6831 133.733 11.3873 133.733 10.9732C133.733 10.5592 134.04 10.2338 134.432 10.2338H140.553C140.888 10.2634 141.168 10.5887 141.168 10.9732V18.1901C141.14 18.3972 141.056 18.6042 140.916 18.7225C139.183 20.1718 137.003 21 134.599 21C128.981 20.9704 124.425 16.3268 124.425 10.4704C124.425 4.70282 128.981 0 134.599 0C137.031 0 139.183 0.887325 140.944 2.33662C141.196 2.54366 141.279 3.04648 141.028 3.34225C140.804 3.63803 140.385 3.69718 140.05 3.46056C138.624 2.21831 136.696 1.4493 134.599 1.4493C129.708 1.4493 125.795 5.50141 125.795 10.4704C125.795 15.4986 129.708 19.5507 134.599 19.5507C136.5 19.5507 138.317 18.9 139.77 17.7761V11.6831Z" fill="white"/>
<path d="M147.19 10.5C147.217 4.70282 151.354 0 156.637 0C161.863 0 165.972 4.70282 166 10.5C165.972 16.2972 161.863 21 156.637 21C151.354 21 147.217 16.2972 147.19 10.5ZM148.559 10.5C148.559 15.5577 152.193 19.5507 156.637 19.5507C160.941 19.5507 164.575 15.5577 164.602 10.5C164.575 5.3831 160.941 1.47887 156.637 1.47887C152.193 1.47887 148.559 5.3831 148.559 10.5Z" fill="white"/>
</svg>
