<svg width="105" height="32" viewBox="0 0 105 32" fill="none" xmlns="http://www.w3.org/2000/svg">
<g clip-path="url(#clip0_420_27270)">
<path d="M8.63943 31.0162C8.24031 31.4149 7.59357 31.4148 7.19461 31.0159C6.79549 30.6168 6.79543 29.9698 7.19447 29.5707L11.2222 25.5421C11.6219 25.1423 12.27 25.1423 12.6698 25.542C13.0697 25.9418 13.0696 26.5903 12.6695 26.99L8.63943 31.0162Z" fill="white"/>
<path d="M2.34617 24.7227C1.9472 25.1215 1.30049 25.1215 0.901562 24.7226C0.502481 24.3236 0.502515 23.6766 0.901639 23.2776L4.93054 19.2502C5.32951 18.8514 5.97623 18.8514 6.37516 19.2503C6.77424 19.6493 6.7742 20.2963 6.37508 20.6953L2.34617 24.7227Z" fill="white"/>
<path d="M2.08644 31.2776C1.68741 31.6765 1.0406 31.6764 0.641617 31.2775C0.24256 30.8785 0.2425 30.2316 0.641483 29.8325L4.66921 25.8039C5.06884 25.4042 5.71696 25.4045 6.11622 25.8046C6.51493 26.2041 6.51454 26.8511 6.11534 27.2502L2.08644 31.2776Z" fill="white"/>
<path d="M25.4395 9.0986C25.4717 8.52009 25.1885 7.93198 24.59 7.33749C24.0075 6.75258 23.4186 6.47131 22.8361 6.49368C22.2504 6.51925 21.7194 6.76856 21.2431 7.2448C20.7636 7.72423 20.5126 8.2548 20.4901 8.83971C20.4676 9.42462 20.754 10.0127 21.3493 10.6136C21.935 11.1953 22.5175 11.4734 23.0935 11.4446C23.676 11.4127 24.2038 11.1602 24.6801 10.6839C25.1596 10.2045 25.4106 9.67712 25.4395 9.0986Z" fill="#00D26E"/>
<path d="M15.7797 8.65446C18.8047 5.63084 23.1652 3.98799 27.4517 4.26286C27.5651 4.27012 27.6568 4.36047 27.6641 4.47381C27.9377 8.75674 26.2932 13.1196 23.2714 16.14L15.6568 23.751C15.3695 24.0382 15.2703 24.4636 15.4008 24.8483L16.4934 28.0667C16.5886 28.3473 16.9453 28.4306 17.1549 28.2211L26.2578 19.1253C30.7374 14.6442 32.7391 8.25174 31.6095 2.01592L31.5793 1.84949C31.4407 1.08434 30.8422 0.485315 30.0772 0.345931L29.9104 0.315533C23.9537 -0.761593 17.4885 0.97715 13.8231 4.64321L3.69389 14.7647C3.4842 14.9742 3.5673 15.3311 3.84798 15.4264L7.07089 16.5211C7.45551 16.6518 7.88094 16.5526 8.16817 16.2654L15.7797 8.65446Z" fill="#00D26E"/>
<path d="M21.4506 13.45C21.617 13.2908 21.6254 13.0247 21.4625 12.8618L19.0465 10.4468C18.8903 10.2906 18.6371 10.2906 18.4809 10.4468L11.3562 17.5703C11.2165 17.71 11.2718 17.9477 11.4589 18.0113L13.0409 18.5494C13.1977 18.6028 13.3209 18.726 13.3742 18.8829L13.9049 20.4462C13.9684 20.6333 14.2062 20.6887 14.3459 20.549L21.2706 13.6256C21.3289 13.5676 21.3888 13.5091 21.4506 13.45Z" fill="#00D26E"/>
</g>
<path d="M68.7386 14.5896C68.4471 13.8532 68.0291 13.3009 67.4806 12.9327C66.9321 12.5645 66.2609 12.3804 65.4631 12.3804H65.3059C64.5196 12.3804 63.8561 12.5645 63.3153 12.9327C62.7745 13.3009 62.3679 13.8532 62.0879 14.5896C62.0841 14.5934 62.0841 14.6049 62.0803 14.6164C62.0764 14.6049 62.0726 14.5934 62.0688 14.5896C61.7888 13.8532 61.386 13.3009 60.8491 12.9327C60.316 12.5645 59.6486 12.3804 58.8508 12.3804H58.6936C57.9111 12.3804 57.2476 12.5645 56.7029 12.9327C56.1621 13.3009 55.7556 13.8532 55.4756 14.5896C55.3682 14.8734 55.28 15.1879 55.2186 15.537V12.7294H52.4341V23.4687H55.9512V17.3013C55.9512 16.7835 56.0893 16.3577 56.3693 16.0279C56.6454 15.698 57.0251 15.5331 57.5161 15.5331C58.007 15.5331 58.3829 15.698 58.6475 16.0279C58.9122 16.3577 59.0426 16.7681 59.0426 17.2591V23.4687H62.5597V17.3013C62.5597 16.7835 62.7016 16.3577 62.9778 16.0279C63.2539 15.698 63.6375 15.5331 64.1284 15.5331C64.6155 15.5331 64.9914 15.698 65.256 16.0279C65.5207 16.3577 65.6549 16.7681 65.6549 17.2591V23.4687H69.172V17.3588C69.172 16.2427 69.0263 15.3183 68.7386 14.5896Z" fill="white"/>
<path d="M76.8451 20.8967C77.3859 20.8967 77.8308 20.7816 78.1875 20.5477C78.5442 20.3137 78.8088 19.9838 78.9891 19.5658C79.1694 19.1439 79.2614 18.6683 79.2614 18.1352C79.2614 17.579 79.1655 17.0881 78.9814 16.6662C78.7935 16.2443 78.5212 15.9106 78.1606 15.6651C77.7963 15.4158 77.359 15.2931 76.8451 15.2931C76.3273 15.2931 75.89 15.4158 75.5295 15.6651C75.169 15.9106 74.8967 16.2443 74.7087 16.6662C74.5208 17.0881 74.4287 17.579 74.4287 18.1352C74.4287 18.6683 74.5208 19.1439 74.6972 19.5658C74.8775 19.9838 75.1498 20.3137 75.5103 20.5477C75.8709 20.7816 76.3158 20.8967 76.8451 20.8967ZM76.8451 23.8538C75.9054 23.8538 75.0654 23.7119 74.3329 23.4243C73.5964 23.1404 72.9751 22.7454 72.465 22.2391C71.9587 21.7328 71.5713 21.1498 71.3067 20.4901C71.042 19.8266 70.9116 19.1209 70.9116 18.3691V17.9012C70.9116 17.1226 71.0459 16.3977 71.3259 15.7226C71.602 15.0476 71.9971 14.4569 72.5148 13.9545C73.0288 13.4482 73.654 13.0532 74.3904 12.7655C75.123 12.4778 75.9399 12.3359 76.8451 12.3359C77.7579 12.3359 78.5787 12.4778 79.3074 12.7655C80.0362 13.0532 80.6575 13.4482 81.1753 13.9545C81.6893 14.4569 82.0843 15.0476 82.3605 15.7226C82.6405 16.3977 82.7785 17.1226 82.7785 17.9012V18.3691C82.7785 19.1209 82.6443 19.8266 82.3835 20.4901C82.1188 21.1498 81.7315 21.7328 81.2213 22.2391C80.7112 22.7454 80.0937 23.1404 79.3573 23.4243C78.6209 23.7119 77.7848 23.8538 76.8451 23.8538Z" fill="white"/>
<path d="M88.9479 23.8144C87.3984 23.8144 86.1825 23.4961 85.2927 22.8517C84.4029 22.2074 83.9273 21.3061 83.8621 20.1362H86.9573C87.0071 20.4623 87.2066 20.7384 87.5556 20.9762C87.9046 21.2063 88.3917 21.3214 89.0246 21.3214C89.4733 21.3214 89.8646 21.2562 90.1944 21.122C90.5204 20.9839 90.6853 20.7614 90.6853 20.4507C90.6853 20.1784 90.5588 19.9521 90.3018 19.7757C90.041 19.6031 89.5731 19.4804 88.8904 19.419L88.1539 19.3423C86.7885 19.1965 85.7836 18.8207 85.1393 18.2108C84.4949 17.601 84.1727 16.8377 84.1727 15.9172C84.1727 15.1271 84.3645 14.4713 84.7519 13.9611C85.1393 13.4472 85.6724 13.0636 86.3551 12.8028C87.0378 12.542 87.8203 12.4116 88.6947 12.4116C90.1254 12.4116 91.2798 12.73 92.1543 13.359C93.0326 13.988 93.4967 14.8932 93.5466 16.0706H90.4514C90.4015 15.7485 90.2289 15.4723 89.9298 15.246C89.6344 15.0197 89.2087 14.9047 88.6564 14.9047C88.2575 14.9047 87.9315 14.9737 87.6783 15.1195C87.429 15.2614 87.3025 15.4646 87.3025 15.7216C87.3025 15.9939 87.4214 16.1972 87.663 16.3238C87.897 16.4542 88.2843 16.5501 88.8098 16.6153L89.5462 16.6958C90.9116 16.8377 91.9626 17.2175 92.7066 17.8311C93.4469 18.4486 93.8189 19.2579 93.8189 20.2551C93.8189 20.9915 93.6195 21.6282 93.2283 22.1614C92.8332 22.6907 92.2732 23.101 91.5445 23.3887C90.8158 23.6725 89.9528 23.8144 88.9479 23.8144Z" fill="white"/>
<path d="M101.178 20.627C101.025 20.8993 100.829 21.0911 100.591 21.2023C100.354 21.3135 100.081 21.3672 99.7706 21.3672C99.295 21.3672 98.9268 21.2483 98.666 21.0067C98.409 20.7651 98.2825 20.4544 98.2825 20.0632C98.2825 19.6643 98.409 19.3421 98.666 19.1005C98.9268 18.8589 99.295 18.74 99.7706 18.74H101.451V19.4994C101.424 19.9788 101.335 20.3547 101.178 20.627ZM104.204 14.4826C103.798 13.8344 103.211 13.3435 102.448 13.0213C101.677 12.6991 100.749 12.5342 99.6517 12.5342C99.2682 12.5342 98.8463 12.5419 98.3899 12.5534C97.9296 12.5687 97.4885 12.5879 97.0628 12.6109C96.6371 12.6377 96.2727 12.6646 95.962 12.6914V15.6486C96.3993 15.6217 96.8825 15.5949 97.4118 15.568C97.9411 15.545 98.4397 15.5258 98.9192 15.5105C99.3948 15.499 99.7591 15.4913 100.001 15.4913C100.515 15.4913 100.887 15.6102 101.113 15.8519C101.332 16.0858 101.443 16.4387 101.451 16.9143H99.7706C98.8041 16.9143 97.945 17.0293 97.197 17.2595C96.4491 17.4973 95.8661 17.8616 95.4404 18.3602C95.0147 18.8589 94.8037 19.5109 94.8037 20.3163C94.8037 21.0297 94.9648 21.6434 95.2946 22.1535C95.6207 22.6675 96.0771 23.0587 96.6562 23.331C97.2354 23.6033 97.9028 23.7414 98.6468 23.7414C99.3948 23.7414 100.024 23.6033 100.534 23.331C101.044 23.0587 101.443 22.6675 101.731 22.1535C101.849 21.9426 101.949 21.7124 102.03 21.4631V23.4691H104.814V16.9488C104.814 15.9516 104.611 15.1308 104.204 14.4826Z" fill="white"/>
<path d="M48.1419 11.69C48.7709 11.69 49.235 11.5212 49.5342 11.1914C49.8295 10.8615 49.9791 10.4358 49.9791 9.91798C49.9791 9.40019 49.8295 8.97446 49.5342 8.64461C49.235 8.31476 48.7671 8.146 48.1227 8.146C47.4899 8.146 47.0219 8.31476 46.7228 8.64461C46.4159 8.97446 46.2664 9.40019 46.2664 9.91798C46.2664 10.4358 46.4159 10.8615 46.7228 11.1914C47.0219 11.5212 47.4975 11.69 48.1419 11.69Z" fill="#00D26E"/>
<path d="M46.6914 12.7285H45.5024C45.8515 13.0354 46.1583 13.3882 46.4076 13.7909C46.9407 14.6462 47.2131 15.7087 47.2131 16.9475V23.4678H50.2086V12.7285H46.6914Z" fill="#00D26E"/>
<path d="M42.5658 19.4994C42.5389 19.9788 42.4507 20.3547 42.2973 20.627C42.1401 20.8993 41.9445 21.0911 41.7067 21.2023C41.4689 21.3135 41.1965 21.3672 40.882 21.3672C40.4064 21.3672 40.0421 21.2483 39.7851 21.0067C39.5281 20.7651 39.3977 20.4544 39.3977 20.0632C39.3977 19.6643 39.5281 19.3421 39.7851 19.1005C40.0421 18.8589 40.4064 18.74 40.882 18.74H42.5658V19.4994ZM43.563 13.0213C42.7959 12.6991 41.8639 12.5342 40.7708 12.5342C40.3834 12.5342 39.9615 12.5419 39.5013 12.5534C39.0448 12.5687 38.6038 12.5879 38.178 12.6109C37.7523 12.6377 37.3879 12.6646 37.0773 12.6914V15.6486C37.5145 15.6217 37.9978 15.5949 38.5271 15.568C39.0564 15.545 39.555 15.5258 40.0344 15.5105C40.51 15.499 40.8705 15.4913 41.116 15.4913C41.6338 15.4913 42.002 15.6102 42.2283 15.8519C42.4469 16.0858 42.5581 16.4387 42.5658 16.9143H40.882C39.9193 16.9143 39.064 17.0293 38.3161 17.2595C37.5644 17.4973 36.9814 17.8616 36.5556 18.3602C36.1299 18.8589 35.9189 19.5109 35.9189 20.3163C35.9189 21.0297 36.0839 21.6434 36.4099 22.1535C36.7397 22.6675 37.1923 23.0587 37.7715 23.331C38.3506 23.6033 39.0142 23.7414 39.7621 23.7414C40.51 23.7414 41.139 23.6033 41.6491 23.331C42.1592 23.0587 42.5581 22.6675 42.8458 22.1535C42.9647 21.9426 43.0644 21.7124 43.145 21.4631V23.4691H45.9295V16.9488C45.9295 15.9516 45.7262 15.1308 45.3197 14.4826C44.9131 13.8344 44.3301 13.3435 43.563 13.0213Z" fill="#00D26E"/>
<defs>
<clipPath id="clip0_420_27270">
<rect width="32" height="32" fill="white" transform="translate(-0.0810547)"/>
</clipPath>
</defs>
</svg>
