<svg width="32" height="32" viewBox="0 0 32 32" fill="none" xmlns="http://www.w3.org/2000/svg">
<path d="M8.72036 31.0162C8.32124 31.4149 7.6745 31.4148 7.27554 31.0159C6.87643 30.6168 6.87637 29.9698 7.27541 29.5707L11.3031 25.5421C11.7028 25.1423 12.351 25.1423 12.7507 25.542C13.1507 25.9418 13.1505 26.5903 12.7505 26.99L8.72036 31.0162Z" fill="white"/>
<path d="M2.42711 24.7227C2.02814 25.1215 1.38142 25.1215 0.982495 24.7226C0.583414 24.3236 0.583448 23.6766 0.982571 23.2776L5.01148 19.2502C5.41045 18.8514 6.05716 18.8514 6.45609 19.2503C6.85517 19.6493 6.85513 20.2963 6.45601 20.6953L2.42711 24.7227Z" fill="white"/>
<path d="M2.16737 31.2776C1.76834 31.6765 1.12154 31.6764 0.72255 31.2775C0.323493 30.8785 0.323433 30.2316 0.722416 29.8325L4.75014 25.8039C5.14978 25.4042 5.79789 25.4045 6.19715 25.8046C6.59586 26.2041 6.59547 26.8511 6.19628 27.2502L2.16737 31.2776Z" fill="white"/>
<path d="M25.5205 9.0986C25.5526 8.52009 25.2695 7.93198 24.6709 7.33748C24.0884 6.75258 23.4995 6.47131 22.917 6.49368C22.3313 6.51925 21.8003 6.76856 21.3241 7.24479C20.8446 7.72423 20.5936 8.2548 20.571 8.83971C20.5485 9.42461 20.8349 10.0127 21.4303 10.6136C22.016 11.1953 22.5984 11.4734 23.1745 11.4446C23.7569 11.4127 24.2847 11.1602 24.761 10.6839C25.2405 10.2045 25.4915 9.67712 25.5205 9.0986Z" fill="#00D26E"/>
<path d="M15.8606 8.65446C18.8856 5.63084 23.2462 3.98799 27.5327 4.26286C27.646 4.27012 27.7377 4.36047 27.7451 4.47381C28.0186 8.75674 26.3741 13.1196 23.3524 16.14L15.7378 23.751C15.4504 24.0382 15.3512 24.4636 15.4818 24.8483L16.5743 28.0667C16.6696 28.3473 17.0262 28.4305 17.2358 28.2211L26.3387 19.1253C30.8183 14.6442 32.82 8.25174 31.6904 2.01592L31.6603 1.84949C31.5216 1.08434 30.9231 0.485315 30.1581 0.345931L29.9913 0.315533C24.0346 -0.761592 17.5694 0.977149 13.904 4.64321L3.77482 14.7647C3.56514 14.9742 3.64823 15.3311 3.92891 15.4264L7.15182 16.5211C7.53644 16.6518 7.96187 16.5526 8.2491 16.2654L15.8606 8.65446Z" fill="#00D26E"/>
<path d="M21.5315 13.45C21.698 13.2908 21.7063 13.0246 21.5434 12.8618L19.1274 10.4468C18.9712 10.2906 18.718 10.2906 18.5618 10.4468L11.4371 17.5703C11.2974 17.71 11.3528 17.9477 11.5398 18.0113L13.1218 18.5494C13.2787 18.6028 13.4018 18.726 13.4551 18.8829L13.9858 20.4462C14.0493 20.6333 14.2871 20.6887 14.4269 20.549L21.3515 13.6256C21.4099 13.5676 21.4697 13.5091 21.5315 13.45Z" fill="#00D26E"/>
</svg>
