<svg width="27" height="32" viewBox="0 0 27 32" fill="none" xmlns="http://www.w3.org/2000/svg">
<path d="M24.6281 20.7273C24.6208 20.7698 24.6157 20.813 24.6131 20.8569C24.3551 25.4025 20.6653 28.9634 16.2134 28.9634C13.9376 28.9634 11.8055 28.0473 10.2098 26.3838C10.2077 26.3816 10.2055 26.379 10.2029 26.3768L2.45925 18.4487C2.23873 18.2229 2.11719 17.9227 2.11719 17.6034C2.11719 17.2841 2.23873 16.9838 2.45925 16.758C2.68705 16.5248 3.28492 16.4086 3.28492 16.4086C3.28492 16.4086 3.88317 16.5252 4.1106 16.758L7.09999 19.8186C7.40385 20.1297 7.86053 20.2225 8.25718 20.0544C8.65419 19.886 8.91292 19.4896 8.91292 19.05V3.7971C8.91292 3.13767 9.43692 2.60156 10.0807 2.60156C10.7247 2.60156 11.2484 3.13805 11.2484 3.7971V9.50433V14.07C11.2484 14.6706 11.724 15.1572 12.3102 15.1572C12.8965 15.1572 13.3721 14.6702 13.3721 14.07V9.50433C13.3721 8.8449 13.8961 8.30879 14.5398 8.30879C15.1839 8.30879 15.7076 8.84527 15.7076 9.50433V11.7874V14.0704C15.7076 14.671 16.1832 15.1575 16.7694 15.1575C17.3556 15.1575 17.8312 14.6706 17.8312 14.0704V11.7874C17.8312 11.1279 18.3552 10.5918 18.999 10.5918C19.6431 10.5918 20.1667 11.1283 20.1667 11.7874V14.0704V15.2119C20.1667 15.8125 20.6423 16.2991 21.2286 16.2991C21.8152 16.2991 22.2904 15.8121 22.2904 15.2119V14.0704C22.2904 13.4114 22.8144 12.8749 23.4581 12.8749C24.1019 12.8749 24.6259 13.4114 24.6259 14.0704V20.7273H24.6281Z" fill="white"/>
<path d="M23.4626 10.7026C23.0131 10.7026 22.5848 10.795 22.1944 10.9627C21.8334 9.50298 20.5394 8.41958 19.0027 8.41958C18.5533 8.41958 18.125 8.51197 17.7345 8.67962C17.3735 7.21994 16.0795 6.13654 14.5431 6.13654C14.1319 6.13654 13.7382 6.21403 13.3754 6.3556V3.79985C13.3754 1.94153 11.8987 0.429688 10.0836 0.429688C8.26851 0.429688 6.79182 1.94153 6.79182 3.79985V16.4281L5.61535 15.2236C4.3319 13.9096 2.24351 13.9096 0.96005 15.2236C0.338155 15.8603 -0.00390625 16.7064 -0.00390625 17.6065C-0.00390625 18.5066 0.338519 19.3531 0.96005 19.9894L8.70009 27.9137C10.6979 29.9944 13.3667 31.1404 16.2156 31.1404C21.7257 31.1404 26.3035 26.7841 26.7227 21.186C26.7434 21.1011 26.7543 21.0128 26.7543 20.9215V14.0728C26.7543 12.2145 25.2777 10.7026 23.4626 10.7026ZM24.6303 20.73C24.623 20.7725 24.6179 20.8157 24.6154 20.8597C24.3574 25.4053 20.6675 28.9662 16.2156 28.9662C13.9398 28.9662 11.8077 28.0501 10.2121 26.3866C10.2099 26.3844 10.2077 26.3817 10.2052 26.3795L2.46148 18.4515C2.24096 18.2257 2.11942 17.9254 2.11942 17.6061C2.11942 17.2868 2.24096 16.9866 2.46148 16.7608C2.68928 16.5276 3.28716 16.4113 3.28716 16.4113C3.28716 16.4113 3.8854 16.5279 4.11283 16.7608L7.10223 19.8214C7.40608 20.1325 7.86276 20.2252 8.25941 20.0572C8.65642 19.8888 8.91515 19.4924 8.91515 19.0528V3.79985C8.91515 3.14042 9.43916 2.60431 10.0829 2.60431C10.727 2.60431 11.2506 3.1408 11.2506 3.79985V9.50708V14.0728C11.2506 14.6733 11.7262 15.1599 12.3125 15.1599C12.8987 15.1599 13.3743 14.673 13.3743 14.0728V9.50708C13.3743 8.84765 13.8983 8.31154 14.542 8.31154C15.1861 8.31154 15.7098 8.84802 15.7098 9.50708V11.7901V14.0732C15.7098 14.6737 16.1854 15.1603 16.7716 15.1603C17.3579 15.1603 17.8335 14.6733 17.8335 14.0732V11.7901C17.8335 11.1307 18.3575 10.5946 19.0012 10.5946C19.6453 10.5946 20.1689 11.1311 20.1689 11.7901V14.0732V15.2147C20.1689 15.8152 20.6446 16.3018 21.2308 16.3018C21.8174 16.3018 22.2926 15.8149 22.2926 15.2147V14.0732C22.2926 13.4141 22.8166 12.8776 23.4604 12.8776C24.1041 12.8776 24.6281 13.4141 24.6281 14.0732V20.73H24.6303Z" fill="#5A5A5A"/>
</svg>
