<svg width="11" height="9" viewBox="0 0 11 9" fill="none" xmlns="http://www.w3.org/2000/svg">
<path d="M0.768277 0C0.343969 0 0 0.343969 0 0.768277C0 1.19258 0.343969 1.53655 0.768276 1.53655H9.76835C10.1927 1.53655 10.5366 1.19258 10.5366 0.768277C10.5366 0.343969 10.1927 0 9.76835 0H0.768277ZM0 4.49997C0 4.92432 0.344 5.26832 0.768345 5.26832H6.47565C6.89996 5.26832 7.24393 4.92434 7.24393 4.50003C7.24393 4.07573 6.89997 3.73176 6.47566 3.73175L0.768362 3.73163C0.34401 3.73162 0 4.07562 0 4.49997ZM0 8.23172C0 8.65603 0.343969 9 0.768276 9H2.74401C3.16832 9 3.51229 8.65603 3.51229 8.23172C3.51229 7.80742 3.16832 7.46345 2.74401 7.46345H0.768276C0.343968 7.46345 0 7.80742 0 8.23172Z" fill="#014DC0"/>
</svg>
