<svg width="16" height="14" viewBox="0 0 16 14" fill="none" xmlns="http://www.w3.org/2000/svg">
<path d="M0.468842 3.6373H3.8285L11.7357 0.0545074C12.0438 -0.108664 12.4232 0.113208 12.4232 0.471569V13.0988C12.4183 13.4352 12.0768 13.6702 11.7623 13.5277L3.82871 9.93303H3.45682V12.7305C3.45682 13.4614 2.87 14 2.15439 14C1.46123 14 0.891963 13.4278 0.891963 12.7305V9.93303H0.468842C0.21003 9.93303 0 9.72184 0 9.46158V4.10875C0 3.84849 0.21003 3.6373 0.468842 3.6373ZM15.5404 9.8575C15.9761 10.2957 15.3132 10.9623 14.8774 10.5241L13.4246 9.0632C12.9888 8.625 13.6517 7.95836 14.0875 8.39656L15.5404 9.8575ZM14.0875 5.17336C13.6517 5.61156 12.9888 4.94492 13.4246 4.50672L14.8774 3.04577C15.3132 2.60778 15.9761 3.27421 15.5404 3.71242L14.0875 5.17336ZM13.4552 7.25641C12.8386 7.25641 12.8386 6.31371 13.4552 6.31371H15.51C16.0445 6.31371 16.2723 7.24902 15.51 7.25641H13.4552ZM2.51913 9.93303H1.82944V12.7305C1.82944 12.9116 1.97416 13.0573 2.15439 13.0573C2.35544 13.0573 2.51913 12.9454 2.51913 12.7305V9.93303ZM4.34858 4.43365V9.13647L11.4857 12.3701V1.19999L4.34858 4.43365ZM3.4111 4.57999H0.937684V8.99013H3.4111V4.57999Z" fill="white"/>
</svg>
