<svg width="15" height="15" viewBox="0 0 15 15" fill="none" xmlns="http://www.w3.org/2000/svg">
<path fill-rule="evenodd" clip-rule="evenodd" d="M0.539062 2.6C0.539062 1.4402 1.47927 0.5 2.63906 0.5H12.4391C13.5989 0.5 14.5391 1.4402 14.5391 2.6V12.4C14.5391 13.5598 13.5989 14.5 12.4391 14.5H2.63906C1.47927 14.5 0.539062 13.5598 0.539062 12.4V2.6ZM5.43906 13.1H12.4391C12.8257 13.1 13.1391 12.7866 13.1391 12.4V8.2H5.43906V13.1ZM4.03906 13.1H2.63906C2.25247 13.1 1.93906 12.7866 1.93906 12.4V2.6C1.93906 2.2134 2.25247 1.9 2.63906 1.9H4.03906V13.1ZM5.43906 6.8H13.1391V2.6C13.1391 2.2134 12.8257 1.9 12.4391 1.9H5.43906V6.8Z" fill="#014DC0"/>
</svg>
