<svg width="91" height="12" viewBox="0 0 91 12" fill="none" xmlns="http://www.w3.org/2000/svg">
<path d="M4.41392 11.5976V6.58225L0.844201 1.42227C0.737869 1.24545 0.768249 0.988255 0.920152 0.875732C1.08725 0.731059 1.33029 0.763209 1.43662 0.940031L4.7633 5.77852L8.10517 0.940031C8.2115 0.763209 8.45454 0.731059 8.62163 0.875732C8.78873 0.988255 8.81911 1.24545 8.69759 1.42227L5.14306 6.5501V11.5976C5.14306 11.8065 4.99115 11.9834 4.77849 11.9834C4.58101 11.9834 4.41392 11.8065 4.41392 11.5976Z" fill="white"/>
<path d="M9.28918 6.27683C9.30437 3.12619 11.5525 0.570312 14.4235 0.570312C17.2641 0.570312 19.4971 3.12619 19.5122 6.27683C19.4971 9.42748 17.2641 11.9834 14.4235 11.9834C11.5525 11.9834 9.30437 9.42748 9.28918 6.27683ZM10.0335 6.27683C10.0335 9.02561 12.0082 11.1957 14.4235 11.1957C16.7628 11.1957 18.7375 9.02561 18.7527 6.27683C18.7375 3.49591 16.7628 1.37405 14.4235 1.37405C12.0082 1.37405 10.0335 3.49591 10.0335 6.27683Z" fill="white"/>
<path d="M21.9987 7.43421V1.11685C21.9987 0.907882 22.1658 0.731059 22.3633 0.731059C22.5759 0.731059 22.743 0.907882 22.743 1.11685V7.43421C22.743 9.50785 24.338 11.1796 26.2824 11.1957C28.2571 11.1796 29.8521 9.50785 29.8521 7.43421V1.11685C29.8521 0.907882 30.0192 0.731059 30.2167 0.731059C30.4293 0.731059 30.5964 0.907882 30.5964 1.11685V7.43421C30.5964 9.94187 28.6673 11.9834 26.2824 11.9834C23.9279 11.9834 21.9987 9.94187 21.9987 7.43421Z" fill="white"/>
<path d="M39.5445 11.2921C39.3622 10.9224 39.2558 10.392 39.2558 9.44355C39.2558 8.62374 38.8609 8.10935 38.39 7.73963C37.9191 7.38599 37.3571 7.20917 37.1596 7.17702C37.114 7.16094 37.0988 7.14487 37.0836 7.14487H34.5013V11.5976C34.5013 11.8065 34.3342 11.9834 34.1215 11.9834C33.924 11.9834 33.757 11.8065 33.757 11.5976V1.11685C33.757 0.923956 33.9089 0.747134 34.0911 0.731059H37.1292C38.8001 0.731059 40.1521 2.16171 40.1521 3.946C40.1521 5.23198 39.4381 6.34113 38.4052 6.85552C38.4508 6.88767 38.4963 6.90375 38.5571 6.9359C39.2558 7.35384 39.985 8.17365 39.985 9.44355C39.985 10.1026 40.0457 10.5045 40.1217 10.7456C40.1825 10.9385 40.2584 11.0028 40.2736 11.0189C40.4407 11.0028 40.623 11.0992 40.6837 11.2761C40.7293 11.485 40.6382 11.7101 40.4407 11.7905C40.4255 11.7905 40.3495 11.8065 40.2584 11.8065H40.228C40.0305 11.8065 39.7116 11.6458 39.5445 11.2921ZM39.4229 3.946C39.4229 2.59573 38.39 1.51872 37.1292 1.51872H34.5013V6.37328H37.19C38.4204 6.34113 39.4229 5.26413 39.4229 3.946Z" fill="white"/>
<path d="M53.8508 11.9834H48.3822C48.1848 11.9834 48.0177 11.8065 48.0177 11.5976V1.11685C48.0177 0.907882 48.1848 0.731059 48.3822 0.731059C48.5949 0.731059 48.762 0.907882 48.762 1.11685V11.1957H53.8508C54.0634 11.1957 54.2305 11.3725 54.2305 11.5976C54.2305 11.8065 54.0634 11.9834 53.8508 11.9834Z" fill="white"/>
<path d="M55.498 6.27683C55.5131 3.12619 57.7613 0.570312 60.6323 0.570312C63.4729 0.570312 65.7058 3.12619 65.721 6.27683C65.7058 9.42748 63.4729 11.9834 60.6323 11.9834C57.7613 11.9834 55.5131 9.42748 55.498 6.27683ZM56.2423 6.27683C56.2423 9.02561 58.217 11.1957 60.6323 11.1957C62.9716 11.1957 64.9463 9.02561 64.9615 6.27683C64.9463 3.49591 62.9716 1.37405 60.6323 1.37405C58.217 1.37405 56.2423 3.49591 56.2423 6.27683Z" fill="white"/>
<path d="M76.7433 6.91982H73.8419C73.6292 6.91982 73.4621 6.75908 73.4621 6.53403C73.4621 6.30898 73.6292 6.13216 73.8419 6.13216H77.1686C77.3509 6.14824 77.5028 6.32506 77.5028 6.53403V10.4563C77.4876 10.5688 77.442 10.6813 77.3661 10.7456C76.4243 11.5333 75.2394 11.9834 73.933 11.9834C70.8798 11.9673 68.4038 9.44355 68.4038 6.26076C68.4038 3.12619 70.8798 0.570312 73.933 0.570312C75.2546 0.570312 76.4243 1.05255 77.3812 1.84021C77.518 1.95274 77.5635 2.22601 77.4268 2.38675C77.3053 2.5475 77.0774 2.57965 76.8951 2.45105C76.1204 1.77592 75.0723 1.35797 73.933 1.35797C71.2747 1.35797 69.1481 3.56021 69.1481 6.26076C69.1481 8.99346 71.2747 11.1957 73.933 11.1957C74.966 11.1957 75.9534 10.8421 76.7433 10.2312V6.91982Z" fill="white"/>
<path d="M80.7756 6.27683C80.7908 3.12619 83.0389 0.570312 85.9099 0.570312C88.7505 0.570312 90.9835 3.12619 90.9986 6.27683C90.9835 9.42748 88.7505 11.9834 85.9099 11.9834C83.0389 11.9834 80.7908 9.42748 80.7756 6.27683ZM81.5199 6.27683C81.5199 9.02561 83.4946 11.1957 85.9099 11.1957C88.2492 11.1957 90.2239 9.02561 90.2391 6.27683C90.2239 3.49591 88.2492 1.37405 85.9099 1.37405C83.4946 1.37405 81.5199 3.49591 81.5199 6.27683Z" fill="white"/>
</svg>
