<svg id="Layer_1" data-name="Layer 1" xmlns="http://www.w3.org/2000/svg" viewBox="0 0 90.28 99.33"><defs><style>.cls-1{fill:#0061af;}.cls-2{fill:#00aeef;}.cls-3{fill:#b82463;}.cls-4{fill:#fff;}.cls-5{fill:#f99f1c;}.cls-6{fill:#a6ce39;}.cls-7{fill:#ffd200;}.cls-8{fill:#00b48f;}.cls-9{fill:#cd2439;}.cls-10{fill:#004f93;}</style></defs><title>logo-mini</title><circle class="cls-1" cx="45.14" cy="54.18" r="45.14"/><polygon class="cls-2" points="31.98 53.21 38.48 59.62 38.48 46.66 31.98 53.21"/><polygon class="cls-3" points="52.21 59.99 58.98 53.16 52.21 46.48 52.21 59.99"/><circle class="cls-4" cx="45.14" cy="54.18" r="40.6"/><path class="cls-5" d="M52.12,46.63H65.66v0L76.89,35.33A37.34,37.34,0,0,0,63.13,22l-11,11.1Z" transform="translate(0.09 -0.33)"/><path class="cls-6" d="M38.39,46.63V33.27L27,22A37.34,37.34,0,0,0,13.3,35.2l11.6,11.43Z" transform="translate(0.09 -0.33)"/><path class="cls-7" d="M38.39,33.1H52.12v0l11-11.1A37.19,37.19,0,0,0,27,22l11.4,11.24Z" transform="translate(0.09 -0.33)"/><path class="cls-2" d="M38.39,73.9V60.37H25.12L12.73,72.86A37.34,37.34,0,0,0,26.15,86.51L38.65,73.9Z" transform="translate(0.09 -0.33)"/><path class="cls-8" d="M24.86,60.37V46.63h0L13.3,35.2a37.2,37.2,0,0,0-.56,37.66L25.12,60.37Z" transform="translate(0.09 -0.33)"/><path class="cls-9" d="M76.89,35.33,65.66,46.66V60.15l12.13,12a37.21,37.21,0,0,0-.9-36.79Z" transform="translate(0.09 -0.33)"/><path class="cls-3" d="M65.66,60.37H52.12V73.48L64.81,86a37.34,37.34,0,0,0,13-13.88l-12.13-12Z" transform="translate(0.09 -0.33)"/><path class="cls-10" d="M52.12,73.9H38.65L26.15,86.51A37.18,37.18,0,0,0,64.81,86L52.12,73.48Z" transform="translate(0.09 -0.33)"/><polygon class="cls-4" points="52.21 46.31 52.21 32.77 38.48 32.77 38.48 46.31 24.94 46.31 24.94 60.04 38.48 60.04 38.48 73.58 52.21 73.58 52.21 60.04 65.74 60.04 65.74 46.31 52.21 46.31"/><path class="cls-6" d="M43,49.54a2.1,2.1,0,0,1-2.1,2.1,2.67,2.67,0,0,1-2.51-2.3,2.1,2.1,0,0,1,2.1-2.1A2.67,2.67,0,0,1,43,49.54Z" transform="translate(0.09 -0.33)"/><path class="cls-3" d="M51.91,57.81a2.1,2.1,0,0,1-2.1,2.1,2.67,2.67,0,0,1-2.51-2.3,2.1,2.1,0,0,1,2.1-2.1A2.67,2.67,0,0,1,51.91,57.81Z" transform="translate(0.09 -0.33)"/><path class="cls-5" d="M49.94,52a2.1,2.1,0,0,1-2.21-2,2.67,2.67,0,0,1,2.16-2.64,2.1,2.1,0,0,1,2.21,2A2.67,2.67,0,0,1,49.94,52Z" transform="translate(0.09 -0.33)"/><path class="cls-2" d="M40.48,59.73a2.1,2.1,0,0,1-2.21-2,2.67,2.67,0,0,1,2.16-2.64,2.1,2.1,0,0,1,2.21,2A2.67,2.67,0,0,1,40.48,59.73Z" transform="translate(0.09 -0.33)"/><path class="cls-4" d="M38.39,46.63a23.87,23.87,0,0,0-13.53,0" transform="translate(0.09 -0.33)"/><path class="cls-4" d="M38.39,46.68a23.87,23.87,0,0,1,.2-13.53" transform="translate(0.09 -0.33)"/><path class="cls-4" d="M51.86,33.27a23.87,23.87,0,0,1,.31,13.53" transform="translate(0.09 -0.33)"/><path class="cls-4" d="M52.13,46.8a23.87,23.87,0,0,1,13.53-.11" transform="translate(0.09 -0.33)"/><path class="cls-4" d="M65.56,60.15a24.68,24.68,0,0,1-13.61.23" transform="translate(0.09 -0.33)"/><path class="cls-4" d="M52,60.41a23.87,23.87,0,0,1,.11,13.53" transform="translate(0.09 -0.33)"/><path class="cls-4" d="M38.77,73.77a23.87,23.87,0,0,1-.31-13.53" transform="translate(0.09 -0.33)"/><path class="cls-4" d="M25,60.35a23.87,23.87,0,0,0,13.53-.11" transform="translate(0.09 -0.33)"/><path class="cls-1" d="M17.67,5.14a2.37,2.37,0,0,1-.81.59A3.11,3.11,0,0,1,15.52,6a2.26,2.26,0,0,1-1.66-.63,2.18,2.18,0,0,1-.64-1.63V2.58A2.21,2.21,0,0,1,13.85,1a2.15,2.15,0,0,1,1.6-.63A2.26,2.26,0,0,1,17,.82a2,2,0,0,1,.6,1.34v0h-1.2a1.14,1.14,0,0,0-.28-.65.9.9,0,0,0-.66-.22.86.86,0,0,0-.72.35,1.45,1.45,0,0,0-.27.91V3.73a1.47,1.47,0,0,0,.27.92.89.89,0,0,0,.75.35,2.11,2.11,0,0,0,.55-.06.89.89,0,0,0,.32-.15V3.92h-.86V3.08h2.14Z" transform="translate(0.09 -0.33)"/><path class="cls-1" d="M19.92,4.92h2.37v1H18.64V.41h1.28Z" transform="translate(0.09 -0.33)"/><path class="cls-1" d="M27.47,3.65a2.3,2.3,0,0,1-.64,1.67A2.25,2.25,0,0,1,25.15,6,2.24,2.24,0,0,1,22.8,3.65v-1A2.29,2.29,0,0,1,23.45,1a2.48,2.48,0,0,1,3.37,0,2.29,2.29,0,0,1,.65,1.67Zm-1.27-1a1.59,1.59,0,0,0-.28-1,1,1,0,0,0-1.57,0,1.6,1.6,0,0,0-.27,1v1a1.6,1.6,0,0,0,.28,1,.93.93,0,0,0,.79.38.91.91,0,0,0,.78-.38,1.61,1.61,0,0,0,.28-1Z" transform="translate(0.09 -0.33)"/><path class="cls-1" d="M29.68,3.8V5.9H28.4V.41h2.11A2.38,2.38,0,0,1,32,.85a1.46,1.46,0,0,1,.56,1.21,1.2,1.2,0,0,1-.22.73,1.59,1.59,0,0,1-.66.5,1.23,1.23,0,0,1,.73.48,1.48,1.48,0,0,1,.22.83v.35a2.18,2.18,0,0,0,.06.49.65.65,0,0,0,.22.39V5.9H31.62a.63.63,0,0,1-.2-.42,3.51,3.51,0,0,1,0-.55V4.6a.81.81,0,0,0-.21-.6.82.82,0,0,0-.61-.21Zm0-1h.84a.88.88,0,0,0,.59-.18.63.63,0,0,0,.2-.5.73.73,0,0,0-.21-.54.81.81,0,0,0-.59-.21h-.83Z" transform="translate(0.09 -0.33)"/><path class="cls-1" d="M35.55,2.81h0L36.66.41H38L36.18,4V5.9H34.91v-2L33.08.41h1.38Z" transform="translate(0.09 -0.33)"/><path class="cls-1" d="M44.61,1.39H43.16V5.9H41.88V1.39H40.44v-1h4.17Z" transform="translate(0.09 -0.33)"/><path class="cls-1" d="M49.76,3.65a2.3,2.3,0,0,1-.64,1.67A2.25,2.25,0,0,1,47.44,6a2.24,2.24,0,0,1-2.34-2.33v-1A2.29,2.29,0,0,1,45.74,1a2.48,2.48,0,0,1,3.37,0,2.29,2.29,0,0,1,.65,1.67Zm-1.27-1a1.59,1.59,0,0,0-.28-1,1,1,0,0,0-1.57,0,1.6,1.6,0,0,0-.27,1v1a1.6,1.6,0,0,0,.28,1,.93.93,0,0,0,.79.38.91.91,0,0,0,.78-.38,1.61,1.61,0,0,0,.28-1Z" transform="translate(0.09 -0.33)"/><path class="cls-1" d="M55.16.41h1.27V4.18a1.68,1.68,0,0,1-.55,1.32A2,2,0,0,1,54.53,6a2.15,2.15,0,0,1-1.41-.43,1.51,1.51,0,0,1-.5-1.27v0h1.25a.75.75,0,0,0,.18.57.67.67,0,0,0,.48.17A.58.58,0,0,0,55,4.78a.89.89,0,0,0,.19-.61Z" transform="translate(0.09 -0.33)"/><path class="cls-1" d="M60.92,3.55H58.77V4.92h2.54v1H57.49V.41h3.83v1H58.77V2.57h2.16Z" transform="translate(0.09 -0.33)"/><path class="cls-1" d="M65,4.45A.55.55,0,0,0,64.81,4a2.46,2.46,0,0,0-.69-.34A5.32,5.32,0,0,1,62.57,3a1.27,1.27,0,0,1-.5-1.09,1.31,1.31,0,0,1,.6-1.12A2.55,2.55,0,0,1,64.19.33a2.31,2.31,0,0,1,1.5.47A1.43,1.43,0,0,1,66.25,2V2H65a.69.69,0,0,0-.22-.53.87.87,0,0,0-.62-.21,1,1,0,0,0-.6.17.51.51,0,0,0-.22.42.44.44,0,0,0,.22.39,4.43,4.43,0,0,0,.83.36,3.86,3.86,0,0,1,1.41.69,1.4,1.4,0,0,1,.47,1.12,1.32,1.32,0,0,1-.56,1.13,2.49,2.49,0,0,1-1.5.41,2.79,2.79,0,0,1-1.62-.47,1.5,1.5,0,0,1-.66-1.35v0h1.24a.82.82,0,0,0,.26.68,1.24,1.24,0,0,0,.78.2.92.92,0,0,0,.59-.16A.51.51,0,0,0,65,4.45Z" transform="translate(0.09 -0.33)"/><path class="cls-1" d="M71.66.41V4A1.79,1.79,0,0,1,71,5.46a2.87,2.87,0,0,1-3.29,0A1.78,1.78,0,0,1,67.13,4V.41h1.28V4a1,1,0,0,0,.26.75A1,1,0,0,0,69.4,5a1,1,0,0,0,.73-.24A1,1,0,0,0,70.38,4V.41Z" transform="translate(0.09 -0.33)"/><path class="cls-1" d="M75.61,4.45A.55.55,0,0,0,75.42,4a2.46,2.46,0,0,0-.69-.34A5.32,5.32,0,0,1,73.19,3a1.27,1.27,0,0,1-.5-1.09,1.31,1.31,0,0,1,.6-1.12A2.55,2.55,0,0,1,74.8.33,2.31,2.31,0,0,1,76.3.8,1.43,1.43,0,0,1,76.86,2V2H75.62a.69.69,0,0,0-.22-.53.87.87,0,0,0-.62-.21,1,1,0,0,0-.6.17.51.51,0,0,0-.22.42.44.44,0,0,0,.22.39,4.43,4.43,0,0,0,.83.36,3.86,3.86,0,0,1,1.41.69,1.4,1.4,0,0,1,.47,1.12,1.32,1.32,0,0,1-.56,1.13,2.49,2.49,0,0,1-1.5.41,2.79,2.79,0,0,1-1.62-.47,1.5,1.5,0,0,1-.66-1.35v0h1.24a.82.82,0,0,0,.26.68,1.24,1.24,0,0,0,.78.2.92.92,0,0,0,.59-.16A.51.51,0,0,0,75.61,4.45Z" transform="translate(0.09 -0.33)"/></svg>