<svg id="Layer_1" data-name="Layer 1" xmlns="http://www.w3.org/2000/svg" viewBox="0 0 299.8 98.46"><defs><style>.cls-1{fill:#0061af;}.cls-2{fill:#00aeef;}.cls-3{fill:#b82463;}.cls-4{fill:#fff;}.cls-5{fill:#f99f1c;}.cls-6{fill:#a6ce39;}.cls-7{fill:#ffd200;}.cls-8{fill:#00b48f;}.cls-9{fill:#cd2439;}.cls-10{fill:#004f93;}.cls-11{fill:#00a651;}</style></defs><title>logo</title><path class="cls-1" d="M125.85,76V63.21L122,69.84h-4.22L114,63.21V76h-6.59V49.25h6.47l6,11.82,6-11.82h6.47V76Z" transform="translate(-5.31 -1.05)"/><path class="cls-1" d="M140.86,76V49.25h18.22v5.87H147.45V59.6h9.94v5.87h-9.94v4.7h11.63V76Z" transform="translate(-5.31 -1.05)"/><path class="cls-1" d="M186.71,62.65v3a15.3,15.3,0,0,1-.53,4.06,8.88,8.88,0,0,1-5.5,5.66,12.43,12.43,0,0,1-4,.62h-9.94V49.25h9.94a12.43,12.43,0,0,1,4,.62,8.88,8.88,0,0,1,5.5,5.66,15.45,15.45,0,0,1,.53,4.1Zm-6.59,0q0-1.69,0-2.75a15.55,15.55,0,0,0-.13-1.67,4.75,4.75,0,0,0-.23-1,3.86,3.86,0,0,0-.32-.64,3.43,3.43,0,0,0-1.19-1.09,4,4,0,0,0-2-.41h-2.9V70.18h2.9a4,4,0,0,0,2-.41,3.42,3.42,0,0,0,1.19-1.09,2.75,2.75,0,0,0,.32-.6,4.77,4.77,0,0,0,.23-1,16.25,16.25,0,0,0,.13-1.69Q180.12,64.34,180.12,62.65Z" transform="translate(-5.31 -1.05)"/><path class="cls-1" d="M194.27,76V49.25h6.59V76Z" transform="translate(-5.31 -1.05)"/><path class="cls-1" d="M228.75,67.54a11.85,11.85,0,0,1-1.3,3.86,9.5,9.5,0,0,1-2.26,2.73,9,9,0,0,1-3,1.62,11.92,11.92,0,0,1-3.59.53,10.56,10.56,0,0,1-4.18-.77,10.36,10.36,0,0,1-3.27-2.24A7.89,7.89,0,0,1,209.52,71a10.62,10.62,0,0,1-.81-2.58,16.92,16.92,0,0,1-.26-2.8q0-1.45,0-3t0-3a16.93,16.93,0,0,1,.26-2.8,10.63,10.63,0,0,1,.81-2.58A7.91,7.91,0,0,1,211.13,52a10.37,10.37,0,0,1,3.27-2.24,10.57,10.57,0,0,1,4.18-.77,11.92,11.92,0,0,1,3.59.53,9,9,0,0,1,3,1.62,9.5,9.5,0,0,1,2.26,2.73,11.85,11.85,0,0,1,1.3,3.86H222a5,5,0,0,0-1.05-2,3,3,0,0,0-2.37-.87,3.55,3.55,0,0,0-1.56.32,2.84,2.84,0,0,0-1,.81,4.45,4.45,0,0,0-.41.68,4.25,4.25,0,0,0-.32,1.09,16.54,16.54,0,0,0-.21,1.86q-.08,1.15-.08,3t.08,3a16.51,16.51,0,0,0,.21,1.86,4.23,4.23,0,0,0,.32,1.09,4.39,4.39,0,0,0,.41.68,2.83,2.83,0,0,0,1,.81,3.54,3.54,0,0,0,1.56.32,3,3,0,0,0,2.37-.87,4.94,4.94,0,0,0,1.05-2Z" transform="translate(-5.31 -1.05)"/><path class="cls-1" d="M249.83,76l-1.24-4h-8.24L239,76h-6.89l9.75-26.8H247L256.71,76Zm-5.23-16.64-2.41,7.15h4.67Z" transform="translate(-5.31 -1.05)"/><path class="cls-1" d="M262.43,76V49.25H269V70.18h11.25V76Z" transform="translate(-5.31 -1.05)"/><path class="cls-1" d="M305.12,67.84a7.68,7.68,0,0,1-.83,3.61A7.89,7.89,0,0,1,302,74.11a10,10,0,0,1-3.29,1.62,14.27,14.27,0,0,1-4,.55,24.79,24.79,0,0,1-3-.17,14.82,14.82,0,0,1-2.67-.56,11,11,0,0,1-2.39-1.07,10.48,10.48,0,0,1-2.15-1.73l4.22-4.22A5.68,5.68,0,0,0,291.53,70a13.44,13.44,0,0,0,3.27.41q3.84,0,3.84-2.41a2.32,2.32,0,0,0-.53-1.58,3.15,3.15,0,0,0-1.77-.72l-3.24-.45a9.18,9.18,0,0,1-5.38-2.37,7.29,7.29,0,0,1-1.84-5.38,8.33,8.33,0,0,1,.68-3.39,7.7,7.7,0,0,1,1.94-2.67,9.09,9.09,0,0,1,3.07-1.77,12.25,12.25,0,0,1,4.1-.64,16.09,16.09,0,0,1,5.12.73,10,10,0,0,1,3.91,2.47l-4.14,4.14a4.77,4.77,0,0,0-2.05-1.26,7.25,7.25,0,0,0-2-.32h-1.05A4.19,4.19,0,0,0,294,55a3.08,3.08,0,0,0-1,.58,2.31,2.31,0,0,0-.58.79,2.19,2.19,0,0,0-.19.88,1.93,1.93,0,0,0,.11.6,1.64,1.64,0,0,0,.41.64,2.81,2.81,0,0,0,.7.49,3.23,3.23,0,0,0,1.15.3l3.24.45A9.33,9.33,0,0,1,303.12,62a5.85,5.85,0,0,1,1.54,2.5A11.35,11.35,0,0,1,305.12,67.84Z" transform="translate(-5.31 -1.05)"/><path class="cls-1" d="M111.94,25.47v3.1h6.54v3.86h-6.54v6.81H107.6V21.61h12v3.86Z" transform="translate(-5.31 -1.05)"/><path class="cls-1" d="M134.25,39.24l-3.12-6.56h-1.46v6.56h-4.33V21.61h7a6.52,6.52,0,0,1,2.59.48,5.62,5.62,0,0,1,1.88,1.28,5.46,5.46,0,0,1,1.15,1.82,5.78,5.78,0,0,1,.4,2.09,4.92,4.92,0,0,1-.26,1.63,5.39,5.39,0,0,1-.67,1.32,4.8,4.8,0,0,1-.92,1,5.22,5.22,0,0,1-1,.66l3.81,7.35Zm-.25-12a1.78,1.78,0,0,0-1.88-1.78h-2.45V29h2.45A1.78,1.78,0,0,0,134,27.26Z" transform="translate(-5.31 -1.05)"/><path class="cls-1" d="M144.45,39.24V21.61h4.33V39.24Z" transform="translate(-5.31 -1.05)"/><path class="cls-1" d="M155.32,39.24V21.61h12v3.86h-7.65v2.95h6.54v3.86h-6.54v3.1h7.65v3.86Z" transform="translate(-5.31 -1.05)"/><path class="cls-1" d="M183.33,39.24l-5.65-8.86v8.86h-4.33V21.61h3.79l5.65,8.86V21.61h4.33V39.24Z" transform="translate(-5.31 -1.05)"/><path class="cls-1" d="M206.77,30.43v2a10.07,10.07,0,0,1-.35,2.67,5.84,5.84,0,0,1-3.62,3.73,8.17,8.17,0,0,1-2.62.41h-6.54V21.61h6.54a8.17,8.17,0,0,1,2.62.41,5.84,5.84,0,0,1,3.62,3.73,10.17,10.17,0,0,1,.35,2.7Zm-4.33,0q0-1.11,0-1.81a10.26,10.26,0,0,0-.09-1.1,3.13,3.13,0,0,0-.15-.63,2.55,2.55,0,0,0-.21-.42,2.25,2.25,0,0,0-.78-.72,2.65,2.65,0,0,0-1.3-.27H198v9.9h1.91a2.64,2.64,0,0,0,1.3-.27,2.25,2.25,0,0,0,.78-.72,1.81,1.81,0,0,0,.21-.4,3.14,3.14,0,0,0,.15-.64,10.71,10.71,0,0,0,.09-1.11Q202.44,31.54,202.44,30.43Z" transform="translate(-5.31 -1.05)"/><path class="cls-1" d="M224.58,33.84a5,5,0,0,1-.54,2.38A5.19,5.19,0,0,1,222.56,38,6.56,6.56,0,0,1,220.39,39a9.39,9.39,0,0,1-2.62.36,16.3,16.3,0,0,1-1.94-.11,9.75,9.75,0,0,1-1.76-.37,7.27,7.27,0,0,1-1.57-.71,6.89,6.89,0,0,1-1.41-1.14l2.77-2.77a3.74,3.74,0,0,0,1.78,1,8.84,8.84,0,0,0,2.15.27q2.53,0,2.53-1.58a1.52,1.52,0,0,0-.35-1,2.07,2.07,0,0,0-1.16-.47l-2.13-.3a6,6,0,0,1-3.54-1.56A4.8,4.8,0,0,1,211.92,27a5.49,5.49,0,0,1,.45-2.23A5.07,5.07,0,0,1,213.65,23a6,6,0,0,1,2-1.16,8.06,8.06,0,0,1,2.7-.42,10.58,10.58,0,0,1,3.37.48,6.58,6.58,0,0,1,2.58,1.62l-2.72,2.72a3.14,3.14,0,0,0-1.35-.83,4.78,4.78,0,0,0-1.3-.21h-.69a2.76,2.76,0,0,0-1,.15,2,2,0,0,0-.66.38,1.52,1.52,0,0,0-.38.52,1.44,1.44,0,0,0-.12.58,1.28,1.28,0,0,0,.07.4,1.08,1.08,0,0,0,.27.42,1.85,1.85,0,0,0,.46.32,2.13,2.13,0,0,0,.76.2l2.13.3A6.14,6.14,0,0,1,223.27,30a3.85,3.85,0,0,1,1,1.65A7.47,7.47,0,0,1,224.58,33.84Z" transform="translate(-5.31 -1.05)"/><circle class="cls-1" cx="44.75" cy="53.71" r="44.75"/><polygon class="cls-2" points="31.7 52.75 38.14 59.1 38.14 46.25 31.7 52.75"/><polygon class="cls-3" points="51.76 59.47 58.47 52.7 51.76 46.08 51.76 59.47"/><circle class="cls-4" cx="44.75" cy="53.71" r="40.24"/><path class="cls-5" d="M57.07,47H70.48v0L81.62,35.75A37,37,0,0,0,68,22.56l-10.91,11Z" transform="translate(-5.31 -1.05)"/><path class="cls-6" d="M43.45,47V33.7L32.16,22.56A37,37,0,0,0,18.58,35.62L30.08,47Z" transform="translate(-5.31 -1.05)"/><path class="cls-7" d="M43.45,33.54H57.07v0L68,22.56a36.87,36.87,0,0,0-35.82,0L43.45,33.7Z" transform="translate(-5.31 -1.05)"/><path class="cls-2" d="M43.45,74V60.57H30.3L18,73a37,37,0,0,0,13.3,13.53L43.71,74Z" transform="translate(-5.31 -1.05)"/><path class="cls-8" d="M30,60.57V47h0L18.58,35.62A36.88,36.88,0,0,0,18,73L30.3,60.57Z" transform="translate(-5.31 -1.05)"/><path class="cls-9" d="M81.62,35.75,70.48,47V60.35l12,11.86a36.88,36.88,0,0,0-.89-36.47Z" transform="translate(-5.31 -1.05)"/><path class="cls-3" d="M70.48,60.57H57.07v13L69.64,86A37,37,0,0,0,82.51,72.21l-12-11.86Z" transform="translate(-5.31 -1.05)"/><path class="cls-10" d="M57.07,74H43.71L31.32,86.48A36.86,36.86,0,0,0,69.64,86L57.07,73.57Z" transform="translate(-5.31 -1.05)"/><polygon class="cls-4" points="51.76 45.9 51.76 32.49 38.14 32.49 38.14 45.9 24.73 45.9 24.73 59.52 38.14 59.52 38.14 72.94 51.76 72.94 51.76 59.52 65.17 59.52 65.17 45.9 51.76 45.9"/><path class="cls-6" d="M48.07,49.83A2.08,2.08,0,0,1,46,51.91a2.65,2.65,0,0,1-2.49-2.28,2.08,2.08,0,0,1,2.08-2.08A2.65,2.65,0,0,1,48.07,49.83Z" transform="translate(-5.31 -1.05)"/><path class="cls-3" d="M56.86,58a2.08,2.08,0,0,1-2.08,2.08,2.65,2.65,0,0,1-2.49-2.28,2.08,2.08,0,0,1,2.08-2.08A2.65,2.65,0,0,1,56.86,58Z" transform="translate(-5.31 -1.05)"/><path class="cls-5" d="M54.9,52.29a2.08,2.08,0,0,1-2.2-2,2.65,2.65,0,0,1,2.14-2.62,2.08,2.08,0,0,1,2.2,2A2.65,2.65,0,0,1,54.9,52.29Z" transform="translate(-5.31 -1.05)"/><path class="cls-2" d="M45.52,59.94a2.08,2.08,0,0,1-2.2-2,2.65,2.65,0,0,1,2.14-2.62,2.08,2.08,0,0,1,2.2,2A2.65,2.65,0,0,1,45.52,59.94Z" transform="translate(-5.31 -1.05)"/><path class="cls-4" d="M43.45,47A23.66,23.66,0,0,0,30,47" transform="translate(-5.31 -1.05)"/><path class="cls-4" d="M43.45,47a23.66,23.66,0,0,1,.2-13.41" transform="translate(-5.31 -1.05)"/><path class="cls-4" d="M56.81,33.71a23.66,23.66,0,0,1,.31,13.41" transform="translate(-5.31 -1.05)"/><path class="cls-4" d="M57.07,47.12A23.66,23.66,0,0,1,70.49,47" transform="translate(-5.31 -1.05)"/><path class="cls-4" d="M70.39,60.35a24.47,24.47,0,0,1-13.5.22" transform="translate(-5.31 -1.05)"/><path class="cls-4" d="M57,60.61A23.66,23.66,0,0,1,57.09,74" transform="translate(-5.31 -1.05)"/><path class="cls-4" d="M43.83,73.85a23.66,23.66,0,0,1-.31-13.41" transform="translate(-5.31 -1.05)"/><path class="cls-4" d="M30.15,60.55a23.66,23.66,0,0,0,13.41-.11" transform="translate(-5.31 -1.05)"/><path class="cls-1" d="M22.92,5.82a2.35,2.35,0,0,1-.8.58,3.08,3.08,0,0,1-1.32.25A2.24,2.24,0,0,1,19.15,6a2.16,2.16,0,0,1-.63-1.61V3.28a2.2,2.2,0,0,1,.62-1.61A2.13,2.13,0,0,1,20.71,1a2.24,2.24,0,0,1,1.58.49,2,2,0,0,1,.59,1.33v0H21.69a1.13,1.13,0,0,0-.28-.65A.89.89,0,0,0,20.76,2a.85.85,0,0,0-.71.35,1.44,1.44,0,0,0-.27.9V4.42a1.46,1.46,0,0,0,.27.91.88.88,0,0,0,.74.35,2.09,2.09,0,0,0,.55-.06.88.88,0,0,0,.31-.15V4.61h-.86V3.78h2.13Z" transform="translate(-5.31 -1.05)"/><path class="cls-1" d="M25.15,5.6h2.35v1H23.88V1.13h1.27Z" transform="translate(-5.31 -1.05)"/><path class="cls-1" d="M32.63,4.34A2.28,2.28,0,0,1,32,6a2.23,2.23,0,0,1-1.67.65A2.22,2.22,0,0,1,28,4.34v-1a2.27,2.27,0,0,1,.64-1.66A2.46,2.46,0,0,1,32,1.7a2.27,2.27,0,0,1,.64,1.66Zm-1.26-1a1.58,1.58,0,0,0-.28-1,1,1,0,0,0-1.56,0,1.59,1.59,0,0,0-.27,1v1a1.59,1.59,0,0,0,.28,1,.92.92,0,0,0,.79.37.9.9,0,0,0,.77-.37,1.6,1.6,0,0,0,.27-1Z" transform="translate(-5.31 -1.05)"/><path class="cls-1" d="M34.82,4.49V6.57H33.56V1.13h2.1a2.36,2.36,0,0,1,1.5.44,1.44,1.44,0,0,1,.55,1.2,1.19,1.19,0,0,1-.22.73,1.58,1.58,0,0,1-.66.49,1.22,1.22,0,0,1,.72.47,1.47,1.47,0,0,1,.22.83v.34a2.16,2.16,0,0,0,.06.49A.64.64,0,0,0,38,6.5v.07h-1.3a.62.62,0,0,1-.2-.41,3.48,3.48,0,0,1,0-.55V5.29a.81.81,0,0,0-.21-.59.82.82,0,0,0-.6-.21Zm0-1h.83a.87.87,0,0,0,.58-.17.62.62,0,0,0,.2-.5.72.72,0,0,0-.21-.54.8.8,0,0,0-.59-.2h-.83Z" transform="translate(-5.31 -1.05)"/><path class="cls-1" d="M40.64,3.51h0l1.09-2.38h1.37L41.26,4.66V6.57H40v-2L38.19,1.13h1.37Z" transform="translate(-5.31 -1.05)"/><path class="cls-1" d="M49.62,2.1H48.18V6.57H46.92V2.1H45.49v-1h4.13Z" transform="translate(-5.31 -1.05)"/><path class="cls-1" d="M54.73,4.34A2.28,2.28,0,0,1,54.09,6a2.23,2.23,0,0,1-1.67.65A2.22,2.22,0,0,1,50.1,4.34v-1a2.27,2.27,0,0,1,.64-1.66,2.46,2.46,0,0,1,3.34,0,2.27,2.27,0,0,1,.64,1.66Zm-1.26-1a1.58,1.58,0,0,0-.28-1,1,1,0,0,0-1.56,0,1.59,1.59,0,0,0-.27,1v1a1.59,1.59,0,0,0,.28,1,.92.92,0,0,0,.79.37.9.9,0,0,0,.77-.37,1.6,1.6,0,0,0,.27-1Z" transform="translate(-5.31 -1.05)"/><path class="cls-1" d="M60.08,1.13h1.26V4.86a1.66,1.66,0,0,1-.54,1.31,2,2,0,0,1-1.35.48A2.13,2.13,0,0,1,58,6.23,1.5,1.5,0,0,1,57.55,5v0h1.23a.75.75,0,0,0,.18.57.66.66,0,0,0,.47.17.57.57,0,0,0,.45-.21.88.88,0,0,0,.19-.6Z" transform="translate(-5.31 -1.05)"/><path class="cls-1" d="M65.79,4.24H63.66V5.6h2.52v1H62.39V1.13h3.79v1H63.66V3.27h2.14Z" transform="translate(-5.31 -1.05)"/><path class="cls-1" d="M69.83,5.13a.54.54,0,0,0-.19-.45A2.44,2.44,0,0,0,69,4.35a5.27,5.27,0,0,1-1.53-.7,1.26,1.26,0,0,1-.5-1.08,1.3,1.3,0,0,1,.59-1.11A2.53,2.53,0,0,1,69,1a2.29,2.29,0,0,1,1.48.47,1.42,1.42,0,0,1,.56,1.2v0H69.83a.69.69,0,0,0-.22-.53A.87.87,0,0,0,69,2a1,1,0,0,0-.6.17.51.51,0,0,0-.22.42.44.44,0,0,0,.22.38,4.39,4.39,0,0,0,.82.36,3.83,3.83,0,0,1,1.4.68,1.39,1.39,0,0,1,.47,1.11,1.31,1.31,0,0,1-.56,1.12,2.47,2.47,0,0,1-1.48.41,2.76,2.76,0,0,1-1.61-.47,1.49,1.49,0,0,1-.66-1.34v0H68a.81.81,0,0,0,.25.67,1.23,1.23,0,0,0,.77.2.91.91,0,0,0,.59-.16A.51.51,0,0,0,69.83,5.13Z" transform="translate(-5.31 -1.05)"/><path class="cls-1" d="M76.44,1.13V4.7a1.77,1.77,0,0,1-.62,1.44,2.84,2.84,0,0,1-3.26,0,1.77,1.77,0,0,1-.62-1.44V1.13h1.27V4.7a1,1,0,0,0,.26.74,1,1,0,0,0,.73.24,1,1,0,0,0,.72-.24,1,1,0,0,0,.25-.74V1.13Z" transform="translate(-5.31 -1.05)"/><path class="cls-1" d="M80.35,5.13a.54.54,0,0,0-.19-.45,2.44,2.44,0,0,0-.68-.33,5.27,5.27,0,0,1-1.53-.7,1.26,1.26,0,0,1-.5-1.08A1.3,1.3,0,0,1,78,1.47,2.53,2.53,0,0,1,79.55,1,2.29,2.29,0,0,1,81,1.51a1.42,1.42,0,0,1,.56,1.2v0H80.36a.69.69,0,0,0-.22-.53.87.87,0,0,0-.61-.2,1,1,0,0,0-.6.17.51.51,0,0,0-.22.42.44.44,0,0,0,.22.38,4.39,4.39,0,0,0,.82.36,3.83,3.83,0,0,1,1.4.68,1.39,1.39,0,0,1,.47,1.11,1.31,1.31,0,0,1-.56,1.12,2.47,2.47,0,0,1-1.48.41A2.76,2.76,0,0,1,78,6.19a1.49,1.49,0,0,1-.66-1.34v0h1.23a.81.81,0,0,0,.25.67,1.23,1.23,0,0,0,.77.2.91.91,0,0,0,.59-.16A.51.51,0,0,0,80.35,5.13Z" transform="translate(-5.31 -1.05)"/><path class="cls-11" d="M114,86.34a3.3,3.3,0,0,1-1.13.81,4.32,4.32,0,0,1-1.86.35,3.14,3.14,0,0,1-2.3-.87,3,3,0,0,1-.88-2.26v-1.6a3.08,3.08,0,0,1,.86-2.26,3,3,0,0,1,2.22-.88,3.15,3.15,0,0,1,2.21.68,2.75,2.75,0,0,1,.83,1.86v0h-1.66a1.59,1.59,0,0,0-.39-.91A1.25,1.25,0,0,0,111,81a1.2,1.2,0,0,0-1,.49,2,2,0,0,0-.38,1.27v1.61a2.05,2.05,0,0,0,.37,1.28,1.24,1.24,0,0,0,1,.49,2.94,2.94,0,0,0,.77-.08,1.24,1.24,0,0,0,.44-.21V84.64H111V83.47h3Z" transform="translate(-5.31 -1.05)"/><path class="cls-11" d="M115.27,84.5a3,3,0,0,1,.72-2.09,2.94,2.94,0,0,1,4,0,3,3,0,0,1,.72,2.09v.11A3,3,0,0,1,120,86.7a2.95,2.95,0,0,1-4,0,3,3,0,0,1-.72-2.09Zm1.77.11a2.35,2.35,0,0,0,.22,1.12.79.79,0,0,0,.76.41.78.78,0,0,0,.74-.41,2.33,2.33,0,0,0,.23-1.12V84.5a2.33,2.33,0,0,0-.23-1.11A.79.79,0,0,0,118,83a.78.78,0,0,0-.75.42A2.36,2.36,0,0,0,117,84.5Z" transform="translate(-5.31 -1.05)"/><path class="cls-11" d="M124.13,85.05l.1.6h0l.12-.61.75-3.34H127l-1.85,5.68h-1.8l-1.85-5.68h1.87Z" transform="translate(-5.31 -1.05)"/><path class="cls-11" d="M130.16,80.3v1.41h1v1.23h-1v2.6a.64.64,0,0,0,.12.44.43.43,0,0,0,.33.13h.27l.25,0,.13,1.31-.53.1a4.63,4.63,0,0,1-.56,0,1.76,1.76,0,0,1-1.33-.47,2.07,2.07,0,0,1-.45-1.48V82.94h-.8V81.71h.8V80.3Z" transform="translate(-5.31 -1.05)"/><path class="cls-11" d="M139.86,85.91h-2.41L137,87.39h-1.78l2.47-7.64h1.9l2.47,7.64H140.3Zm-2-1.36h1.62l-.8-2.73h0Z" transform="translate(-5.31 -1.05)"/><path class="cls-11" d="M148.07,84.67a3.35,3.35,0,0,1-.58,2.05,1.91,1.91,0,0,1-1.63.77,1.55,1.55,0,0,1-1.28-.61v2.69h-1.77V81.71h1.66l.06.62a1.77,1.77,0,0,1,.57-.54,1.48,1.48,0,0,1,.76-.19,1.89,1.89,0,0,1,1.63.81,3.61,3.61,0,0,1,.58,2.14Zm-1.77-.11a2.68,2.68,0,0,0-.21-1.15.7.7,0,0,0-.67-.44,1.07,1.07,0,0,0-.51.11.81.81,0,0,0-.33.32v2.37a.76.76,0,0,0,.33.27,1.3,1.3,0,0,0,.51.09.7.7,0,0,0,.67-.39,2.36,2.36,0,0,0,.2-1.08Z" transform="translate(-5.31 -1.05)"/><path class="cls-11" d="M154.65,84.67a3.35,3.35,0,0,1-.58,2.05,1.91,1.91,0,0,1-1.63.77,1.55,1.55,0,0,1-1.28-.61v2.69h-1.77V81.71H151l.06.62a1.76,1.76,0,0,1,.57-.54,1.48,1.48,0,0,1,.76-.19,1.89,1.89,0,0,1,1.63.81,3.61,3.61,0,0,1,.58,2.14Zm-1.77-.11a2.68,2.68,0,0,0-.21-1.15A.7.7,0,0,0,152,83a1.07,1.07,0,0,0-.51.11.81.81,0,0,0-.33.32v2.37a.76.76,0,0,0,.33.27,1.3,1.3,0,0,0,.51.09.7.7,0,0,0,.67-.39,2.36,2.36,0,0,0,.2-1.08Z" transform="translate(-5.31 -1.05)"/><path class="cls-11" d="M159.17,83.28h-.65a1.07,1.07,0,0,0-.5.1.65.65,0,0,0-.29.29v3.73H156V81.71h1.67l.06.83a1.71,1.71,0,0,1,.47-.69,1,1,0,0,1,.69-.25l.26,0,.23,0Z" transform="translate(-5.31 -1.05)"/><path class="cls-11" d="M160.13,84.5a3,3,0,0,1,.72-2.09,2.94,2.94,0,0,1,4,0,3,3,0,0,1,.72,2.09v.11a3,3,0,0,1-.72,2.09,2.95,2.95,0,0,1-4,0,3,3,0,0,1-.72-2.09Zm1.77.11a2.35,2.35,0,0,0,.22,1.12.79.79,0,0,0,.76.41.78.78,0,0,0,.75-.41,2.33,2.33,0,0,0,.23-1.12V84.5a2.33,2.33,0,0,0-.23-1.11.79.79,0,0,0-.76-.42.78.78,0,0,0-.75.42,2.36,2.36,0,0,0-.22,1.11Z" transform="translate(-5.31 -1.05)"/><path class="cls-11" d="M169,85.05l.1.6h0l.12-.61.75-3.34h1.86L170,87.39h-1.8l-1.85-5.68h1.87Z" transform="translate(-5.31 -1.05)"/><path class="cls-11" d="M175.45,87.5a2.63,2.63,0,0,1-2-.79,2.75,2.75,0,0,1-.75-2v-.2a3.21,3.21,0,0,1,.68-2.12,2.72,2.72,0,0,1,3.75-.12,2.62,2.62,0,0,1,.66,1.88v.93h-3.24v0a1.16,1.16,0,0,0,.36.72,1.12,1.12,0,0,0,.8.28,3.31,3.31,0,0,0,.81-.08,5.91,5.91,0,0,0,.76-.27l.42,1.08a3.22,3.22,0,0,1-1,.45A4.3,4.3,0,0,1,175.45,87.5ZM175.33,83a.66.66,0,0,0-.57.27,1.5,1.5,0,0,0-.23.73l0,0h1.53v-.14a1.06,1.06,0,0,0-.18-.66A.66.66,0,0,0,175.33,83Z" transform="translate(-5.31 -1.05)"/><path class="cls-11" d="M178.85,84.56a3.61,3.61,0,0,1,.58-2.14,1.89,1.89,0,0,1,1.63-.81,1.41,1.41,0,0,1,.71.18,1.88,1.88,0,0,1,.57.52v-3.1h1.77v8.18h-1.54l-.13-.7a1.92,1.92,0,0,1-.61.6,1.52,1.52,0,0,1-.79.21,1.91,1.91,0,0,1-1.63-.78,3.36,3.36,0,0,1-.58-2.05Zm1.77.11a2.36,2.36,0,0,0,.2,1.08.71.71,0,0,0,.68.39A1.12,1.12,0,0,0,182,86a.88.88,0,0,0,.35-.3V83.44a1,1,0,0,0-.35-.35,1,1,0,0,0-.48-.12.71.71,0,0,0-.68.44,2.68,2.68,0,0,0-.21,1.15Z" transform="translate(-5.31 -1.05)"/><path class="cls-11" d="M194.92,84.71v0a2.87,2.87,0,0,1-.79,2.05,3,3,0,0,1-2.15.71,3.15,3.15,0,0,1-2.3-.87,3,3,0,0,1-.89-2.26v-1.6a3.1,3.1,0,0,1,.85-2.26,3,3,0,0,1,2.22-.87,3.09,3.09,0,0,1,2.21.73,3.05,3.05,0,0,1,.87,2.07v0H193.2a1.88,1.88,0,0,0-.33-1.11,1.24,1.24,0,0,0-1-.36,1.1,1.1,0,0,0-.95.49,2.14,2.14,0,0,0-.35,1.27v1.61a2,2,0,0,0,.38,1.28,1.24,1.24,0,0,0,1,.49,1.09,1.09,0,0,0,.91-.34,1.92,1.92,0,0,0,.3-1.09Z" transform="translate(-5.31 -1.05)"/><path class="cls-11" d="M198,82.42a1.88,1.88,0,0,1,.63-.6,1.61,1.61,0,0,1,.82-.21,1.69,1.69,0,0,1,1.39.61,3,3,0,0,1,.5,1.9v3.26h-1.77V84.12a1.5,1.5,0,0,0-.2-.9.72.72,0,0,0-.6-.25,1.19,1.19,0,0,0-.45.08.86.86,0,0,0-.31.21v4.13h-1.77V79.21H198Z" transform="translate(-5.31 -1.05)"/><path class="cls-11" d="M205.48,87.5a2.63,2.63,0,0,1-2-.79,2.75,2.75,0,0,1-.75-2v-.2a3.21,3.21,0,0,1,.68-2.12,2.72,2.72,0,0,1,3.75-.12,2.62,2.62,0,0,1,.66,1.88v.93h-3.24v0a1.16,1.16,0,0,0,.36.72,1.12,1.12,0,0,0,.8.28,3.31,3.31,0,0,0,.81-.08,5.9,5.9,0,0,0,.76-.27l.42,1.08a3.23,3.23,0,0,1-1,.45A4.3,4.3,0,0,1,205.48,87.5ZM205.36,83a.66.66,0,0,0-.57.27,1.49,1.49,0,0,0-.23.73l0,0h1.53v-.14a1.06,1.06,0,0,0-.18-.66A.66.66,0,0,0,205.36,83Z" transform="translate(-5.31 -1.05)"/><path class="cls-11" d="M210.78,81.71l.06.75a1.88,1.88,0,0,1,.67-.63,1.91,1.91,0,0,1,.93-.22,1.74,1.74,0,0,1,.91.23,1.42,1.42,0,0,1,.58.7,1.9,1.9,0,0,1,.67-.69,1.85,1.85,0,0,1,1-.24,1.61,1.61,0,0,1,1.3.57,2.7,2.7,0,0,1,.47,1.76v3.46h-1.78V83.93a1.22,1.22,0,0,0-.17-.76.63.63,0,0,0-.51-.2,1.06,1.06,0,0,0-.45.09,1,1,0,0,0-.33.25c0,.06,0,.11,0,.15s0,.09,0,.13v3.79h-1.77V83.93a1.24,1.24,0,0,0-.17-.76.63.63,0,0,0-.52-.2,1,1,0,0,0-.44.09,1,1,0,0,0-.33.25v4.07h-1.77V81.71Z" transform="translate(-5.31 -1.05)"/><path class="cls-11" d="M220.76,80.4H219V79.21h1.78Zm0,7H219V81.71h1.78Z" transform="translate(-5.31 -1.05)"/><path class="cls-11" d="M225.34,85.8a.46.46,0,0,0-.24-.38,2.57,2.57,0,0,0-.87-.3,3.41,3.41,0,0,1-1.5-.6,1.36,1.36,0,0,1-.5-1.12,1.6,1.6,0,0,1,.63-1.27,2.59,2.59,0,0,1,1.71-.52,2.93,2.93,0,0,1,1.8.51,1.49,1.49,0,0,1,.64,1.31v0h-1.72a.7.7,0,0,0-.17-.51.74.74,0,0,0-.55-.17.72.72,0,0,0-.47.15.48.48,0,0,0-.19.39.46.46,0,0,0,.22.38A2.47,2.47,0,0,0,225,84a3.54,3.54,0,0,1,1.54.61,1.4,1.4,0,0,1,.5,1.15,1.5,1.5,0,0,1-.68,1.26,3,3,0,0,1-1.8.5,2.7,2.7,0,0,1-1.83-.59,1.62,1.62,0,0,1-.64-1.31v0h1.61a.71.71,0,0,0,.24.58,1.07,1.07,0,0,0,.66.18.88.88,0,0,0,.54-.14A.47.47,0,0,0,225.34,85.8Z" transform="translate(-5.31 -1.05)"/><path class="cls-11" d="M230.52,80.3v1.41h1v1.23h-1v2.6a.63.63,0,0,0,.12.44.43.43,0,0,0,.33.13h.27l.25,0,.13,1.31-.53.1a4.63,4.63,0,0,1-.56,0A1.76,1.76,0,0,1,229.2,87a2.07,2.07,0,0,1-.45-1.48V82.94H228V81.71h.8V80.3Z" transform="translate(-5.31 -1.05)"/><path class="cls-11" d="M235.81,85.8a.46.46,0,0,0-.24-.38,2.57,2.57,0,0,0-.87-.3,3.41,3.41,0,0,1-1.5-.6,1.36,1.36,0,0,1-.5-1.12,1.6,1.6,0,0,1,.63-1.27,2.59,2.59,0,0,1,1.71-.52,2.93,2.93,0,0,1,1.81.51,1.49,1.49,0,0,1,.64,1.31v0h-1.72a.7.7,0,0,0-.17-.51.74.74,0,0,0-.55-.17.72.72,0,0,0-.47.15.48.48,0,0,0-.19.39.46.46,0,0,0,.22.38,2.47,2.47,0,0,0,.88.28,3.54,3.54,0,0,1,1.54.61,1.4,1.4,0,0,1,.5,1.15,1.5,1.5,0,0,1-.68,1.26,3,3,0,0,1-1.8.5,2.7,2.7,0,0,1-1.83-.59,1.62,1.62,0,0,1-.64-1.31v0h1.61a.71.71,0,0,0,.24.58,1.07,1.07,0,0,0,.66.18.88.88,0,0,0,.54-.14A.47.47,0,0,0,235.81,85.8Z" transform="translate(-5.31 -1.05)"/><path class="cls-11" d="M243.25,83.37a4.61,4.61,0,0,1-.5-.87,2,2,0,0,1-.17-.8,2,2,0,0,1,.59-1.49,2.16,2.16,0,0,1,1.57-.57,1.81,1.81,0,0,1,1.88,1.84,2,2,0,0,1-.24,1,2.16,2.16,0,0,1-.65.73l-.46.32L246.56,85a2.51,2.51,0,0,0,.28-.65,2.7,2.7,0,0,0,.1-.74h1.25a5.29,5.29,0,0,1-.17,1.36,3.18,3.18,0,0,1-.53,1.1l1.15,1.33v0H246.7l-.39-.44a3.73,3.73,0,0,1-.91.42,3.53,3.53,0,0,1-1,.13,2.65,2.65,0,0,1-1.82-.6,2,2,0,0,1-.68-1.56,1.67,1.67,0,0,1,.32-1,4.88,4.88,0,0,1,1-.93Zm1.28,2.77a2.25,2.25,0,0,0,.45,0,2.14,2.14,0,0,0,.45-.15L244,84.36l0,0a1.26,1.26,0,0,0-.23.4,1.36,1.36,0,0,0-.07.43.92.92,0,0,0,.24.66A.79.79,0,0,0,244.53,86.14Zm-.41-4.45a1,1,0,0,0,.1.42,2.43,2.43,0,0,0,.3.46l.31-.2a1.16,1.16,0,0,0,.39-.37.79.79,0,0,0,.1-.39.62.62,0,0,0-.16-.41.53.53,0,0,0-.42-.18.57.57,0,0,0-.46.19A.72.72,0,0,0,244.11,81.68Z" transform="translate(-5.31 -1.05)"/><path class="cls-11" d="M253.18,87.39V79.75h2.76a3.12,3.12,0,0,1,2.26.88,3,3,0,0,1,.91,2.25v1.37a3,3,0,0,1-.91,2.26,3.12,3.12,0,0,1-2.26.88ZM255,81.12V86h.86a1.35,1.35,0,0,0,1.11-.49,2,2,0,0,0,.4-1.28V82.87a1.94,1.94,0,0,0-.4-1.27,1.36,1.36,0,0,0-1.11-.48Z" transform="translate(-5.31 -1.05)"/><path class="cls-11" d="M263.85,83.28h-.65a1.07,1.07,0,0,0-.5.1.65.65,0,0,0-.29.29v3.73h-1.77V81.71h1.67l.06.83a1.72,1.72,0,0,1,.47-.69,1,1,0,0,1,.69-.25l.26,0,.23,0Z" transform="translate(-5.31 -1.05)"/><path class="cls-11" d="M268.56,86.72a1.86,1.86,0,0,1-.67.58,1.94,1.94,0,0,1-.89.2,1.75,1.75,0,0,1-1.38-.57,2.6,2.6,0,0,1-.5-1.76V81.71h1.77v3.47a1.16,1.16,0,0,0,.18.71.61.61,0,0,0,.52.24,1.45,1.45,0,0,0,.5-.08,1,1,0,0,0,.37-.24V81.71h1.77v5.68h-1.55Z" transform="translate(-5.31 -1.05)"/><path class="cls-11" d="M271.49,84.56a3.62,3.62,0,0,1,.58-2.14,1.88,1.88,0,0,1,1.63-.81,1.47,1.47,0,0,1,.79.21,1.86,1.86,0,0,1,.59.61l.12-.71h1.55v5.46A2.31,2.31,0,0,1,276,89a3.07,3.07,0,0,1-2.1.69,3.82,3.82,0,0,1-.92-.12,5,5,0,0,1-.92-.33l.29-1.31a4.37,4.37,0,0,0,.74.25,3.59,3.59,0,0,0,.8.08,1.12,1.12,0,0,0,.83-.29,1.1,1.1,0,0,0,.29-.8v-.29a1.65,1.65,0,0,1-.56.47,1.61,1.61,0,0,1-.73.16,1.9,1.9,0,0,1-1.62-.78,3.37,3.37,0,0,1-.57-2.05Zm1.77.11a2.35,2.35,0,0,0,.2,1.08.71.71,0,0,0,.68.39,1.25,1.25,0,0,0,.5-.09.83.83,0,0,0,.34-.27V83.39a.92.92,0,0,0-.34-.31,1,1,0,0,0-.49-.11.71.71,0,0,0-.68.44,2.68,2.68,0,0,0-.21,1.15Z" transform="translate(-5.31 -1.05)"/><path class="cls-11" d="M278.07,84.56a3.62,3.62,0,0,1,.58-2.14,1.88,1.88,0,0,1,1.63-.81,1.47,1.47,0,0,1,.79.21,1.86,1.86,0,0,1,.59.61l.12-.71h1.55v5.46a2.31,2.31,0,0,1-.78,1.83,3.07,3.07,0,0,1-2.1.69,3.82,3.82,0,0,1-.92-.12,5,5,0,0,1-.92-.33l.29-1.31a4.39,4.39,0,0,0,.74.25,3.59,3.59,0,0,0,.8.08,1.12,1.12,0,0,0,.83-.29,1.1,1.1,0,0,0,.29-.8v-.29a1.64,1.64,0,0,1-.56.47,1.61,1.61,0,0,1-.73.16,1.9,1.9,0,0,1-1.62-.78,3.37,3.37,0,0,1-.57-2.05Zm1.77.11a2.36,2.36,0,0,0,.2,1.08.71.71,0,0,0,.68.39,1.25,1.25,0,0,0,.5-.09.83.83,0,0,0,.34-.27V83.39a.91.91,0,0,0-.34-.31,1,1,0,0,0-.49-.11.71.71,0,0,0-.68.44,2.68,2.68,0,0,0-.21,1.15Z" transform="translate(-5.31 -1.05)"/><path class="cls-11" d="M286.74,80.4H285V79.21h1.78Zm0,7H285V81.71h1.78Z" transform="translate(-5.31 -1.05)"/><path class="cls-11" d="M291.32,85.8a.46.46,0,0,0-.24-.38,2.57,2.57,0,0,0-.87-.3,3.41,3.41,0,0,1-1.5-.6,1.36,1.36,0,0,1-.5-1.12,1.6,1.6,0,0,1,.63-1.27,2.59,2.59,0,0,1,1.71-.52,2.93,2.93,0,0,1,1.8.51,1.49,1.49,0,0,1,.64,1.31v0h-1.72a.69.69,0,0,0-.17-.51.74.74,0,0,0-.55-.17.72.72,0,0,0-.47.15.48.48,0,0,0-.19.39.46.46,0,0,0,.22.38A2.47,2.47,0,0,0,291,84a3.54,3.54,0,0,1,1.54.61,1.4,1.4,0,0,1,.5,1.15,1.5,1.5,0,0,1-.68,1.26,3,3,0,0,1-1.8.5,2.7,2.7,0,0,1-1.83-.59,1.62,1.62,0,0,1-.64-1.31v0h1.61a.71.71,0,0,0,.24.58,1.07,1.07,0,0,0,.66.18.89.89,0,0,0,.54-.14A.47.47,0,0,0,291.32,85.8Z" transform="translate(-5.31 -1.05)"/><path class="cls-11" d="M296.5,80.3v1.41h1v1.23h-1v2.6a.64.64,0,0,0,.12.44.43.43,0,0,0,.33.13h.26l.25,0,.13,1.31-.53.1a4.63,4.63,0,0,1-.56,0,1.76,1.76,0,0,1-1.33-.47,2.07,2.07,0,0,1-.45-1.48V82.94h-.8V81.71h.8V80.3Z" transform="translate(-5.31 -1.05)"/><path class="cls-11" d="M301.79,85.8a.46.46,0,0,0-.24-.38,2.58,2.58,0,0,0-.87-.3,3.41,3.41,0,0,1-1.5-.6,1.36,1.36,0,0,1-.5-1.12,1.6,1.6,0,0,1,.63-1.27,2.59,2.59,0,0,1,1.71-.52,2.93,2.93,0,0,1,1.8.51,1.49,1.49,0,0,1,.64,1.31v0h-1.72a.7.7,0,0,0-.17-.51.74.74,0,0,0-.55-.17.72.72,0,0,0-.47.15.48.48,0,0,0-.19.39.46.46,0,0,0,.22.38,2.46,2.46,0,0,0,.88.28,3.55,3.55,0,0,1,1.54.61,1.4,1.4,0,0,1,.5,1.15,1.5,1.5,0,0,1-.68,1.26,3,3,0,0,1-1.8.5,2.69,2.69,0,0,1-1.83-.59,1.62,1.62,0,0,1-.64-1.31v0h1.61a.71.71,0,0,0,.24.58,1.07,1.07,0,0,0,.66.18.89.89,0,0,0,.54-.14A.47.47,0,0,0,301.79,85.8Z" transform="translate(-5.31 -1.05)"/></svg>