<svg width="20" height="21" viewBox="0 0 20 21" fill="none" xmlns="http://www.w3.org/2000/svg">
<path d="M19.9154 9.19566H11.3044H11.3044V0.584648C10.8774 0.529063 10.4421 0.5 10 0.5C9.55785 0.5 9.12262 0.529063 8.69566 0.584648V9.19559V9.19563H0.0846484C0.0290625 9.62262 0 10.0579 0 10.5C0 10.9421 0.0290625 11.3774 0.0846484 11.8043H8.69559H8.69563V20.4154C9.12262 20.4709 9.55785 20.5 10 20.5C10.4421 20.5 10.8774 20.471 11.3043 20.4154V11.8044V11.8044H19.9154C19.9709 11.3774 20 10.9421 20 10.5C20 10.0579 19.9709 9.62262 19.9154 9.19566Z" fill="#D80027"/>
<path d="M12.6087 13.1088L17.071 17.5711C17.2763 17.366 17.4721 17.1515 17.6589 16.9292L13.8385 13.1088H12.6087V13.1088Z" fill="#D80027"/>
<path d="M7.39128 13.1088H7.3912L2.92889 17.5711C3.13405 17.7763 3.34854 17.9721 3.57089 18.1589L7.39128 14.3384V13.1088Z" fill="#D80027"/>
<path d="M7.39128 7.89142V7.89134L2.92894 3.42896C2.7237 3.63411 2.52792 3.8486 2.34113 4.07095L6.16155 7.89138H7.39128V7.89142Z" fill="#D80027"/>
<path d="M12.6087 7.89138L17.0711 3.42896C16.8659 3.22373 16.6514 3.02794 16.4291 2.84119L12.6087 6.66162V7.89138Z" fill="#D80027"/>
</svg>
