<svg width="25" height="24" viewBox="0 0 25 24" fill="none" xmlns="http://www.w3.org/2000/svg">
<path d="M9.10791 22H15.1079C20.1079 22 22.1079 20 22.1079 15V9C22.1079 4 20.1079 2 15.1079 2H9.10791C4.10791 2 2.10791 4 2.10791 9V15C2.10791 20 4.10791 22 9.10791 22Z" stroke="#6B7280" stroke-width="1.5" stroke-linecap="round" stroke-linejoin="round"/>
<path d="M15.678 18.5V14.6" stroke="#6B7280" stroke-width="1.5" stroke-miterlimit="10" stroke-linecap="round" stroke-linejoin="round"/>
<path d="M15.678 7.45V5.5" stroke="#6B7280" stroke-width="1.5" stroke-miterlimit="10" stroke-linecap="round" stroke-linejoin="round"/>
<path d="M15.6779 12.65C17.1138 12.65 18.2779 11.4859 18.2779 10.05C18.2779 8.61406 17.1138 7.45 15.6779 7.45C14.2419 7.45 13.0779 8.61406 13.0779 10.05C13.0779 11.4859 14.2419 12.65 15.6779 12.65Z" stroke="#6B7280" stroke-width="1.5" stroke-miterlimit="10" stroke-linecap="round" stroke-linejoin="round"/>
<path d="M8.53784 18.5V16.55" stroke="#6B7280" stroke-width="1.5" stroke-miterlimit="10" stroke-linecap="round" stroke-linejoin="round"/>
<path d="M8.53784 9.4V5.5" stroke="#6B7280" stroke-width="1.5" stroke-miterlimit="10" stroke-linecap="round" stroke-linejoin="round"/>
<path d="M8.53799 16.55C9.97393 16.55 11.138 15.3859 11.138 13.95C11.138 12.5141 9.97393 11.35 8.53799 11.35C7.10205 11.35 5.93799 12.5141 5.93799 13.95C5.93799 15.3859 7.10205 16.55 8.53799 16.55Z" stroke="#6B7280" stroke-width="1.5" stroke-miterlimit="10" stroke-linecap="round" stroke-linejoin="round"/>
</svg>
