<svg width="25" height="24" viewBox="0 0 25 24" fill="none" xmlns="http://www.w3.org/2000/svg">
<path d="M12.1079 15C13.7648 15 15.1079 13.6569 15.1079 12C15.1079 10.3431 13.7648 9 12.1079 9C10.4511 9 9.10791 10.3431 9.10791 12C9.10791 13.6569 10.4511 15 12.1079 15Z" stroke="#6B7280" stroke-width="1.5" stroke-miterlimit="10" stroke-linecap="round" stroke-linejoin="round"/>
<path d="M2.10791 12.88V11.12C2.10791 10.08 2.95791 9.22 4.00791 9.22C5.81791 9.22 6.55791 7.94 5.64791 6.37C5.12791 5.47 5.43791 4.3 6.34791 3.78L8.07791 2.79C8.86791 2.32 9.88791 2.6 10.3579 3.39L10.4679 3.58C11.3679 5.15 12.8479 5.15 13.7579 3.58L13.8679 3.39C14.3379 2.6 15.3579 2.32 16.1479 2.79L17.8779 3.78C18.7879 4.3 19.0979 5.47 18.5779 6.37C17.6679 7.94 18.4079 9.22 20.2179 9.22C21.2579 9.22 22.1179 10.07 22.1179 11.12V12.88C22.1179 13.92 21.2679 14.78 20.2179 14.78C18.4079 14.78 17.6679 16.06 18.5779 17.63C19.0979 18.54 18.7879 19.7 17.8779 20.22L16.1479 21.21C15.3579 21.68 14.3379 21.4 13.8679 20.61L13.7579 20.42C12.8579 18.85 11.3779 18.85 10.4679 20.42L10.3579 20.61C9.88791 21.4 8.86791 21.68 8.07791 21.21L6.34791 20.22C5.43791 19.7 5.12791 18.53 5.64791 17.63C6.55791 16.06 5.81791 14.78 4.00791 14.78C2.95791 14.78 2.10791 13.92 2.10791 12.88Z" stroke="#6B7280" stroke-width="1.5" stroke-miterlimit="10" stroke-linecap="round" stroke-linejoin="round"/>
</svg>
