<svg width="28" height="28" viewBox="0 0 28 28" fill="none" xmlns="http://www.w3.org/2000/svg">
<path d="M26.5835 19.7076C26.4107 19.0641 26.0515 18.5026 25.5524 18.0809C26.1211 15.9012 26.0547 13.6263 25.3514 11.4542C24.5606 9.01193 23.0388 6.93411 20.9505 5.44541C20.4932 5.11939 19.8576 5.22507 19.531 5.68149C19.2043 6.13786 19.3103 6.77212 19.7676 7.09808C21.4981 8.33166 22.7592 10.054 23.4148 12.0787C23.9707 13.7954 24.047 15.5888 23.6452 17.3165C22.458 17.247 21.2742 17.8316 20.6401 18.9262C20.2067 19.6742 20.0914 20.5458 20.3154 21.3804C20.5397 22.2155 21.0768 22.9133 21.8279 23.3454C23.3704 24.2329 25.3609 23.7117 26.2589 22.1618C26.6923 21.4138 26.8076 20.5422 26.5835 19.7076ZM24.4971 21.1452C24.1636 21.7206 23.4222 21.9184 22.8443 21.5859C22.5646 21.425 22.3647 21.1653 22.2812 20.8547C22.198 20.5447 22.2409 20.2209 22.4019 19.9429C22.9368 19.0197 24.3387 19.1943 24.6178 20.2334C24.701 20.5434 24.6581 20.8672 24.4971 21.1452ZM3.0423 15.0484C3.07602 15.0516 3.10944 15.0533 3.1426 15.0533C3.65996 15.0533 4.10267 14.6611 4.15411 14.1366C4.36094 12.0268 5.22712 10.0774 6.65899 8.49929C7.87378 7.16049 9.39519 6.19743 11.0989 5.68022C11.6324 6.73977 12.732 7.46904 14 7.46904C15.789 7.46904 17.2443 6.01807 17.2443 4.23458C17.2443 2.45109 15.789 1.00012 14 1.00012C12.4115 1.00012 11.0869 2.14448 10.8098 3.64948C8.63088 4.24819 6.68672 5.44297 5.15044 7.13607C3.42321 9.0396 2.37834 11.3919 2.12865 13.9388C2.07391 14.497 2.483 14.9938 3.0423 15.0484ZM14 3.03117C14.6667 3.03117 15.2092 3.57102 15.2092 4.23463C15.2092 4.89824 14.6667 5.43805 14 5.43805C13.3329 5.43805 12.7907 4.89794 12.7907 4.23458C12.7907 3.57097 13.3332 3.03117 14 3.03117ZM18.0793 24.0883C16.1415 24.9651 14.0135 25.1923 11.9254 24.7456C10.1558 24.367 8.55923 23.5366 7.25852 22.3266C7.44803 22.0399 7.59281 21.7219 7.68452 21.3804C7.90862 20.5459 7.79329 19.6743 7.35988 18.9262C6.46542 17.3825 4.47769 16.8514 2.92886 17.7425C2.1778 18.1746 1.64064 18.8725 1.41644 19.7076C1.19239 20.5422 1.30767 21.4138 1.74114 22.1619C2.53703 23.5355 4.19438 24.1046 5.6392 23.5909C7.24902 25.1719 9.2594 26.2523 11.4988 26.7315C13.9679 27.2597 16.5373 27.016 18.9197 25.9381C19.4315 25.7065 19.6584 25.1047 19.4263 24.5938C19.1942 24.0831 18.5911 23.8568 18.0793 24.0883ZM5.71868 20.8547C5.44329 21.8803 4.043 22.0774 3.50289 21.1452C3.34181 20.8672 3.29895 20.5434 3.38218 20.2334C3.46556 19.9227 3.66554 19.6631 3.94524 19.5022C4.52273 19.1699 5.26429 19.367 5.59797 19.9428C5.75905 20.2209 5.80196 20.5447 5.71868 20.8547Z" fill="#111827"/>
</svg>
