<svg width="1324" height="221" viewBox="0 0 1324 221" fill="none" xmlns="http://www.w3.org/2000/svg">
<g clip-path="url(#clip0_91_73505)">
<rect y="0.5" width="1324" height="220" rx="12" fill="#CAFCD0"/>
<path d="M80.7917 35.9984C82.4578 31.7936 80.3999 27.0343 76.1951 25.3681C71.9903 23.7019 67.2309 25.7599 65.5647 29.9647C63.8986 34.1695 65.9565 38.9288 70.1613 40.595C74.3661 42.2612 79.1255 40.2032 80.7917 35.9984Z" fill="#B3F8BC"/>
<path d="M35.7477 15.0754C38.9549 11.8682 38.9549 6.63712 35.7477 3.39883C34.7513 2.40243 34.1909 1.43717 33.9418 0.53418H17.2832C17.5946 5.85869 19.961 10.9652 24.0712 15.0754C27.3095 18.2825 32.5094 18.2825 35.7477 15.0754Z" fill="#B3F8BC"/>
<path d="M47.3276 17.9059C48.6354 19.8364 50.13 21.6423 52.2162 23.6974C55.4234 26.9046 60.6545 26.9046 63.8928 23.6974C67.0999 20.4903 67.0999 15.2592 63.8928 12.0209C62.585 10.7131 61.7443 9.71669 61.0281 8.68916C60.9658 8.62688 60.9658 8.56461 60.9658 8.56461C60.8724 8.09755 61.2149 6.44726 61.464 5.35745C61.7131 4.20536 61.9934 2.86645 62.1802 1.40299C62.2113 1.09161 62.2425 0.811375 62.2736 0.5H45.6151C45.5217 0.935925 45.4282 1.40299 45.3348 1.87005C44.463 5.82451 43.2175 11.7406 47.3276 17.9059Z" fill="#B3F8BC"/>
<path d="M1.74332 106.831C6.16485 105.866 8.93608 101.475 7.97082 97.0851C7.13011 93.2552 3.76726 90.6708 0.0307617 90.6396V107.018C0.591236 107.018 1.15171 106.956 1.74332 106.831Z" fill="#B3F8BC"/>
<path d="M22.2934 93.666C23.8191 92.6384 24.9712 91.9845 26.1233 91.4863C26.2167 91.4552 26.2478 91.4552 26.2478 91.4241C26.7149 91.4241 28.2718 92.078 29.2993 92.5139C30.3891 92.9809 31.6346 93.5103 33.0358 93.9773C39.3256 96.0636 46.2381 95.036 51.9674 91.2061C52.2165 91.0504 52.4345 90.8636 52.6524 90.6768C57.8213 86.9403 61.0907 81.678 61.8691 75.7619C62.5853 70.344 61.2152 64.7392 57.9769 59.9752C54.7698 55.2112 50.068 51.8483 44.7747 50.5094C38.7651 48.9837 32.3819 50.198 26.8083 53.9657C23.0407 56.519 22.0443 61.6566 24.5976 65.4243C27.1508 69.1919 32.2885 70.1883 36.0562 67.635C40.5088 64.6147 43.3112 67.7596 44.3076 69.223C45.2417 70.5931 45.6776 72.1811 45.4908 73.5823C45.304 75.0769 44.401 76.3535 42.7196 77.4745C42.6262 77.5368 42.5327 77.599 42.4393 77.6613C41.5052 78.2218 39.9172 78.8445 38.1424 78.2841C37.3951 78.035 36.5855 77.6924 35.7136 77.3188C32.0394 75.7619 26.4658 73.3955 19.6467 76.2913C17.4982 77.1942 15.4431 78.3463 13.0144 79.9966C9.24679 82.5499 8.25039 87.6876 10.8037 91.4552C13.3881 95.254 18.5258 96.2504 22.2934 93.666Z" fill="#B3F8BC"/>
<path d="M232.95 137.323C237.286 136.035 239.756 131.476 238.467 127.14C237.179 122.805 232.62 120.334 228.284 121.623C223.949 122.911 221.479 127.471 222.767 131.806C224.056 136.142 228.615 138.612 232.95 137.323Z" fill="#B3F8BC"/>
<path d="M221.576 88.9626C226.09 89.492 230.201 86.2848 230.761 81.7387C231.384 76.4142 235.587 76.3208 237.362 76.5388C239.012 76.7256 240.507 77.4418 241.441 78.5004C242.438 79.6214 242.811 81.1471 242.562 83.1399C242.562 83.2645 242.531 83.3579 242.531 83.4824C242.344 84.5723 241.784 86.1914 240.196 87.1255C239.542 87.5303 238.732 87.9351 237.86 88.3399C234.248 90.1147 228.831 92.7614 226.558 99.7985C225.841 102.04 225.374 104.313 225.001 107.209C224.471 111.724 227.678 115.834 232.225 116.395C236.739 116.924 240.85 113.717 241.41 109.171C241.628 107.334 241.877 106.057 242.282 104.874C242.313 104.78 242.344 104.749 242.344 104.749C242.656 104.376 244.15 103.628 245.147 103.161C246.205 102.632 247.42 102.04 248.696 101.293C254.394 97.8991 258.162 92.0141 259.003 85.1639C259.034 84.8836 259.065 84.5723 259.065 84.292C259.626 77.94 257.788 72.0238 253.834 67.5712C250.222 63.4922 245.084 60.8455 239.386 60.1605C233.688 59.4754 228.083 60.8144 223.599 63.9281C218.493 67.4778 215.255 73.1137 214.445 79.7771C213.822 84.3232 217.029 88.4333 221.576 88.9626Z" fill="#B3F8BC"/>
<path d="M81.2466 122.98C81.821 118.494 78.6499 114.391 74.1638 113.817C69.6777 113.242 65.5753 116.414 65.001 120.9C64.4266 125.386 67.5976 129.488 72.0838 130.062C76.5699 130.637 80.6722 127.466 81.2466 122.98Z" fill="#B3F8BC"/>
<path d="M77.253 134.421C72.9249 135.854 70.5896 140.524 71.9908 144.853C72.5824 146.596 72.8938 147.873 73.0495 149.118C73.0495 149.212 73.0495 149.243 73.0495 149.243C72.9249 149.71 71.8662 151.018 71.1812 151.89C70.4339 152.824 69.5932 153.882 68.7525 155.097C65.0471 160.608 64.1441 167.521 66.2615 174.091C66.3549 174.371 66.4483 174.651 66.5729 174.9C68.7525 180.879 72.9249 185.456 78.4051 187.822C83.4182 190.002 89.1787 190.189 94.6277 188.383C100.077 186.577 104.592 182.996 107.332 178.263C110.446 172.876 111.006 166.4 108.889 160.048C107.456 155.72 102.786 153.384 98.4576 154.785C94.1295 156.218 91.7942 160.888 93.1954 165.216C94.8768 170.292 91.1092 172.16 89.4278 172.721C87.8398 173.25 86.1895 173.219 84.9128 172.658C83.5428 172.067 82.5464 170.852 81.9236 168.922C81.8925 168.828 81.8614 168.704 81.7991 168.61C81.5189 167.552 81.332 165.839 82.3596 164.313C82.7955 163.66 83.356 162.975 83.9476 162.227C86.4697 159.113 90.2373 154.381 89.3344 147.032C89.0541 144.697 88.4937 142.424 87.5907 139.653C86.2518 135.324 81.5811 132.989 77.253 134.421Z" fill="#B3F8BC"/>
<path d="M294.15 117.265C295.744 113.032 293.604 108.308 289.372 106.715C285.139 105.121 280.415 107.26 278.821 111.493C277.228 115.726 279.367 120.449 283.6 122.043C287.833 123.637 292.556 121.498 294.15 117.265Z" fill="#B3F8BC"/>
<path d="M290.576 126.856C286.248 128.288 283.913 132.959 285.314 137.287C285.906 139.031 286.217 140.307 286.373 141.553C286.373 141.646 286.373 141.677 286.373 141.677C286.248 142.145 285.189 143.452 284.504 144.324C283.757 145.258 282.916 146.317 282.076 147.531C278.37 153.043 277.467 159.955 279.585 166.525C279.678 166.805 279.772 167.086 279.896 167.335C282.076 173.313 286.248 177.89 291.728 180.257C296.741 182.436 302.502 182.623 307.951 180.817C313.4 179.011 317.915 175.431 320.655 170.698C323.769 165.311 324.329 158.834 322.212 152.482C320.78 148.154 316.109 145.819 311.781 147.22C307.453 148.652 305.117 153.323 306.519 157.651C308.2 162.726 304.432 164.595 302.751 165.155C301.163 165.684 299.513 165.653 298.236 165.093C296.866 164.501 295.87 163.287 295.247 161.356C295.216 161.263 295.185 161.138 295.122 161.045C294.842 159.986 294.655 158.274 295.683 156.748C296.119 156.094 296.679 155.409 297.271 154.662C299.793 151.548 303.561 146.815 302.658 139.467C302.377 137.131 301.817 134.858 300.914 132.087C299.575 127.759 294.904 125.424 290.576 126.856Z" fill="#B3F8BC"/>
<path d="M341.392 228.116C340.769 228.583 340.022 229.081 339.243 229.611C335.912 231.821 330.836 235.153 329.497 242.439C329.062 244.743 328.875 247.079 328.906 250.006C328.937 254.552 332.673 258.226 337.22 258.195C341.766 258.164 345.44 254.427 345.409 249.881C345.378 248.044 345.471 246.736 345.72 245.491C345.751 245.397 345.751 245.366 345.751 245.366C346 244.961 347.401 244.027 348.336 243.436C349.332 242.782 350.453 242.035 351.605 241.132C356.805 237.021 359.794 230.7 359.763 223.819C359.763 223.539 359.732 223.227 359.701 222.947C359.452 216.564 356.867 210.928 352.383 207.005C348.273 203.424 342.824 201.462 337.095 201.494C331.366 201.556 325.948 203.58 321.9 207.254C317.292 211.426 314.769 217.405 314.832 224.13C314.863 228.677 318.599 232.351 323.145 232.32C327.691 232.288 331.366 228.552 331.335 224.006C331.272 218.65 335.445 218.028 337.22 218.028C338.901 218.028 340.458 218.526 341.516 219.46C342.637 220.456 343.198 221.92 343.229 223.913C343.229 224.037 343.229 224.13 343.229 224.255C343.198 225.283 342.855 226.964 341.392 228.116Z" fill="#B3F8BC"/>
<path d="M317.049 82.3468C318.126 77.9543 315.438 73.5205 311.046 72.4436C306.653 71.3667 302.22 74.0546 301.143 78.4471C300.066 82.8396 302.754 87.2734 307.146 88.3502C311.539 89.4271 315.972 86.7393 317.049 82.3468Z" fill="#B3F8BC"/>
<path d="M314.303 39.2345C318.382 41.2895 323.333 39.6393 325.388 35.5602C327.786 30.7651 331.772 32.104 333.36 32.9136C334.854 33.6609 336.006 34.8441 336.536 36.1519C337.096 37.553 336.909 39.1099 336.006 40.8848C335.944 40.9782 335.913 41.1027 335.851 41.1961C335.29 42.1303 334.231 43.4692 332.425 43.8428C331.647 43.9985 330.775 44.0919 329.81 44.1853C325.824 44.6213 319.815 45.2751 315.269 51.129C313.836 52.9661 312.622 54.9589 311.283 57.6056C309.228 61.6846 310.878 66.6354 314.957 68.6905C319.036 70.7456 323.987 69.0953 326.042 65.0163C326.883 63.366 327.537 62.2451 328.315 61.2487C328.378 61.1864 328.409 61.1553 328.409 61.1553C328.814 60.9062 330.495 60.7193 331.585 60.5948C332.768 60.4702 334.107 60.3145 335.57 60.0343C342.078 58.7577 347.621 54.4918 350.734 48.3578C350.859 48.1087 350.983 47.8284 351.077 47.5793C353.755 41.7877 354.035 35.5914 351.824 30.0489C349.8 24.9735 345.877 20.7699 340.739 18.1855C335.601 15.6011 329.872 14.9784 324.579 16.3796C318.569 17.9987 313.618 22.1711 310.598 28.1807C308.605 32.2285 310.224 37.1794 314.303 39.2345Z" fill="#B3F8BC"/>
<path d="M215.69 41.1184C219.663 38.9557 221.129 33.9822 218.967 30.0098C216.804 26.0375 211.83 24.5706 207.858 26.7334C203.886 28.8961 202.419 33.8696 204.582 37.842C206.744 41.8143 211.718 43.2812 215.69 41.1184Z" fill="#B3F8BC"/>
<path d="M162.91 55.3637C163.19 55.3949 163.471 55.426 163.782 55.426C170.695 55.5817 177.047 52.7482 181.25 47.6105C182.184 46.4584 182.963 45.3686 183.617 44.3722C184.239 43.4381 185.205 42.068 185.609 41.8189C185.609 41.8189 185.641 41.8189 185.734 41.7878C186.98 41.5698 188.287 41.5076 190.124 41.5698C194.67 41.6944 198.469 38.1136 198.594 33.5675C198.718 29.0214 195.138 25.2227 190.591 25.0981C187.665 25.0047 185.329 25.1604 183.025 25.534C175.708 26.7484 172.283 31.7304 170.01 35.031C169.48 35.8094 168.951 36.5567 168.453 37.1483C167.269 38.5806 165.588 38.892 164.498 38.9232C164.374 38.9232 164.28 38.9232 164.156 38.892C162.132 38.8297 160.699 38.2381 159.734 37.086C158.831 36.0274 158.333 34.4394 158.395 32.7579C158.458 30.9831 159.143 26.8418 164.498 26.9975C169.044 27.1221 172.843 23.5412 172.968 18.9952C173.092 14.4491 169.511 10.6503 164.965 10.5258C158.271 10.339 152.23 12.7365 147.964 17.2515C144.228 21.2371 142.048 26.5927 141.892 32.322C141.737 38.0513 143.574 43.5315 147.092 47.7039C150.953 52.2811 156.558 54.9901 162.91 55.3637Z" fill="#B3F8BC"/>
<path d="M218.584 208.87C217.588 202.238 214.163 196.727 208.963 193.333C204.385 190.344 198.718 189.191 193.051 190.032C187.384 190.904 182.309 193.675 178.822 197.879C174.992 202.456 173.341 208.434 174.089 214.755C174.089 215.036 174.12 215.316 174.182 215.627C175.241 222.446 179.195 228.207 184.987 231.445C186.263 232.161 187.509 232.722 188.599 233.22C189.626 233.687 191.152 234.372 191.463 234.714C191.463 234.714 191.494 234.746 191.526 234.839C191.962 236.022 192.242 237.299 192.522 239.136C193.207 243.651 197.411 246.733 201.926 246.048C206.44 245.363 209.523 241.16 208.838 236.645C208.402 233.749 207.842 231.476 207.063 229.265C204.572 222.291 199.061 219.8 195.418 218.149C194.546 217.745 193.736 217.402 193.051 216.997C191.432 216.094 190.841 214.506 190.591 213.416C190.591 213.292 190.56 213.198 190.56 213.074C190.249 211.081 190.591 209.555 191.526 208.403C192.429 207.313 193.892 206.566 195.542 206.317C197.317 206.037 201.49 206.006 202.299 211.299C202.984 215.814 207.188 218.897 211.703 218.212C216.155 217.589 219.269 213.385 218.584 208.87Z" fill="#B3F8BC"/>
<path d="M74.2315 258.098C74.5118 258.129 74.792 258.16 75.1034 258.16C82.0159 258.316 88.368 255.483 92.5715 250.345C93.5056 249.193 94.2841 248.103 94.938 247.107C95.5607 246.172 96.526 244.802 96.9308 244.553C96.9308 244.553 96.9619 244.553 97.0553 244.522C98.3008 244.304 99.6086 244.242 101.446 244.304C105.992 244.429 109.791 240.848 109.915 236.302C110.04 231.756 106.459 227.957 101.913 227.832C98.9858 227.739 96.6505 227.895 94.3463 228.268C87.029 229.483 83.6039 234.465 81.3309 237.765C80.8015 238.544 80.2722 239.291 79.774 239.883C78.5908 241.315 76.9094 241.626 75.8195 241.658C75.695 241.658 75.6016 241.658 75.477 241.626C73.4531 241.564 72.0208 240.973 71.0555 239.82C70.1525 238.762 69.6543 237.174 69.7166 235.492C69.7789 233.717 70.4639 229.576 75.8195 229.732C80.3656 229.856 84.1644 226.276 84.2889 221.73C84.4135 217.183 80.8327 213.385 76.2866 213.26C69.592 213.073 63.5514 215.471 59.2855 219.986C55.549 223.971 53.3694 229.327 53.2137 235.056C53.058 240.786 54.8952 246.266 58.4137 250.438C62.3059 255.015 67.8795 257.693 74.2315 258.098Z" fill="#B3F8BC"/>
<path d="M104.434 3.05632C108.077 5.79641 113.246 5.08025 115.986 1.4683L116.703 0.53418H102.224C102.753 1.49944 103.5 2.37129 104.434 3.05632Z" fill="#B3F8BC"/>
<path d="M282.641 52.6062C285.246 49.0361 284.464 44.0299 280.894 41.4246C277.324 38.8192 272.318 39.6013 269.712 43.1715C267.107 46.7416 267.889 51.7478 271.459 54.3531C275.03 56.9585 280.036 56.1763 282.641 52.6062Z" fill="#B3F8BC"/>
<path d="M269.526 36.5914C273.449 34.2872 274.757 29.2118 272.453 25.2885L257.881 0.53418H238.731L258.254 33.6645C260.558 37.5878 265.603 38.8956 269.526 36.5914Z" fill="#B3F8BC"/>
<path d="M98.1756 103.939C101.912 106.306 106.863 105.185 109.229 101.417C111.596 97.6496 110.475 92.7299 106.707 90.3634C102.971 87.997 98.0199 89.1179 95.6534 92.8855C93.287 96.6532 94.4079 101.604 98.1756 103.939Z" fill="#B3F8BC"/>
<path d="M104.841 84.2617C109.324 85.1024 113.621 82.1443 114.462 77.6605L121.842 38.1471C122.682 33.6633 119.724 29.3663 115.241 28.5256C110.757 27.6849 106.46 30.6429 105.619 35.1267L98.2395 74.6402C97.3988 79.124 100.357 83.4521 104.841 84.2617Z" fill="#B3F8BC"/>
<path d="M176.015 158.153C179.345 155.248 179.689 150.193 176.784 146.863C173.878 143.533 168.823 143.188 165.493 146.094C162.163 148.999 161.819 154.054 164.724 157.384C167.63 160.714 172.684 161.059 176.015 158.153Z" fill="#B3F8BC"/>
<path d="M161.883 161.791C158.52 158.708 153.32 158.926 150.237 162.289L123.054 191.932C119.972 195.295 120.19 200.495 123.553 203.577C126.915 206.66 132.115 206.442 135.198 203.079L162.381 173.436C165.464 170.104 165.246 164.873 161.883 161.791Z" fill="#B3F8BC"/>
<path d="M135.458 121.996C139.807 121.215 142.7 117.055 141.918 112.705C141.136 108.355 136.976 105.463 132.626 106.245C128.277 107.026 125.384 111.186 126.166 115.536C126.948 119.886 131.108 122.778 135.458 121.996Z" fill="#B3F8BC"/>
<path d="M193.271 95.2824L153.695 102.288C149.211 103.067 146.222 107.364 147.001 111.848C147.779 116.331 152.076 119.321 156.56 118.542L196.136 111.536C200.619 110.758 203.609 106.461 202.83 101.977C202.021 97.4932 197.755 94.504 193.271 95.2824Z" fill="#B3F8BC"/>
<path d="M38.8384 196.123C40.7154 192.122 38.9932 187.356 34.9917 185.479C30.9902 183.602 26.2248 185.325 24.3478 189.326C22.4708 193.327 24.1931 198.093 28.1945 199.97C32.196 201.847 36.9615 200.125 38.8384 196.123Z" fill="#B3F8BC"/>
<path d="M29.6438 179.727C34.1587 179.042 37.2725 174.869 36.5875 170.354L30.6713 130.592C29.9863 126.077 25.8139 122.963 21.299 123.648C16.8152 124.302 13.7014 128.506 14.3553 133.021L20.2714 172.783C20.9564 177.298 25.16 180.381 29.6438 179.727Z" fill="#B3F8BC"/>
<path d="M439.538 90.8303C435.116 91.7955 432.345 96.1859 433.31 100.576C434.151 104.406 437.576 107.022 441.375 106.991V90.6123C440.752 90.6434 440.13 90.7057 439.538 90.8303Z" fill="#B3F8BC"/>
<path d="M378.063 146.61C382.557 146.099 385.786 142.042 385.275 137.548C384.763 133.054 380.706 129.825 376.212 130.336C371.719 130.847 368.49 134.905 369.001 139.398C369.512 143.892 373.569 147.121 378.063 146.61Z" fill="#B3F8BC"/>
<path d="M425.836 158.273C421.196 153.166 414.72 150.551 408.119 151.049C406.655 151.174 405.316 151.392 404.133 151.578C403.043 151.765 401.362 152.014 400.926 151.89C400.926 151.89 400.895 151.859 400.801 151.827C399.805 151.08 398.84 150.177 397.594 148.807C394.543 145.413 389.312 145.164 385.949 148.215C382.555 151.267 382.306 156.498 385.357 159.861C387.319 162.041 389.031 163.629 390.9 165.03C396.847 169.482 402.794 168.486 406.749 167.863C407.683 167.708 408.586 167.552 409.364 167.521C411.201 167.365 412.602 168.361 413.381 169.14C413.443 169.233 413.537 169.327 413.599 169.389C414.938 170.884 415.529 172.347 415.374 173.811C415.218 175.212 414.408 176.644 413.194 177.765C411.855 178.948 408.399 181.315 404.818 177.329C401.767 173.935 396.535 173.686 393.173 176.737C389.779 179.789 389.53 185.02 392.581 188.383C397.096 193.365 402.981 196.074 409.208 196.012C414.689 195.98 420.044 193.832 424.279 189.971C428.545 186.11 431.223 181.003 431.814 175.585C432.468 169.669 430.538 163.753 426.427 158.896C426.209 158.709 426.023 158.491 425.836 158.273Z" fill="#B3F8BC"/>
<path d="M242.031 212.981C242.436 217.527 246.453 220.859 250.999 220.454C255.545 220.049 258.876 216.033 258.472 211.487L254.86 171.444C254.455 166.898 250.438 163.566 245.892 163.971C241.346 164.376 238.014 168.392 238.419 172.938L242.031 212.981Z" fill="#B3F8BC"/>
<path d="M429.003 25.0125C431.561 21.4088 430.714 16.4133 427.11 13.8548C423.506 11.2963 418.511 12.1437 415.952 15.7474C413.394 19.3511 414.241 24.3465 417.845 26.905C421.449 29.4635 426.444 28.6162 429.003 25.0125Z" fill="#B3F8BC"/>
<path d="M376.048 61.6856L409.365 39.1732C413.133 36.6199 414.129 31.4823 411.576 27.7146C409.023 23.947 403.885 22.9506 400.118 25.5039L366.801 48.0163C363.033 50.5695 362.037 55.7072 364.59 59.4748C367.143 63.2425 372.281 64.2389 376.048 61.6856Z" fill="#B3F8BC"/>
<path d="M346.106 116.575C349.231 113.45 349.231 108.384 346.106 105.259C342.981 102.133 337.914 102.133 334.789 105.259C331.664 108.384 331.664 113.45 334.789 116.575C337.914 119.701 342.981 119.701 346.106 116.575Z" fill="#B3F8BC"/>
<path d="M352.539 105.806C354.314 110.01 359.171 111.972 363.344 110.197L400.366 94.5345C404.57 92.7597 406.532 87.9022 404.757 83.7298C402.982 79.5263 398.124 77.5646 393.952 79.3394L356.93 95.0016C352.726 96.7764 350.764 101.603 352.539 105.806Z" fill="#B3F8BC"/>
<path d="M360.759 2.05992C361.226 1.59285 361.631 1.09465 361.973 0.53418H348.335C348.646 1.03238 348.989 1.49944 349.425 1.90423C352.539 5.08025 357.614 5.14253 360.759 2.05992Z" fill="#B3F8BC"/>
<path d="M522.104 35.9984C523.77 31.7936 521.712 27.0343 517.507 25.3681C513.302 23.7019 508.543 25.7599 506.877 29.9647C505.211 34.1695 507.269 38.9288 511.473 40.595C515.678 42.2612 520.437 40.2032 522.104 35.9984Z" fill="#B3F8BC"/>
<path d="M477.06 15.0754C480.267 11.8682 480.267 6.63712 477.06 3.39883C476.064 2.40243 475.503 1.43717 475.254 0.53418H458.596C458.907 5.85869 461.274 10.9652 465.384 15.0754C468.622 18.2825 473.822 18.2825 477.06 15.0754Z" fill="#B3F8BC"/>
<path d="M488.64 17.9059C489.948 19.8364 491.443 21.6423 493.529 23.6974C496.736 26.9046 501.967 26.9046 505.205 23.6974C508.412 20.4903 508.412 15.2592 505.205 12.0209C503.897 10.7131 503.057 9.71669 502.341 8.68916C502.278 8.62688 502.278 8.56461 502.278 8.56461C502.185 8.09755 502.527 6.44726 502.777 5.35745C503.026 4.20536 503.306 2.86645 503.493 1.40299C503.524 1.09161 503.555 0.811375 503.586 0.5H486.928C486.834 0.935925 486.741 1.40299 486.647 1.87005C485.775 5.82451 484.53 11.7406 488.64 17.9059Z" fill="#B3F8BC"/>
<path d="M443.056 106.831C447.477 105.866 450.249 101.475 449.283 97.0851C448.443 93.2552 445.08 90.6708 441.343 90.6396V107.018C441.904 107.018 442.464 106.956 443.056 106.831Z" fill="#B3F8BC"/>
<path d="M463.605 93.666C465.131 92.6384 466.283 91.9845 467.435 91.4863C467.529 91.4552 467.56 91.4552 467.56 91.4241C468.027 91.4241 469.584 92.078 470.611 92.5139C471.701 92.9809 472.947 93.5103 474.348 93.9773C480.638 96.0636 487.55 95.036 493.279 91.2061C493.529 91.0504 493.746 90.8636 493.964 90.6768C499.133 86.9403 502.403 81.678 503.181 75.7619C503.897 70.344 502.527 64.7392 499.289 59.9752C496.082 55.2112 491.38 51.8483 486.087 50.5094C480.077 48.9837 473.694 50.198 468.12 53.9657C464.353 56.519 463.356 61.6566 465.91 65.4243C468.463 69.1919 473.601 70.1883 477.368 67.635C481.821 64.6147 484.623 67.7596 485.62 69.223C486.554 70.5931 486.99 72.1811 486.803 73.5823C486.616 75.0769 485.713 76.3535 484.032 77.4745C483.938 77.5368 483.845 77.599 483.751 77.6613C482.817 78.2218 481.229 78.8445 479.454 78.2841C478.707 78.035 477.898 77.6924 477.026 77.3188C473.351 75.7619 467.778 73.3955 460.959 76.2913C458.81 77.1942 456.755 78.3463 454.326 79.9966C450.559 82.5499 449.562 87.6876 452.116 91.4552C454.7 95.254 459.838 96.2504 463.605 93.666Z" fill="#B3F8BC"/>
<path d="M674.262 137.323C678.598 136.035 681.068 131.476 679.779 127.14C678.491 122.805 673.932 120.334 669.596 121.623C665.261 122.911 662.791 127.471 664.079 131.806C665.368 136.142 669.927 138.612 674.262 137.323Z" fill="#B3F8BC"/>
<path d="M662.888 88.9626C667.403 89.492 671.513 86.2848 672.074 81.7387C672.696 76.4142 676.9 76.3208 678.675 76.5388C680.325 76.7256 681.82 77.4418 682.754 78.5004C683.75 79.6214 684.124 81.1471 683.875 83.1399C683.875 83.2645 683.844 83.3579 683.844 83.4824C683.657 84.5723 683.096 86.1914 681.508 87.1255C680.854 87.5303 680.045 87.9351 679.173 88.3399C675.561 90.1147 670.143 92.7614 667.87 99.7985C667.154 102.04 666.687 104.313 666.313 107.209C665.784 111.724 668.991 115.834 673.537 116.395C678.052 116.924 682.162 113.717 682.723 109.171C682.941 107.334 683.19 106.057 683.594 104.874C683.626 104.78 683.657 104.749 683.657 104.749C683.968 104.376 685.463 103.628 686.459 103.161C687.518 102.632 688.732 102.04 690.009 101.293C695.707 97.8991 699.475 92.0141 700.315 85.1639C700.346 84.8836 700.378 84.5723 700.378 84.292C700.938 77.94 699.101 72.0238 695.146 67.5712C691.534 63.4922 686.397 60.8455 680.699 60.1605C675 59.4754 669.396 60.8144 664.912 63.9281C659.805 67.4778 656.567 73.1137 655.758 79.7771C655.135 84.3232 658.342 88.4333 662.888 88.9626Z" fill="#B3F8BC"/>
<path d="M522.559 122.98C523.133 118.494 519.962 114.391 515.476 113.817C510.99 113.242 506.887 116.414 506.313 120.9C505.739 125.386 508.91 129.488 513.396 130.062C517.882 130.637 521.984 127.466 522.559 122.98Z" fill="#B3F8BC"/>
<path d="M518.565 134.421C514.237 135.854 511.902 140.524 513.303 144.853C513.894 146.596 514.206 147.873 514.361 149.118C514.361 149.212 514.361 149.243 514.361 149.243C514.237 149.71 513.178 151.018 512.493 151.89C511.746 152.824 510.905 153.882 510.064 155.097C506.359 160.608 505.456 167.521 507.573 174.091C507.667 174.371 507.76 174.651 507.885 174.9C510.064 180.879 514.237 185.456 519.717 187.822C524.73 190.002 530.491 190.189 535.94 188.383C541.389 186.577 545.904 182.996 548.644 178.263C551.758 172.876 552.318 166.4 550.201 160.048C548.768 155.72 544.098 153.384 539.77 154.785C535.442 156.218 533.106 160.888 534.507 165.216C536.189 170.292 532.421 172.16 530.74 172.721C529.152 173.25 527.501 173.219 526.225 172.658C524.855 172.067 523.858 170.852 523.236 168.922C523.205 168.828 523.173 168.704 523.111 168.61C522.831 167.552 522.644 165.839 523.672 164.313C524.107 163.66 524.668 162.975 525.26 162.227C527.782 159.113 531.549 154.381 530.646 147.032C530.366 144.697 529.806 142.424 528.903 139.653C527.564 135.324 522.893 132.989 518.565 134.421Z" fill="#B3F8BC"/>
<path d="M735.462 117.265C737.056 113.032 734.917 108.308 730.684 106.715C726.451 105.121 721.728 107.26 720.134 111.493C718.54 115.726 720.679 120.449 724.912 122.043C729.145 123.637 733.869 121.498 735.462 117.265Z" fill="#B3F8BC"/>
<path d="M731.888 126.856C727.56 128.288 725.225 132.959 726.626 137.287C727.218 139.031 727.529 140.307 727.685 141.553C727.685 141.646 727.685 141.677 727.685 141.677C727.56 142.145 726.501 143.452 725.816 144.324C725.069 145.258 724.228 146.317 723.388 147.531C719.682 153.043 718.779 159.955 720.897 166.525C720.99 166.805 721.084 167.086 721.208 167.335C723.388 173.313 727.56 177.89 733.04 180.257C738.053 182.436 743.814 182.623 749.263 180.817C754.712 179.011 759.227 175.431 761.967 170.698C765.081 165.311 765.641 158.834 763.524 152.482C762.092 148.154 757.421 145.819 753.093 147.22C748.765 148.652 746.429 153.323 747.831 157.651C749.512 162.726 745.744 164.595 744.063 165.155C742.475 165.684 740.825 165.653 739.548 165.093C738.178 164.501 737.182 163.287 736.559 161.356C736.528 161.263 736.497 161.138 736.434 161.045C736.154 159.986 735.967 158.274 736.995 156.748C737.431 156.094 737.991 155.409 738.583 154.662C741.105 151.548 744.873 146.815 743.97 139.467C743.689 137.131 743.129 134.858 742.226 132.087C740.887 127.759 736.216 125.424 731.888 126.856Z" fill="#B3F8BC"/>
<path d="M782.704 228.116C782.081 228.583 781.334 229.081 780.555 229.611C777.224 231.821 772.148 235.153 770.809 242.439C770.374 244.743 770.187 247.079 770.218 250.006C770.249 254.552 773.985 258.226 778.532 258.195C783.078 258.164 786.752 254.427 786.721 249.881C786.69 248.044 786.783 246.736 787.032 245.491C787.063 245.397 787.063 245.366 787.063 245.366C787.312 244.961 788.713 244.027 789.648 243.436C790.644 242.782 791.765 242.035 792.917 241.132C798.117 237.021 801.106 230.7 801.075 223.819C801.075 223.539 801.044 223.227 801.013 222.947C800.764 216.564 798.179 210.928 793.695 207.005C789.585 203.424 784.136 201.462 778.407 201.494C772.678 201.556 767.26 203.58 763.212 207.254C758.604 211.426 756.081 217.405 756.144 224.13C756.175 228.677 759.911 232.351 764.457 232.32C769.003 232.288 772.678 228.552 772.647 224.006C772.584 218.65 776.757 218.028 778.532 218.028C780.213 218.028 781.77 218.526 782.829 219.46C783.949 220.456 784.51 221.92 784.541 223.913C784.541 224.037 784.541 224.13 784.541 224.255C784.51 225.283 784.167 226.964 782.704 228.116Z" fill="#B3F8BC"/>
<path d="M758.361 82.3468C759.438 77.9543 756.75 73.5205 752.358 72.4436C747.965 71.3667 743.532 74.0546 742.455 78.4471C741.378 82.8396 744.066 87.2734 748.458 88.3502C752.851 89.4271 757.284 86.7393 758.361 82.3468Z" fill="#B3F8BC"/>
<path d="M755.615 39.2345C759.694 41.2895 764.645 39.6393 766.7 35.5602C769.098 30.7651 773.084 32.104 774.672 32.9136C776.166 33.6609 777.318 34.8441 777.848 36.1519C778.408 37.553 778.221 39.1099 777.318 40.8848C777.256 40.9782 777.225 41.1027 777.163 41.1961C776.602 42.1303 775.543 43.4692 773.737 43.8428C772.959 43.9985 772.087 44.0919 771.122 44.1853C767.136 44.6213 761.127 45.2751 756.581 51.129C755.148 52.9661 753.934 54.9589 752.595 57.6056C750.54 61.6846 752.19 66.6354 756.269 68.6905C760.348 70.7456 765.299 69.0953 767.354 65.0163C768.195 63.366 768.849 62.2451 769.627 61.2487C769.69 61.1864 769.721 61.1553 769.721 61.1553C770.126 60.9062 771.807 60.7193 772.897 60.5948C774.08 60.4702 775.419 60.3145 776.882 60.0343C783.39 58.7577 788.933 54.4918 792.046 48.3578C792.171 48.1087 792.295 47.8284 792.389 47.5793C795.067 41.7877 795.347 35.5914 793.136 30.0489C791.112 24.9735 787.189 20.7699 782.051 18.1855C776.913 15.6011 771.184 14.9784 765.891 16.3796C759.881 17.9987 754.93 22.1711 751.91 28.1807C749.917 32.2285 751.536 37.1794 755.615 39.2345Z" fill="#B3F8BC"/>
<path d="M657.002 41.1184C660.975 38.9557 662.441 33.9822 660.279 30.0098C658.116 26.0375 653.142 24.5706 649.17 26.7334C645.198 28.8961 643.731 33.8696 645.894 37.842C648.056 41.8143 653.03 43.2812 657.002 41.1184Z" fill="#B3F8BC"/>
<path d="M604.222 55.3637C604.502 55.3949 604.783 55.426 605.094 55.426C612.007 55.5817 618.359 52.7482 622.562 47.6105C623.496 46.4584 624.275 45.3686 624.929 44.3722C625.551 43.4381 626.517 42.068 626.921 41.8189C626.921 41.8189 626.953 41.8189 627.046 41.7878C628.292 41.5698 629.599 41.5076 631.436 41.5698C635.982 41.6944 639.781 38.1136 639.906 33.5675C640.03 29.0214 636.45 25.2227 631.903 25.0981C628.977 25.0047 626.641 25.1604 624.337 25.534C617.02 26.7484 613.595 31.7304 611.322 35.031C610.792 35.8094 610.263 36.5567 609.765 37.1483C608.582 38.5806 606.9 38.892 605.81 38.9232C605.686 38.9232 605.592 38.9232 605.468 38.892C603.444 38.8297 602.011 38.2381 601.046 37.086C600.143 36.0274 599.645 34.4394 599.707 32.7579C599.77 30.9831 600.455 26.8418 605.81 26.9975C610.356 27.1221 614.155 23.5412 614.28 18.9952C614.404 14.4491 610.823 10.6503 606.277 10.5258C599.583 10.339 593.542 12.7365 589.276 17.2515C585.54 21.2371 583.36 26.5927 583.204 32.322C583.049 38.0513 584.886 43.5315 588.404 47.7039C592.265 52.2811 597.87 54.9901 604.222 55.3637Z" fill="#B3F8BC"/>
<path d="M659.896 208.87C658.9 202.238 655.475 196.727 650.275 193.333C645.697 190.344 640.03 189.191 634.363 190.032C628.696 190.904 623.621 193.675 620.134 197.879C616.304 202.456 614.653 208.434 615.401 214.755C615.401 215.036 615.432 215.316 615.494 215.627C616.553 222.446 620.507 228.207 626.299 231.445C627.575 232.161 628.821 232.722 629.911 233.22C630.938 233.687 632.464 234.372 632.775 234.714C632.775 234.714 632.806 234.746 632.838 234.839C633.274 236.022 633.554 237.299 633.834 239.136C634.519 243.651 638.723 246.733 643.238 246.048C647.752 245.363 650.835 241.16 650.15 236.645C649.714 233.749 649.154 231.476 648.375 229.265C645.884 222.291 640.373 219.8 636.73 218.149C635.858 217.745 635.048 217.402 634.363 216.997C632.744 216.094 632.153 214.506 631.903 213.416C631.903 213.292 631.872 213.198 631.872 213.074C631.561 211.081 631.903 209.555 632.838 208.403C633.741 207.313 635.204 206.566 636.854 206.317C638.629 206.037 642.802 206.006 643.611 211.299C644.296 215.814 648.5 218.897 653.015 218.212C657.467 217.589 660.581 213.385 659.896 208.87Z" fill="#B3F8BC"/>
<path d="M515.544 258.098C515.824 258.129 516.104 258.16 516.415 258.16C523.328 258.316 529.68 255.483 533.884 250.345C534.818 249.193 535.596 248.103 536.25 247.107C536.873 246.172 537.838 244.802 538.243 244.553C538.243 244.553 538.274 244.553 538.367 244.522C539.613 244.304 540.921 244.242 542.758 244.304C547.304 244.429 551.103 240.848 551.227 236.302C551.352 231.756 547.771 227.957 543.225 227.832C540.298 227.739 537.963 227.895 535.658 228.268C528.341 229.483 524.916 234.465 522.643 237.765C522.114 238.544 521.584 239.291 521.086 239.883C519.903 241.315 518.221 241.626 517.132 241.658C517.007 241.658 516.914 241.658 516.789 241.626C514.765 241.564 513.333 240.973 512.368 239.82C511.465 238.762 510.966 237.174 511.029 235.492C511.091 233.717 511.776 229.576 517.132 229.732C521.678 229.856 525.476 226.276 525.601 221.73C525.726 217.183 522.145 213.385 517.599 213.26C510.904 213.073 504.863 215.471 500.598 219.986C496.861 223.971 494.681 229.327 494.526 235.056C494.37 240.786 496.207 246.266 499.726 250.438C503.618 255.015 509.191 257.693 515.544 258.098Z" fill="#B3F8BC"/>
<path d="M545.747 3.05632C549.39 5.79641 554.559 5.08025 557.299 1.4683L558.015 0.53418H543.536C544.065 1.49944 544.813 2.37129 545.747 3.05632Z" fill="#B3F8BC"/>
<path d="M723.953 52.6062C726.558 49.0361 725.776 44.0299 722.206 41.4246C718.636 38.8192 713.63 39.6013 711.025 43.1715C708.419 46.7416 709.201 51.7478 712.771 54.3531C716.342 56.9585 721.348 56.1763 723.953 52.6062Z" fill="#B3F8BC"/>
<path d="M710.838 36.5914C714.761 34.2872 716.069 29.2118 713.765 25.2885L699.193 0.53418H680.043L699.566 33.6645C701.87 37.5878 706.915 38.8956 710.838 36.5914Z" fill="#B3F8BC"/>
<path d="M539.488 103.939C543.224 106.306 548.175 105.185 550.541 101.417C552.908 97.6496 551.787 92.7299 548.019 90.3634C544.283 87.997 539.332 89.1179 536.965 92.8855C534.599 96.6532 535.72 101.604 539.488 103.939Z" fill="#B3F8BC"/>
<path d="M546.153 84.2617C550.636 85.1024 554.933 82.1443 555.774 77.6605L563.154 38.1471C563.994 33.6633 561.036 29.3663 556.553 28.5256C552.069 27.6849 547.772 30.6429 546.931 35.1267L539.551 74.6402C538.711 79.124 541.669 83.4521 546.153 84.2617Z" fill="#B3F8BC"/>
<path d="M617.327 158.153C620.657 155.248 621.001 150.193 618.096 146.863C615.19 143.533 610.135 143.188 606.805 146.094C603.475 148.999 603.131 154.054 606.036 157.384C608.942 160.714 613.996 161.059 617.327 158.153Z" fill="#B3F8BC"/>
<path d="M603.195 161.791C599.832 158.708 594.632 158.926 591.55 162.289L564.367 191.932C561.284 195.295 561.502 200.495 564.865 203.577C568.228 206.66 573.428 206.442 576.51 203.079L603.693 173.436C606.776 170.104 606.558 164.873 603.195 161.791Z" fill="#B3F8BC"/>
<path d="M576.77 121.996C581.119 121.215 584.012 117.055 583.23 112.705C582.448 108.355 578.288 105.463 573.938 106.245C569.589 107.026 566.696 111.186 567.478 115.536C568.26 119.886 572.42 122.778 576.77 121.996Z" fill="#B3F8BC"/>
<path d="M634.583 95.2824L595.007 102.288C590.523 103.067 587.534 107.364 588.313 111.848C589.091 116.331 593.388 119.321 597.872 118.542L637.448 111.536C641.931 110.758 644.921 106.461 644.142 101.977C643.333 97.4932 639.067 94.504 634.583 95.2824Z" fill="#B3F8BC"/>
<path d="M480.151 196.123C482.028 192.122 480.306 187.356 476.304 185.479C472.303 183.602 467.537 185.325 465.66 189.326C463.783 193.327 465.506 198.093 469.507 199.97C473.509 201.847 478.274 200.125 480.151 196.123Z" fill="#B3F8BC"/>
<path d="M470.956 179.727C475.471 179.042 478.585 174.869 477.9 170.354L471.984 130.592C471.299 126.077 467.126 122.963 462.611 123.648C458.128 124.302 455.014 128.506 455.668 133.021L461.584 172.783C462.269 177.298 466.473 180.381 470.956 179.727Z" fill="#B3F8BC"/>
<path d="M880.85 90.8303C876.428 91.7955 873.657 96.1859 874.622 100.576C875.463 104.406 878.888 107.022 882.687 106.991V90.6123C882.064 90.6434 881.442 90.7057 880.85 90.8303Z" fill="#B3F8BC"/>
<path d="M819.375 146.61C823.869 146.099 827.098 142.042 826.587 137.548C826.075 133.054 822.018 129.825 817.524 130.336C813.031 130.847 809.802 134.905 810.313 139.398C810.824 143.892 814.881 147.121 819.375 146.61Z" fill="#B3F8BC"/>
<path d="M867.148 158.273C862.508 153.166 856.032 150.551 849.431 151.049C847.967 151.174 846.628 151.392 845.445 151.578C844.355 151.765 842.674 152.014 842.238 151.89C842.238 151.89 842.207 151.859 842.113 151.827C841.117 151.08 840.152 150.177 838.906 148.807C835.855 145.413 830.624 145.164 827.261 148.215C823.867 151.267 823.618 156.498 826.669 159.861C828.631 162.041 830.343 163.629 832.212 165.03C838.159 169.482 844.106 168.486 848.061 167.863C848.995 167.708 849.898 167.552 850.676 167.521C852.513 167.365 853.914 168.361 854.693 169.14C854.755 169.233 854.849 169.327 854.911 169.389C856.25 170.884 856.841 172.347 856.686 173.811C856.53 175.212 855.72 176.644 854.506 177.765C853.167 178.948 849.711 181.315 846.13 177.329C843.079 173.935 837.847 173.686 834.485 176.737C831.091 179.789 830.842 185.02 833.893 188.383C838.408 193.365 844.293 196.074 850.52 196.012C856.001 195.98 861.356 193.832 865.591 189.971C869.857 186.11 872.535 181.003 873.126 175.585C873.78 169.669 871.85 163.753 867.739 158.896C867.521 158.709 867.335 158.491 867.148 158.273Z" fill="#B3F8BC"/>
<path d="M683.344 212.981C683.748 217.527 687.765 220.859 692.311 220.454C696.857 220.049 700.189 216.033 699.784 211.487L696.172 171.444C695.767 166.898 691.751 163.566 687.205 163.971C682.658 164.376 679.327 168.392 679.732 172.938L683.344 212.981Z" fill="#B3F8BC"/>
<path d="M870.315 25.0125C872.873 21.4088 872.026 16.4133 868.422 13.8548C864.818 11.2963 859.823 12.1437 857.264 15.7474C854.706 19.3511 855.553 24.3465 859.157 26.905C862.761 29.4635 867.756 28.6162 870.315 25.0125Z" fill="#B3F8BC"/>
<path d="M817.361 61.6856L850.678 39.1732C854.446 36.6199 855.442 31.4823 852.889 27.7146C850.335 23.947 845.198 22.9506 841.43 25.5039L808.113 48.0163C804.345 50.5695 803.349 55.7072 805.902 59.4748C808.456 63.2425 813.593 64.2389 817.361 61.6856Z" fill="#B3F8BC"/>
<path d="M787.418 116.575C790.543 113.45 790.543 108.384 787.418 105.259C784.293 102.133 779.226 102.133 776.101 105.259C772.976 108.384 772.976 113.45 776.101 116.575C779.226 119.701 784.293 119.701 787.418 116.575Z" fill="#B3F8BC"/>
<path d="M793.851 105.806C795.626 110.01 800.483 111.972 804.656 110.197L841.678 94.5345C845.882 92.7597 847.844 87.9022 846.069 83.7298C844.294 79.5263 839.436 77.5646 835.264 79.3394L798.242 95.0016C794.038 96.7764 792.076 101.603 793.851 105.806Z" fill="#B3F8BC"/>
<path d="M802.071 2.05992C802.538 1.59285 802.943 1.09465 803.286 0.53418H789.647C789.959 1.03238 790.301 1.49944 790.737 1.90423C793.851 5.08025 798.926 5.14253 802.071 2.05992Z" fill="#B3F8BC"/>
<path d="M963.416 35.9984C965.082 31.7936 963.024 27.0343 958.82 25.3681C954.615 23.7019 949.855 25.7599 948.189 29.9647C946.523 34.1695 948.581 38.9288 952.786 40.595C956.991 42.2612 961.75 40.2032 963.416 35.9984Z" fill="#B3F8BC"/>
<path d="M918.373 15.0754C921.58 11.8682 921.58 6.63712 918.373 3.39883C917.376 2.40243 916.816 1.43717 916.567 0.53418H899.908C900.22 5.85869 902.586 10.9652 906.696 15.0754C909.934 18.2825 915.134 18.2825 918.373 15.0754Z" fill="#B3F8BC"/>
<path d="M929.953 17.9059C931.26 19.8364 932.755 21.6423 934.841 23.6974C938.048 26.9046 943.279 26.9046 946.518 23.6974C949.725 20.4903 949.725 15.2592 946.518 12.0209C945.21 10.7131 944.369 9.71669 943.653 8.68916C943.591 8.62688 943.591 8.56461 943.591 8.56461C943.497 8.09755 943.84 6.44726 944.089 5.35745C944.338 4.20536 944.618 2.86645 944.805 1.40299C944.836 1.09161 944.867 0.811375 944.899 0.5H928.24C928.147 0.935925 928.053 1.40299 927.96 1.87005C927.088 5.82451 925.842 11.7406 929.953 17.9059Z" fill="#B3F8BC"/>
<path d="M884.368 106.831C888.79 105.866 891.561 101.475 890.596 97.0851C889.755 93.2552 886.392 90.6708 882.656 90.6396V107.018C883.216 107.018 883.777 106.956 884.368 106.831Z" fill="#B3F8BC"/>
<path d="M904.918 93.666C906.444 92.6384 907.596 91.9845 908.748 91.4863C908.842 91.4552 908.873 91.4552 908.873 91.4241C909.34 91.4241 910.897 92.078 911.924 92.5139C913.014 92.9809 914.26 93.5103 915.661 93.9773C921.951 96.0636 928.863 95.036 934.592 91.2061C934.842 91.0504 935.059 90.8636 935.277 90.6768C940.446 86.9403 943.716 81.678 944.494 75.7619C945.21 70.344 943.84 64.7392 940.602 59.9752C937.395 55.2112 932.693 51.8483 927.4 50.5094C921.39 48.9837 915.007 50.198 909.433 53.9657C905.666 56.519 904.669 61.6566 907.223 65.4243C909.776 69.1919 914.914 70.1883 918.681 67.635C923.134 64.6147 925.936 67.7596 926.933 69.223C927.867 70.5931 928.303 72.1811 928.116 73.5823C927.929 75.0769 927.026 76.3535 925.345 77.4745C925.251 77.5368 925.158 77.599 925.064 77.6613C924.13 78.2218 922.542 78.8445 920.767 78.2841C920.02 78.035 919.21 77.6924 918.339 77.3188C914.664 75.7619 909.091 73.3955 902.272 76.2913C900.123 77.1942 898.068 78.3463 895.639 79.9966C891.872 82.5499 890.875 87.6876 893.429 91.4552C896.013 95.254 901.151 96.2504 904.918 93.666Z" fill="#B3F8BC"/>
<path d="M1115.57 137.323C1119.91 136.035 1122.38 131.476 1121.09 127.14C1119.8 122.805 1115.24 120.334 1110.91 121.623C1106.57 122.911 1104.1 127.471 1105.39 131.806C1106.68 136.142 1111.24 138.612 1115.57 137.323Z" fill="#B3F8BC"/>
<path d="M1104.2 88.9626C1108.72 89.492 1112.83 86.2848 1113.39 81.7387C1114.01 76.4142 1118.21 76.3208 1119.99 76.5388C1121.64 76.7256 1123.13 77.4418 1124.07 78.5004C1125.06 79.6214 1125.44 81.1471 1125.19 83.1399C1125.19 83.2645 1125.16 83.3579 1125.16 83.4824C1124.97 84.5723 1124.41 86.1914 1122.82 87.1255C1122.17 87.5303 1121.36 87.9351 1120.49 88.3399C1116.87 90.1147 1111.46 92.7614 1109.18 99.7985C1108.47 102.04 1108 104.313 1107.63 107.209C1107.1 111.724 1110.3 115.834 1114.85 116.395C1119.36 116.924 1123.47 113.717 1124.04 109.171C1124.25 107.334 1124.5 106.057 1124.91 104.874C1124.94 104.78 1124.97 104.749 1124.97 104.749C1125.28 104.376 1126.78 103.628 1127.77 103.161C1128.83 102.632 1130.04 102.04 1131.32 101.293C1137.02 97.8991 1140.79 92.0141 1141.63 85.1639C1141.66 84.8836 1141.69 84.5723 1141.69 84.292C1142.25 77.94 1140.41 72.0238 1136.46 67.5712C1132.85 63.4922 1127.71 60.8455 1122.01 60.1605C1116.31 59.4754 1110.71 60.8144 1106.22 63.9281C1101.12 67.4778 1097.88 73.1137 1097.07 79.7771C1096.45 84.3232 1099.65 88.4333 1104.2 88.9626Z" fill="#B3F8BC"/>
<path d="M963.871 122.98C964.446 118.494 961.274 114.391 956.788 113.817C952.302 113.242 948.2 116.414 947.625 120.9C947.051 125.386 950.222 129.488 954.708 130.062C959.194 130.637 963.297 127.466 963.871 122.98Z" fill="#B3F8BC"/>
<path d="M959.878 134.421C955.55 135.854 953.215 140.524 954.616 144.853C955.207 146.596 955.519 147.873 955.674 149.118C955.674 149.212 955.674 149.243 955.674 149.243C955.55 149.71 954.491 151.018 953.806 151.89C953.059 152.824 952.218 153.882 951.377 155.097C947.672 160.608 946.769 167.521 948.886 174.091C948.98 174.371 949.073 174.651 949.198 174.9C951.377 180.879 955.55 185.456 961.03 187.822C966.043 190.002 971.804 190.189 977.253 188.383C982.702 186.577 987.217 182.996 989.957 178.263C993.071 172.876 993.631 166.4 991.514 160.048C990.081 155.72 985.411 153.384 981.083 154.785C976.755 156.218 974.419 160.888 975.82 165.216C977.502 170.292 973.734 172.16 972.053 172.721C970.465 173.25 968.814 173.219 967.538 172.658C966.168 172.067 965.171 170.852 964.549 168.922C964.518 168.828 964.486 168.704 964.424 168.61C964.144 167.552 963.957 165.839 964.985 164.313C965.42 163.66 965.981 162.975 966.573 162.227C969.095 159.113 972.862 154.381 971.959 147.032C971.679 144.697 971.119 142.424 970.216 139.653C968.877 135.324 964.206 132.989 959.878 134.421Z" fill="#B3F8BC"/>
<path d="M1176.77 117.265C1178.37 113.032 1176.23 108.308 1172 106.715C1167.76 105.121 1163.04 107.26 1161.45 111.493C1159.85 115.726 1161.99 120.449 1166.22 122.043C1170.46 123.637 1175.18 121.498 1176.77 117.265Z" fill="#B3F8BC"/>
<path d="M1173.2 126.856C1168.87 128.288 1166.54 132.959 1167.94 137.287C1168.53 139.031 1168.84 140.307 1169 141.553C1169 141.646 1169 141.677 1169 141.677C1168.87 142.145 1167.81 143.452 1167.13 144.324C1166.38 145.258 1165.54 146.317 1164.7 147.531C1161 153.043 1160.09 159.955 1162.21 166.525C1162.3 166.805 1162.4 167.086 1162.52 167.335C1164.7 173.313 1168.87 177.89 1174.35 180.257C1179.37 182.436 1185.13 182.623 1190.58 180.817C1196.03 179.011 1200.54 175.431 1203.28 170.698C1206.39 165.311 1206.95 158.834 1204.84 152.482C1203.4 148.154 1198.73 145.819 1194.41 147.22C1190.08 148.652 1187.74 153.323 1189.14 157.651C1190.83 162.726 1187.06 164.595 1185.38 165.155C1183.79 165.684 1182.14 165.653 1180.86 165.093C1179.49 164.501 1178.49 163.287 1177.87 161.356C1177.84 161.263 1177.81 161.138 1177.75 161.045C1177.47 159.986 1177.28 158.274 1178.31 156.748C1178.74 156.094 1179.3 155.409 1179.9 154.662C1182.42 151.548 1186.19 146.815 1185.28 139.467C1185 137.131 1184.44 134.858 1183.54 132.087C1182.2 127.759 1177.53 125.424 1173.2 126.856Z" fill="#B3F8BC"/>
<path d="M1224.02 228.116C1223.39 228.583 1222.65 229.081 1221.87 229.611C1218.54 231.821 1213.46 235.153 1212.12 242.439C1211.69 244.743 1211.5 247.079 1211.53 250.006C1211.56 254.552 1215.3 258.226 1219.84 258.195C1224.39 258.164 1228.06 254.427 1228.03 249.881C1228 248.044 1228.1 246.736 1228.35 245.491C1228.38 245.397 1228.38 245.366 1228.38 245.366C1228.63 244.961 1230.03 244.027 1230.96 243.436C1231.96 242.782 1233.08 242.035 1234.23 241.132C1239.43 237.021 1242.42 230.7 1242.39 223.819C1242.39 223.539 1242.36 223.227 1242.33 222.947C1242.08 216.564 1239.49 210.928 1235.01 207.005C1230.9 203.424 1225.45 201.462 1219.72 201.494C1213.99 201.556 1208.57 203.58 1204.52 207.254C1199.92 211.426 1197.39 217.405 1197.46 224.13C1197.49 228.677 1201.22 232.351 1205.77 232.32C1210.32 232.288 1213.99 228.552 1213.96 224.006C1213.9 218.65 1218.07 218.028 1219.84 218.028C1221.53 218.028 1223.08 218.526 1224.14 219.46C1225.26 220.456 1225.82 221.92 1225.85 223.913C1225.85 224.037 1225.85 224.13 1225.85 224.255C1225.82 225.283 1225.48 226.964 1224.02 228.116Z" fill="#B3F8BC"/>
<path d="M1199.67 82.3468C1200.75 77.9543 1198.06 73.5205 1193.67 72.4436C1189.28 71.3667 1184.84 74.0546 1183.77 78.4471C1182.69 82.8396 1185.38 87.2734 1189.77 88.3502C1194.16 89.4271 1198.6 86.7393 1199.67 82.3468Z" fill="#B3F8BC"/>
<path d="M1196.93 39.2345C1201.01 41.2895 1205.96 39.6393 1208.01 35.5602C1210.41 30.7651 1214.4 32.104 1215.98 32.9136C1217.48 33.6609 1218.63 34.8441 1219.16 36.1519C1219.72 37.553 1219.53 39.1099 1218.63 40.8848C1218.57 40.9782 1218.54 41.1027 1218.48 41.1961C1217.91 42.1303 1216.86 43.4692 1215.05 43.8428C1214.27 43.9985 1213.4 44.0919 1212.43 44.1853C1208.45 44.6213 1202.44 45.2751 1197.89 51.129C1196.46 52.9661 1195.25 54.9589 1193.91 57.6056C1191.85 61.6846 1193.5 66.6354 1197.58 68.6905C1201.66 70.7456 1206.61 69.0953 1208.67 65.0163C1209.51 63.366 1210.16 62.2451 1210.94 61.2487C1211 61.1864 1211.03 61.1553 1211.03 61.1553C1211.44 60.9062 1213.12 60.7193 1214.21 60.5948C1215.39 60.4702 1216.73 60.3145 1218.19 60.0343C1224.7 58.7577 1230.25 54.4918 1233.36 48.3578C1233.48 48.1087 1233.61 47.8284 1233.7 47.5793C1236.38 41.7877 1236.66 35.5914 1234.45 30.0489C1232.42 24.9735 1228.5 20.7699 1223.36 18.1855C1218.23 15.6011 1212.5 14.9784 1207.2 16.3796C1201.19 17.9987 1196.24 22.1711 1193.22 28.1807C1191.23 32.2285 1192.85 37.1794 1196.93 39.2345Z" fill="#B3F8BC"/>
<path d="M1098.32 41.1184C1102.29 38.9557 1103.75 33.9822 1101.59 30.0098C1099.43 26.0375 1094.46 24.5706 1090.48 26.7334C1086.51 28.8961 1085.04 33.8696 1087.21 37.842C1089.37 41.8143 1094.34 43.2812 1098.32 41.1184Z" fill="#B3F8BC"/>
<path d="M1045.54 55.3637C1045.82 55.3949 1046.1 55.426 1046.41 55.426C1053.32 55.5817 1059.67 52.7482 1063.88 47.6105C1064.81 46.4584 1065.59 45.3686 1066.24 44.3722C1066.86 43.4381 1067.83 42.068 1068.23 41.8189C1068.23 41.8189 1068.27 41.8189 1068.36 41.7878C1069.6 41.5698 1070.91 41.5076 1072.75 41.5698C1077.3 41.6944 1081.09 38.1136 1081.22 33.5675C1081.34 29.0214 1077.76 25.2227 1073.22 25.0981C1070.29 25.0047 1067.95 25.1604 1065.65 25.534C1058.33 26.7484 1054.91 31.7304 1052.63 35.031C1052.11 35.8094 1051.58 36.5567 1051.08 37.1483C1049.89 38.5806 1048.21 38.892 1047.12 38.9232C1047 38.9232 1046.91 38.9232 1046.78 38.892C1044.76 38.8297 1043.32 38.2381 1042.36 37.086C1041.46 36.0274 1040.96 34.4394 1041.02 32.7579C1041.08 30.9831 1041.77 26.8418 1047.12 26.9975C1051.67 27.1221 1055.47 23.5412 1055.59 18.9952C1055.72 14.4491 1052.14 10.6503 1047.59 10.5258C1040.9 10.339 1034.86 12.7365 1030.59 17.2515C1026.85 21.2371 1024.67 26.5927 1024.52 32.322C1024.36 38.0513 1026.2 43.5315 1029.72 47.7039C1033.58 52.2811 1039.18 54.9901 1045.54 55.3637Z" fill="#B3F8BC"/>
<path d="M1101.21 208.87C1100.21 202.238 1096.79 196.727 1091.59 193.333C1087.01 190.344 1081.34 189.191 1075.68 190.032C1070.01 190.904 1064.93 193.675 1061.45 197.879C1057.62 202.456 1055.97 208.434 1056.71 214.755C1056.71 215.036 1056.74 215.316 1056.81 215.627C1057.87 222.446 1061.82 228.207 1067.61 231.445C1068.89 232.161 1070.13 232.722 1071.22 233.22C1072.25 233.687 1073.78 234.372 1074.09 234.714C1074.09 234.714 1074.12 234.746 1074.15 234.839C1074.59 236.022 1074.87 237.299 1075.15 239.136C1075.83 243.651 1080.04 246.733 1084.55 246.048C1089.07 245.363 1092.15 241.16 1091.46 236.645C1091.03 233.749 1090.47 231.476 1089.69 229.265C1087.2 222.291 1081.69 219.8 1078.04 218.149C1077.17 217.745 1076.36 217.402 1075.68 216.997C1074.06 216.094 1073.47 214.506 1073.22 213.416C1073.22 213.292 1073.19 213.198 1073.19 213.074C1072.87 211.081 1073.22 209.555 1074.15 208.403C1075.05 207.313 1076.52 206.566 1078.17 206.317C1079.94 206.037 1084.11 206.006 1084.92 211.299C1085.61 215.814 1089.81 218.897 1094.33 218.212C1098.78 217.589 1101.89 213.385 1101.21 208.87Z" fill="#B3F8BC"/>
<path d="M956.857 258.098C957.137 258.129 957.417 258.16 957.728 258.16C964.641 258.316 970.993 255.483 975.197 250.345C976.131 249.193 976.909 248.103 977.563 247.107C978.186 246.172 979.151 244.802 979.556 244.553C979.556 244.553 979.587 244.553 979.68 244.522C980.926 244.304 982.234 244.242 984.071 244.304C988.617 244.429 992.416 240.848 992.54 236.302C992.665 231.756 989.084 227.957 984.538 227.832C981.611 227.739 979.276 227.895 976.971 228.268C969.654 229.483 966.229 234.465 963.956 237.765C963.427 238.544 962.897 239.291 962.399 239.883C961.216 241.315 959.534 241.626 958.445 241.658C958.32 241.658 958.227 241.658 958.102 241.626C956.078 241.564 954.646 240.973 953.681 239.82C952.778 238.762 952.279 237.174 952.342 235.492C952.404 233.717 953.089 229.576 958.445 229.732C962.991 229.856 966.789 226.276 966.914 221.73C967.038 217.183 963.458 213.385 958.912 213.26C952.217 213.073 946.176 215.471 941.911 219.986C938.174 223.971 935.994 229.327 935.839 235.056C935.683 240.786 937.52 246.266 941.039 250.438C944.931 255.015 950.504 257.693 956.857 258.098Z" fill="#B3F8BC"/>
<path d="M987.059 3.05632C990.702 5.79641 995.871 5.08025 998.611 1.4683L999.328 0.53418H984.849C985.378 1.49944 986.125 2.37129 987.059 3.05632Z" fill="#B3F8BC"/>
<path d="M1165.27 52.6062C1167.87 49.0361 1167.09 44.0299 1163.52 41.4246C1159.95 38.8192 1154.94 39.6013 1152.34 43.1715C1149.73 46.7416 1150.51 51.7478 1154.08 54.3531C1157.65 56.9585 1162.66 56.1763 1165.27 52.6062Z" fill="#B3F8BC"/>
<path d="M1152.15 36.5914C1156.07 34.2872 1157.38 29.2118 1155.08 25.2885L1140.51 0.53418H1121.36L1140.88 33.6645C1143.18 37.5878 1148.23 38.8956 1152.15 36.5914Z" fill="#B3F8BC"/>
<path d="M980.8 103.939C984.537 106.306 989.487 105.185 991.854 101.417C994.22 97.6496 993.099 92.7299 989.332 90.3634C985.595 87.997 980.644 89.1179 978.278 92.8855C975.912 96.6532 977.032 101.604 980.8 103.939Z" fill="#B3F8BC"/>
<path d="M987.466 84.2617C991.949 85.1024 996.246 82.1443 997.087 77.6605L1004.47 38.1471C1005.31 33.6633 1002.35 29.3663 997.866 28.5256C993.382 27.6849 989.085 30.6429 988.244 35.1267L980.864 74.6402C980.024 79.124 982.982 83.4521 987.466 84.2617Z" fill="#B3F8BC"/>
<path d="M1058.64 158.153C1061.97 155.248 1062.31 150.193 1059.41 146.863C1056.5 143.533 1051.45 143.188 1048.12 146.094C1044.79 148.999 1044.44 154.054 1047.35 157.384C1050.25 160.714 1055.31 161.059 1058.64 158.153Z" fill="#B3F8BC"/>
<path d="M1044.51 161.791C1041.14 158.708 1035.94 158.926 1032.86 162.289L1005.68 191.932C1002.6 195.295 1002.81 200.495 1006.18 203.577C1009.54 206.66 1014.74 206.442 1017.82 203.079L1045.01 173.436C1048.09 170.104 1047.87 164.873 1044.51 161.791Z" fill="#B3F8BC"/>
<path d="M1018.08 121.996C1022.43 121.215 1025.32 117.055 1024.54 112.705C1023.76 108.355 1019.6 105.463 1015.25 106.245C1010.9 107.026 1008.01 111.186 1008.79 115.536C1009.57 119.886 1013.73 122.778 1018.08 121.996Z" fill="#B3F8BC"/>
<path d="M1075.9 95.2824L1036.32 102.288C1031.84 103.067 1028.85 107.364 1029.63 111.848C1030.4 116.331 1034.7 119.321 1039.18 118.542L1078.76 111.536C1083.24 110.758 1086.23 106.461 1085.45 101.977C1084.65 97.4932 1080.38 94.504 1075.9 95.2824Z" fill="#B3F8BC"/>
<path d="M921.463 196.123C923.34 192.122 921.618 187.356 917.617 185.479C913.615 183.602 908.85 185.325 906.973 189.326C905.096 193.327 906.818 198.093 910.82 199.97C914.821 201.847 919.586 200.125 921.463 196.123Z" fill="#B3F8BC"/>
<path d="M912.269 179.727C916.784 179.042 919.897 174.869 919.212 170.354L913.296 130.592C912.611 126.077 908.439 122.963 903.924 123.648C899.44 124.302 896.326 128.506 896.98 133.021L902.896 172.783C903.581 177.298 907.785 180.381 912.269 179.727Z" fill="#B3F8BC"/>
<path d="M1322.16 90.8303C1317.74 91.7955 1314.97 96.1859 1315.94 100.576C1316.78 104.406 1320.2 107.022 1324 106.991V90.6123C1323.38 90.6434 1322.75 90.7057 1322.16 90.8303Z" fill="#B3F8BC"/>
<path d="M1260.69 146.61C1265.18 146.099 1268.41 142.042 1267.9 137.548C1267.39 133.054 1263.33 129.825 1258.84 130.336C1254.34 130.847 1251.11 134.905 1251.63 139.398C1252.14 143.892 1256.19 147.121 1260.69 146.61Z" fill="#B3F8BC"/>
<path d="M1308.46 158.273C1303.82 153.166 1297.34 150.551 1290.74 151.049C1289.28 151.174 1287.94 151.392 1286.76 151.578C1285.67 151.765 1283.99 152.014 1283.55 151.89C1283.55 151.89 1283.52 151.859 1283.43 151.827C1282.43 151.08 1281.46 150.177 1280.22 148.807C1277.17 145.413 1271.94 145.164 1268.57 148.215C1265.18 151.267 1264.93 156.498 1267.98 159.861C1269.94 162.041 1271.66 163.629 1273.52 165.03C1279.47 169.482 1285.42 168.486 1289.37 167.863C1290.31 167.708 1291.21 167.552 1291.99 167.521C1293.83 167.365 1295.23 168.361 1296.01 169.14C1296.07 169.233 1296.16 169.327 1296.22 169.389C1297.56 170.884 1298.15 172.347 1298 173.811C1297.84 175.212 1297.03 176.644 1295.82 177.765C1294.48 178.948 1291.02 181.315 1287.44 177.329C1284.39 173.935 1279.16 173.686 1275.8 176.737C1272.4 179.789 1272.15 185.02 1275.21 188.383C1279.72 193.365 1285.61 196.074 1291.83 196.012C1297.31 195.98 1302.67 193.832 1306.9 189.971C1311.17 186.11 1313.85 181.003 1314.44 175.585C1315.09 169.669 1313.16 163.753 1309.05 158.896C1308.83 158.709 1308.65 158.491 1308.46 158.273Z" fill="#B3F8BC"/>
<path d="M1124.66 212.981C1125.06 217.527 1129.08 220.859 1133.62 220.454C1138.17 220.049 1141.5 216.033 1141.1 211.487L1137.48 171.444C1137.08 166.898 1133.06 163.566 1128.52 163.971C1123.97 164.376 1120.64 168.392 1121.04 172.938L1124.66 212.981Z" fill="#B3F8BC"/>
<path d="M1311.63 25.0125C1314.19 21.4088 1313.34 16.4133 1309.73 13.8548C1306.13 11.2963 1301.14 12.1437 1298.58 15.7474C1296.02 19.3511 1296.87 24.3465 1300.47 26.905C1304.07 29.4635 1309.07 28.6162 1311.63 25.0125Z" fill="#B3F8BC"/>
<path d="M1258.67 61.6856L1291.99 39.1732C1295.76 36.6199 1296.75 31.4823 1294.2 27.7146C1291.65 23.947 1286.51 22.9506 1282.74 25.5039L1249.43 48.0163C1245.66 50.5695 1244.66 55.7072 1247.21 59.4748C1249.77 63.2425 1254.91 64.2389 1258.67 61.6856Z" fill="#B3F8BC"/>
<path d="M1228.73 116.575C1231.86 113.45 1231.86 108.384 1228.73 105.259C1225.61 102.133 1220.54 102.133 1217.41 105.259C1214.29 108.384 1214.29 113.45 1217.41 116.575C1220.54 119.701 1225.61 119.701 1228.73 116.575Z" fill="#B3F8BC"/>
<path d="M1235.16 105.806C1236.94 110.01 1241.8 111.972 1245.97 110.197L1282.99 94.5345C1287.19 92.7597 1289.16 87.9022 1287.38 83.7298C1285.61 79.5263 1280.75 77.5646 1276.58 79.3394L1239.55 95.0016C1235.35 96.7764 1233.39 101.603 1235.16 105.806Z" fill="#B3F8BC"/>
<path d="M1243.38 2.05992C1243.85 1.59285 1244.26 1.09465 1244.6 0.53418H1230.96C1231.27 1.03238 1231.61 1.49944 1232.05 1.90423C1235.16 5.08025 1240.24 5.14253 1243.38 2.05992Z" fill="#B3F8BC"/>
</g>
<defs>
<clipPath id="clip0_91_73505">
<rect y="0.5" width="1324" height="220" rx="12" fill="white"/>
</clipPath>
</defs>
</svg>
