<svg width="25" height="24" viewBox="0 0 25 24" fill="none" xmlns="http://www.w3.org/2000/svg">
<path d="M11.8345 17.5009L10.9397 18.9752C10.5497 19.3652 8.29791 17.19 7.89791 16.81C7.78791 16.7 7.67791 16.6 7.56791 16.49C6.53791 15.45 5.60791 14.36 4.77791 13.22C3.95791 12.08 3.29791 10.94 2.81791 9.81C2.34791 8.67 2.10791 7.58 2.10791 6.54C2.10791 5.86 2.22791 5.21 2.46791 4.61C2.70791 4 3.08791 3.44 3.61791 2.94C4.25791 2.31 4.95791 2 5.69791 2C5.97791 2 6.25791 2.06 6.50791 2.18C6.76791 2.3 6.99791 2.48 7.17791 2.74L9.49791 6.01C9.67791 6.26 9.80791 6.49 9.89791 6.71C9.98791 6.92 10.0379 7.13 10.0379 7.32C10.0379 7.56 9.96791 7.8 9.82791 8.03C9.69791 8.26 9.50791 8.5 9.26791 8.74L8.50791 9.53C8.39791 9.64 8.34791 9.77 8.34791 9.93C8.34791 10.01 8.35791 10.08 8.37791 10.16C8.40791 10.24 8.43791 10.3 8.45791 10.36C8.63791 10.69 8.94791 11.12 9.38791 11.64C9.83791 12.16 10.3179 12.69 10.8379 13.22C10.9379 13.32 11.7273 14.0466 12.992 15.1449C13.392 15.5349 12.2345 17.1009 11.8345 17.5009Z" fill="white"/>
<path d="M22.0779 18.33C22.0779 18.61 22.0279 18.9 21.9279 19.18C21.8979 19.26 21.8679 19.34 21.8279 19.42C21.6579 19.78 21.4379 20.12 21.1479 20.44C20.6579 20.98 20.1179 21.37 19.5079 21.62C19.4979 21.62 19.4879 21.63 19.4779 21.63C18.8879 21.87 18.2479 22 17.5579 22C16.5379 22 15.4479 21.76 14.2979 21.27C13.1479 20.78 11.9979 20.12 10.8579 19.29C10.4679 19 10.0779 18.71 9.70789 18.4L12.9779 15.13C13.2579 15.34 13.5079 15.5 13.7179 15.61C13.7679 15.63 13.8279 15.66 13.8979 15.69C13.9779 15.72 14.0579 15.73 14.1479 15.73C14.3179 15.73 14.4479 15.67 14.5579 15.56L15.3179 14.81C15.5679 14.56 15.8079 14.37 16.0379 14.25C16.2679 14.11 16.4979 14.04 16.7479 14.04C16.9379 14.04 17.1379 14.08 17.3579 14.17C17.5779 14.26 17.8079 14.39 18.0579 14.56L21.3679 16.91C21.6279 17.09 21.8079 17.3 21.9179 17.55C22.0179 17.8 22.0779 18.05 22.0779 18.33Z" fill="white"/>
</svg>
