<svg width="33" height="32" viewBox="0 0 33 32" fill="none" xmlns="http://www.w3.org/2000/svg">
<path d="M8.8284 31.0162C8.42928 31.4149 7.78254 31.4148 7.38357 31.0159C6.98446 30.6168 6.9844 29.9698 7.38344 29.5707L11.4112 25.5421C11.8109 25.1423 12.459 25.1423 12.8588 25.542C13.2587 25.9418 13.2586 26.5903 12.8585 26.99L8.8284 31.0162Z" fill="#60C99F"/>
<path d="M2.53514 24.7227C2.13617 25.1215 1.48946 25.1215 1.09053 24.7226C0.691446 24.3236 0.69148 23.6766 1.0906 23.2776L5.11951 19.2502C5.51848 18.8514 6.16519 18.8514 6.56412 19.2503C6.9632 19.6493 6.96317 20.2963 6.56404 20.6953L2.53514 24.7227Z" fill="#60C99F"/>
<path d="M2.27541 31.2776C1.87638 31.6765 1.22957 31.6764 0.830582 31.2775C0.431525 30.8785 0.431465 30.2316 0.830448 29.8325L4.85818 25.8039C5.25781 25.4042 5.90592 25.4045 6.30519 25.8046C6.7039 26.2041 6.70351 26.8511 6.30431 27.2502L2.27541 31.2776Z" fill="#60C99F"/>
<path d="M25.6285 9.0986C25.6607 8.52009 25.3775 7.93198 24.7789 7.33749C24.1964 6.75258 23.6075 6.47131 23.0251 6.49368C22.4394 6.51925 21.9084 6.76856 21.4321 7.2448C20.9526 7.72423 20.7016 8.2548 20.6791 8.83971C20.6565 9.42462 20.9429 10.0127 21.5383 10.6136C22.124 11.1953 22.7065 11.4734 23.2825 11.4446C23.865 11.4127 24.3927 11.1602 24.869 10.6839C25.3485 10.2045 25.5995 9.67712 25.6285 9.0986Z" fill="#60C99F"/>
<path d="M15.9687 8.65446C18.9937 5.63084 23.3542 3.98799 27.6407 4.26286C27.754 4.27012 27.8457 4.36047 27.8531 4.47381C28.1266 8.75674 26.4822 13.1196 23.4604 16.14L15.8458 23.751C15.5585 24.0382 15.4592 24.4636 15.5898 24.8483L16.6824 28.0667C16.7776 28.3473 17.1342 28.4306 17.3439 28.2211L26.4468 19.1253C30.9264 14.6442 32.928 8.25174 31.7985 2.01592L31.7683 1.84949C31.6297 1.08434 31.0312 0.485315 30.2662 0.345931L30.0993 0.315533C24.1426 -0.761593 17.6775 0.97715 14.0121 4.64321L3.88285 14.7647C3.67317 14.9742 3.75626 15.3311 4.03694 15.4264L7.25986 16.5211C7.64447 16.6518 8.0699 16.5526 8.35714 16.2654L15.9687 8.65446Z" fill="#60C99F"/>
<path d="M21.6395 13.45C21.806 13.2908 21.8144 13.0247 21.6514 12.8618L19.2354 10.4468C19.0792 10.2906 18.826 10.2906 18.6698 10.4468L11.5451 17.5703C11.4055 17.71 11.4608 17.9477 11.6478 18.0113L13.2298 18.5494C13.3867 18.6028 13.5099 18.726 13.5631 18.8829L14.0938 20.4462C14.1574 20.6333 14.3952 20.6887 14.5349 20.549L21.4595 13.6256C21.5179 13.5676 21.5777 13.5091 21.6395 13.45Z" fill="#60C99F"/>
</svg>
