<svg width="22" height="22" viewBox="0 0 22 22" fill="none" xmlns="http://www.w3.org/2000/svg">
<path d="M11 6.23309V9.08738" stroke="#111827" stroke-width="1.5" stroke-miterlimit="10" stroke-linecap="round"/>
<path d="M11.0182 2.42761C7.86392 2.42761 5.30963 4.9819 5.30963 8.13618V9.93618C5.30963 10.519 5.06963 11.3933 4.76963 11.8905L3.68106 13.7076C3.01249 14.8305 3.47535 16.0819 4.70963 16.4933C8.80678 17.8562 13.2382 17.8562 17.3353 16.4933C18.4925 16.1076 18.9896 14.7533 18.3639 13.7076L17.2753 11.8905C16.9753 11.3933 16.7353 10.5105 16.7353 9.93618V8.13618C16.7268 4.99904 14.1553 2.42761 11.0182 2.42761Z" stroke="#111827" stroke-width="1.5" stroke-miterlimit="10" stroke-linecap="round"/>
<path d="M13.8531 16.846C13.8531 18.4145 12.5674 19.7003 10.9988 19.7003C10.2188 19.7003 9.49882 19.3745 8.98453 18.8603C8.47025 18.346 8.14453 17.626 8.14453 16.846" stroke="#111827" stroke-width="1.5" stroke-miterlimit="10"/>
</svg>
