<svg width="22" height="22" viewBox="0 0 22 22" fill="none" xmlns="http://www.w3.org/2000/svg">
<path d="M19.5723 5.85618V7.93047C19.5723 9.28476 18.7151 10.1419 17.3609 10.1419H14.4294V4.15047C14.4294 3.19904 15.2095 2.42761 16.1609 2.42761C17.0952 2.43618 17.9523 2.81333 18.5695 3.43047C19.1866 4.05618 19.5723 4.91333 19.5723 5.85618Z" stroke="#111827" stroke-width="1.5" stroke-miterlimit="10" stroke-linecap="round" stroke-linejoin="round"/>
<path d="M2.42761 6.71333V18.7133C2.42761 19.4248 3.23331 19.8276 3.79902 19.399L5.26475 18.3019C5.60761 18.0448 6.08762 18.079 6.39619 18.3876L7.81902 19.819C8.15331 20.1533 8.70192 20.1533 9.0362 19.819L10.4762 18.379C10.7762 18.079 11.2562 18.0448 11.5905 18.3019L13.0562 19.399C13.6219 19.819 14.4276 19.4162 14.4276 18.7133V4.1419C14.4276 3.19904 15.199 2.42761 16.1419 2.42761H6.71333H5.85618C3.28476 2.42761 2.42761 3.9619 2.42761 5.85618V6.71333Z" stroke="#111827" stroke-width="1.5" stroke-miterlimit="10" stroke-linecap="round" stroke-linejoin="round"/>
<path d="M5.85706 8.42847H10.9999" stroke="#111827" stroke-width="1.5" stroke-linecap="round" stroke-linejoin="round"/>
<path d="M6.5 11.858H10.3571" stroke="#111827" stroke-width="1.5" stroke-linecap="round" stroke-linejoin="round"/>
</svg>
