<svg width="48" height="48" viewBox="0 0 48 48" fill="none" xmlns="http://www.w3.org/2000/svg">
<rect x="0.5" y="0.5" width="47" height="47" rx="23.5" fill="#F1FEF4"/>
<g clip-path="url(#clip0_114_67030)">
<path d="M35.6156 29.2685C35.4561 28.6744 35.1245 28.1562 34.6638 27.7669C35.1888 25.7549 35.1274 23.655 34.4782 21.6499C33.7483 19.3955 32.3436 17.4775 30.4159 16.1033C29.9937 15.8024 29.4071 15.9 29.1056 16.3213C28.8041 16.7425 28.9018 17.328 29.3239 17.6289C30.9213 18.7676 32.0855 20.3574 32.6906 22.2263C33.2037 23.811 33.2742 25.4664 32.9033 27.0613C31.8074 26.9971 30.7147 27.5368 30.1293 28.5471C29.7293 29.2376 29.6229 30.0422 29.8297 30.8125C30.0367 31.5834 30.5325 32.2276 31.2258 32.6265C32.6496 33.4457 34.487 32.9646 35.3159 31.5338C35.7161 30.8434 35.8225 30.0388 35.6156 29.2685ZM33.6896 30.5955C33.3819 31.1266 32.6974 31.3092 32.1641 31.0023C31.9059 30.8537 31.7213 30.6141 31.6443 30.3273C31.5674 30.0412 31.607 29.7422 31.7557 29.4856C32.2494 28.6335 33.5435 28.7946 33.8011 29.7538C33.8778 30.0399 33.8383 30.3389 33.6896 30.5955ZM13.8852 24.9676C13.9164 24.9706 13.9472 24.9721 13.9778 24.9721C14.4554 24.9721 14.864 24.6102 14.9115 24.126C15.1024 22.1784 15.902 20.379 17.2237 18.9223C18.3451 17.6865 19.7494 16.7975 21.3221 16.3201C21.8145 17.2981 22.8296 17.9713 24 17.9713C25.6514 17.9713 26.9948 16.632 26.9948 14.9857C26.9948 13.3394 25.6514 12 24 12C22.5337 12 21.311 13.0563 21.0552 14.4456C19.0439 14.9982 17.2493 16.1011 15.8312 17.664C14.2368 19.4211 13.2723 21.5925 13.0419 23.9434C12.9913 24.4587 13.369 24.9172 13.8852 24.9676ZM24 13.8748C24.6155 13.8748 25.1162 14.3731 25.1162 14.9857C25.1162 15.5983 24.6155 16.0965 24 16.0965C23.3843 16.0965 22.8838 15.598 22.8838 14.9857C22.8838 14.3731 23.3845 13.8748 24 13.8748ZM27.7655 33.3121C25.9768 34.1215 24.0125 34.3312 22.085 33.9189C20.4515 33.5694 18.9778 32.8029 17.7771 31.686C17.9521 31.4213 18.0857 31.1278 18.1704 30.8126C18.3772 30.0422 18.2708 29.2377 17.8707 28.5471C17.045 27.1222 15.2102 26.632 13.7805 27.4545C13.0872 27.8534 12.5914 28.4976 12.3844 29.2685C12.1776 30.0388 12.284 30.8434 12.6842 31.5339C13.4188 32.8019 14.9487 33.3272 16.2824 32.853C17.7684 34.3125 19.6241 35.3097 21.6913 35.752C23.9704 36.2396 26.3422 36.0146 28.5413 35.0197C29.0138 34.8059 29.2232 34.2504 29.0089 33.7788C28.7947 33.3074 28.238 33.0984 27.7655 33.3121ZM16.3557 30.3273C16.1015 31.2741 14.809 31.456 14.3104 30.5955C14.1617 30.3389 14.1221 30.0399 14.199 29.7538C14.2759 29.467 14.4605 29.2274 14.7187 29.0788C15.2518 28.7721 15.9363 28.954 16.2443 29.4856C16.393 29.7422 16.4326 30.0412 16.3557 30.3273Z" fill="#00D26E"/>
</g>
<rect x="0.5" y="0.5" width="47" height="47" rx="23.5" stroke="#00D26E"/>
<defs>
<clipPath id="clip0_114_67030">
<rect width="24" height="24" fill="white" transform="translate(12 12)"/>
</clipPath>
</defs>
</svg>
