<svg width="32" height="33" viewBox="0 0 32 33" fill="none" xmlns="http://www.w3.org/2000/svg">
<path d="M11.9998 29.8337H19.9998C26.6665 29.8337 29.3332 27.167 29.3332 20.5003V12.5003C29.3332 5.83366 26.6665 3.16699 19.9998 3.16699H11.9998C5.33317 3.16699 2.6665 5.83366 2.6665 12.5003V20.5003C2.6665 27.167 5.33317 29.8337 11.9998 29.8337Z" stroke="white" stroke-width="1.5" stroke-linecap="round" stroke-linejoin="round"/>
<path d="M20.6667 25.1663C22.1333 25.1663 23.3333 23.9663 23.3333 22.4997V10.4997C23.3333 9.03301 22.1333 7.83301 20.6667 7.83301C19.2 7.83301 18 9.03301 18 10.4997V22.4997C18 23.9663 19.1867 25.1663 20.6667 25.1663Z" stroke="white" stroke-width="1.5" stroke-linecap="round" stroke-linejoin="round"/>
<path d="M11.3332 25.167C12.7998 25.167 13.9998 23.967 13.9998 22.5003V17.8337C13.9998 16.367 12.7998 15.167 11.3332 15.167C9.8665 15.167 8.6665 16.367 8.6665 17.8337V22.5003C8.6665 23.967 9.85317 25.167 11.3332 25.167Z" stroke="white" stroke-width="1.5" stroke-linecap="round" stroke-linejoin="round"/>
</svg>
