<svg width="24" height="25" viewBox="0 0 24 25" fill="none" xmlns="http://www.w3.org/2000/svg">
<path d="M11.4194 15.6694L17.25 21.5C18.2855 22.5355 19.9645 22.5355 21 21.5C22.0355 20.4645 22.0355 18.7855 21 17.75L15.1233 11.8733M11.4194 15.6694L13.9155 12.6383C14.2315 12.2546 14.6542 12.0132 15.1233 11.8733M11.4194 15.6694L6.76432 21.3219C6.28037 21.9096 5.55897 22.25 4.79768 22.25C3.39064 22.25 2.25 21.1094 2.25 19.7023C2.25 18.941 2.59044 18.2196 3.1781 17.7357L10.0146 12.1056M15.1233 11.8733C15.6727 11.7094 16.2858 11.6848 16.8659 11.7338C16.9925 11.7445 17.1206 11.75 17.25 11.75C19.7353 11.75 21.75 9.73528 21.75 7.25C21.75 6.58973 21.6078 5.96268 21.3523 5.39779L18.0762 8.67397C16.9605 8.41785 16.0823 7.53963 15.8262 6.42397L19.1024 3.14774C18.5375 2.89223 17.9103 2.75 17.25 2.75C14.7647 2.75 12.75 4.76472 12.75 7.25C12.75 7.37938 12.7555 7.50749 12.7662 7.63411C12.8571 8.70956 12.6948 9.89841 11.8617 10.5845L11.7596 10.6686M10.0146 12.1056L5.90901 8H4.5L2.25 4.25L3.75 2.75L7.5 5V6.40901L11.7596 10.6686M10.0146 12.1056L11.7596 10.6686M18.375 18.875L15.75 16.25M4.86723 19.625H4.87473V19.6325H4.86723V19.625Z" stroke="#fffff" stroke-width="1.5" stroke-linecap="round" stroke-linejoin="round"/>
</svg>
