<svg width="20" height="21" viewBox="0 0 20 21" fill="none" xmlns="http://www.w3.org/2000/svg">
<path d="M3.47483 13.2502L7.24983 17.0252C8.79983 18.5752 11.3165 18.5752 12.8748 17.0252L16.5332 13.3668C18.0832 11.8168 18.0832 9.30016 16.5332 7.74183L12.7498 3.97516C11.9582 3.1835 10.8665 2.7585 9.74983 2.81683L5.58316 3.01683C3.9165 3.09183 2.5915 4.41683 2.50816 6.07516L2.30816 10.2418C2.25816 11.3668 2.68316 12.4585 3.47483 13.2502Z" stroke="#6B7280" stroke-width="1.5" stroke-linecap="round" stroke-linejoin="round"/>
<path d="M7.91659 10.5002C9.06718 10.5002 9.99992 9.56742 9.99992 8.41683C9.99992 7.26624 9.06718 6.3335 7.91659 6.3335C6.76599 6.3335 5.83325 7.26624 5.83325 8.41683C5.83325 9.56742 6.76599 10.5002 7.91659 10.5002Z" stroke="#6B7280" stroke-width="1.5" stroke-linecap="round"/>
</svg>
