<svg width="84" height="26" viewBox="0 0 84 26" fill="none" xmlns="http://www.w3.org/2000/svg">
<path d="M55.0663 11.713C54.8325 11.1224 54.4972 10.6795 54.0574 10.3842C53.6175 10.0888 53.0791 9.94119 52.4393 9.94119H52.3132C51.6826 9.94119 51.1504 10.0888 50.7167 10.3842C50.283 10.6795 49.9569 11.1224 49.7323 11.713C49.7293 11.7161 49.7293 11.7253 49.7262 11.7346C49.7231 11.7253 49.72 11.7161 49.717 11.713C49.4924 11.1224 49.1694 10.6795 48.7387 10.3842C48.3112 10.0888 47.7759 9.94119 47.1361 9.94119H47.01C46.3824 9.94119 45.8503 10.0888 45.4135 10.3842C44.9797 10.6795 44.6537 11.1224 44.4291 11.713C44.343 11.9407 44.2722 12.1929 44.223 12.4728V10.2211H41.9897V18.8342H44.8105V13.8878C44.8105 13.4726 44.9213 13.1311 45.1458 12.8666C45.3673 12.602 45.6719 12.4698 46.0656 12.4698C46.4593 12.4698 46.7608 12.602 46.9731 12.8666C47.1853 13.1311 47.2899 13.4603 47.2899 13.854V18.8342H50.1107V13.8878C50.1107 13.4726 50.2245 13.1311 50.446 12.8666C50.6675 12.602 50.9751 12.4698 51.3688 12.4698C51.7595 12.4698 52.061 12.602 52.2732 12.8666C52.4855 13.1311 52.5931 13.4603 52.5931 13.854V18.8342H55.4139V13.934C55.4139 13.0388 55.297 12.2975 55.0663 11.713Z" fill="#171717"/>
<path d="M61.5681 16.7716C62.0018 16.7716 62.3586 16.6793 62.6447 16.4917C62.9308 16.304 63.143 16.0395 63.2876 15.7042C63.4322 15.3658 63.506 14.9844 63.506 14.5568C63.506 14.1108 63.4291 13.717 63.2815 13.3787C63.1307 13.0403 62.9123 12.7727 62.6232 12.5758C62.331 12.3758 61.9803 12.2774 61.5681 12.2774C61.1528 12.2774 60.8021 12.3758 60.513 12.5758C60.2238 12.7727 60.0054 13.0403 59.8547 13.3787C59.704 13.717 59.6301 14.1108 59.6301 14.5568C59.6301 14.9844 59.704 15.3658 59.8455 15.7042C59.99 16.0395 60.2084 16.304 60.4976 16.4917C60.7867 16.6793 61.1436 16.7716 61.5681 16.7716ZM61.5681 19.1433C60.8144 19.1433 60.1408 19.0295 59.5532 18.7988C58.9626 18.5711 58.4643 18.2543 58.0552 17.8482C57.6491 17.4422 57.3384 16.9746 57.1262 16.4455C56.9139 15.9134 56.8093 15.3474 56.8093 14.7444V14.3692C56.8093 13.7447 56.917 13.1633 57.1415 12.6219C57.363 12.0805 57.6799 11.6068 58.0951 11.2038C58.5073 10.7978 59.0087 10.4809 59.5994 10.2502C60.1869 10.0195 60.8421 9.90572 61.5681 9.90572C62.3002 9.90572 62.9585 10.0195 63.5429 10.2502C64.1274 10.4809 64.6257 10.7978 65.041 11.2038C65.4532 11.6068 65.7701 12.0805 65.9915 12.6219C66.2161 13.1633 66.3268 13.7447 66.3268 14.3692V14.7444C66.3268 15.3474 66.2192 15.9134 66.01 16.4455C65.7977 16.9746 65.487 17.4422 65.0779 17.8482C64.6688 18.2543 64.1735 18.5711 63.5829 18.7988C62.9923 19.0295 62.3217 19.1433 61.5681 19.1433Z" fill="#171717"/>
<path d="M71.2745 19.1114C70.0317 19.1114 69.0566 18.8561 68.3429 18.3393C67.6293 17.8225 67.2479 17.0997 67.1956 16.1614H69.678C69.718 16.4229 69.8779 16.6444 70.1579 16.8351C70.4378 17.0197 70.8284 17.112 71.336 17.112C71.6959 17.112 72.0097 17.0597 72.2742 16.952C72.5357 16.8413 72.668 16.6628 72.668 16.4137C72.668 16.1953 72.5665 16.0138 72.3604 15.8723C72.1512 15.7339 71.7759 15.6354 71.2283 15.5862L70.6377 15.5247C69.5426 15.4078 68.7367 15.1063 68.2199 14.6172C67.7031 14.1281 67.4447 13.516 67.4447 12.7777C67.4447 12.144 67.5985 11.618 67.9092 11.2089C68.2199 10.7967 68.6475 10.4891 69.195 10.2799C69.7426 10.0707 70.3701 9.96614 71.0715 9.96614C72.2189 9.96614 73.1448 10.2215 73.8461 10.7259C74.5506 11.2304 74.9228 11.9564 74.9628 12.9008H72.4803C72.4403 12.6424 72.3019 12.4209 72.062 12.2394C71.8251 12.0579 71.4837 11.9656 71.0407 11.9656C70.7208 11.9656 70.4593 12.021 70.2563 12.1379C70.0563 12.2517 69.9548 12.4147 69.9548 12.6208C69.9548 12.8392 70.0502 13.0023 70.244 13.1038C70.4316 13.2084 70.7423 13.2853 71.1637 13.3376L71.7544 13.4022C72.8495 13.516 73.6923 13.8205 74.2891 14.3127C74.8828 14.8079 75.1812 15.457 75.1812 16.2568C75.1812 16.8474 75.0212 17.358 74.7074 17.7856C74.3906 18.2101 73.9415 18.5393 73.357 18.77C72.7726 18.9976 72.0804 19.1114 71.2745 19.1114Z" fill="#171717"/>
<path d="M81.0837 16.5554C80.9607 16.7738 80.8038 16.9276 80.613 17.0168C80.4223 17.106 80.2039 17.1491 79.9548 17.1491C79.5733 17.1491 79.278 17.0537 79.0688 16.8599C78.8627 16.6661 78.7612 16.417 78.7612 16.1032C78.7612 15.7833 78.8627 15.5249 79.0688 15.3311C79.278 15.1373 79.5733 15.0419 79.9548 15.0419H81.3021V15.651C81.2806 16.0355 81.2098 16.337 81.0837 16.5554ZM83.5108 11.6275C83.1847 11.1076 82.714 10.7138 82.1019 10.4555C81.4836 10.1971 80.7392 10.0648 79.8594 10.0648C79.5518 10.0648 79.2134 10.0709 78.8474 10.0802C78.4782 10.0925 78.1245 10.1079 77.783 10.1263C77.4416 10.1478 77.1493 10.1694 76.9002 10.1909V12.5626C77.2509 12.5411 77.6384 12.5195 78.063 12.498C78.4875 12.4795 78.8873 12.4642 79.2719 12.4519C79.6533 12.4426 79.9455 12.4365 80.1393 12.4365C80.5515 12.4365 80.8499 12.5318 81.0314 12.7256C81.2067 12.9133 81.2959 13.1963 81.3021 13.5777H79.9548C79.1796 13.5777 78.4905 13.67 77.8907 13.8546C77.2908 14.0453 76.8233 14.3375 76.4818 14.7374C76.1404 15.1373 75.9712 15.6602 75.9712 16.3062C75.9712 16.8784 76.1004 17.3706 76.3649 17.7797C76.6264 18.1919 76.9925 18.5056 77.457 18.7241C77.9214 18.9425 78.4567 19.0532 79.0535 19.0532C79.6533 19.0532 80.1578 18.9425 80.5669 18.7241C80.976 18.5056 81.2959 18.1919 81.5267 17.7797C81.622 17.6105 81.702 17.4259 81.7666 17.226V18.8348H83.9999V13.6054C83.9999 12.8056 83.8368 12.1473 83.5108 11.6275Z" fill="#171717"/>
<path d="M38.5474 9.38754C39.0519 9.38754 39.4241 9.25219 39.6641 8.98765C39.9009 8.7231 40.0209 8.38165 40.0209 7.96638C40.0209 7.5511 39.9009 7.20965 39.6641 6.94511C39.4241 6.68056 39.0488 6.54521 38.5321 6.54521C38.0245 6.54521 37.6492 6.68056 37.4093 6.94511C37.1632 7.20965 37.0432 7.5511 37.0432 7.96638C37.0432 8.38165 37.1632 8.7231 37.4093 8.98765C37.6492 9.25219 38.0306 9.38754 38.5474 9.38754Z" fill="#00D26E"/>
<path d="M37.384 10.2206H36.4304C36.7103 10.4666 36.9564 10.7496 37.1564 11.0726C37.584 11.7586 37.8024 12.6107 37.8024 13.6043V18.8337H40.2048V10.2206H37.384Z" fill="#00D26E"/>
<path d="M34.0753 15.651C34.0538 16.0355 33.983 16.337 33.86 16.5554C33.7338 16.7738 33.577 16.9276 33.3862 17.0168C33.1955 17.106 32.9771 17.1491 32.7249 17.1491C32.3434 17.1491 32.0512 17.0537 31.8451 16.8599C31.639 16.6661 31.5344 16.417 31.5344 16.1032C31.5344 15.7833 31.639 15.5249 31.8451 15.3311C32.0512 15.1373 32.3434 15.0419 32.7249 15.0419H34.0753V15.651ZM34.8751 10.4555C34.2599 10.1971 33.5124 10.0648 32.6357 10.0648C32.325 10.0648 31.9866 10.0709 31.6175 10.0802C31.2514 10.0925 30.8977 10.1079 30.5562 10.1263C30.2148 10.1478 29.9225 10.1694 29.6734 10.1909V12.5626C30.024 12.5411 30.4116 12.5195 30.8361 12.498C31.2606 12.4795 31.6605 12.4642 32.0451 12.4519C32.4265 12.4426 32.7157 12.4365 32.9125 12.4365C33.3278 12.4365 33.6231 12.5318 33.8046 12.7256C33.9799 12.9133 34.0691 13.1963 34.0753 13.5777H32.7249C31.9528 13.5777 31.2668 13.67 30.667 13.8546C30.064 14.0453 29.5965 14.3375 29.255 14.7374C28.9136 15.1373 28.7444 15.6602 28.7444 16.3062C28.7444 16.8784 28.8767 17.3706 29.1381 17.7797C29.4027 18.1919 29.7657 18.5056 30.2301 18.7241C30.6946 18.9425 31.2268 19.0532 31.8267 19.0532C32.4265 19.0532 32.931 18.9425 33.3401 18.7241C33.7492 18.5056 34.0691 18.1919 34.2998 17.7797C34.3952 17.6105 34.4752 17.4259 34.5398 17.226V18.8348H36.773V13.6054C36.773 12.8056 36.61 12.1473 36.2839 11.6275C35.9579 11.1076 35.4903 10.7138 34.8751 10.4555Z" fill="#00D26E"/>
<g clip-path="url(#clip0_114_66787)">
<path d="M6.99383 24.8748C6.67373 25.1946 6.15503 25.1945 5.83506 24.8746C5.51496 24.5545 5.51491 24.0356 5.83495 23.7155L9.06527 20.4845C9.38584 20.1638 9.90564 20.1638 10.2263 20.4844C10.547 20.8051 10.5469 21.3251 10.226 21.6457L6.99383 24.8748Z" fill="#171717"/>
<path d="M1.94652 19.8273C1.62653 20.1471 1.10786 20.1471 0.787907 19.8272C0.467836 19.5072 0.467863 18.9883 0.787968 18.6683L4.01923 15.4382C4.33921 15.1184 4.85789 15.1184 5.17784 15.4383C5.49791 15.7583 5.49788 16.2772 5.17778 16.5972L1.94652 19.8273Z" fill="#171717"/>
<path d="M1.7382 25.0844C1.41817 25.4043 0.899422 25.4043 0.579426 25.0844C0.259374 24.7644 0.259326 24.2455 0.579318 23.9255L3.80964 20.6945C4.13015 20.3739 4.64995 20.3741 4.97017 20.695C5.28994 21.0154 5.28963 21.5343 4.96946 21.8544L1.7382 25.0844Z" fill="#171717"/>
<path d="M20.4678 7.29645C20.4937 6.83247 20.2665 6.3608 19.7865 5.884C19.3193 5.41489 18.847 5.18931 18.3798 5.20726C17.9101 5.22776 17.4842 5.42771 17.1023 5.80966C16.7177 6.19418 16.5164 6.61971 16.4983 7.08881C16.4802 7.55792 16.7099 8.02959 17.1874 8.51152C17.6572 8.97806 18.1243 9.20108 18.5863 9.17801C19.0535 9.15238 19.4768 8.94987 19.8587 8.56791C20.2433 8.1834 20.4446 7.76043 20.4678 7.29645Z" fill="#00D26E"/>
<path d="M12.7205 6.94025C15.1466 4.51524 18.6438 3.19764 22.0817 3.41809C22.1726 3.42392 22.2461 3.49638 22.252 3.58728C22.4714 7.02227 21.1525 10.5214 18.729 12.9438L12.6219 19.048C12.3915 19.2783 12.3119 19.6195 12.4166 19.928L13.2929 22.5093C13.3693 22.7343 13.6553 22.8011 13.8234 22.6331L21.1241 15.338C24.7169 11.7441 26.3222 6.61725 25.4163 1.616L25.3921 1.48252C25.2809 0.868857 24.8009 0.388423 24.1874 0.276635L24.0535 0.252255C19.2761 -0.611621 14.091 0.782885 11.1512 3.72314L3.02741 11.8408C2.85924 12.0088 2.92588 12.295 3.15099 12.3715L5.73583 13.2495C6.0443 13.3542 6.38551 13.2747 6.61587 13.0444L12.7205 6.94025Z" fill="#00D26E"/>
<path d="M17.2686 10.7864C17.4021 10.6587 17.4088 10.4452 17.2782 10.3146L15.3405 8.37771C15.2152 8.25247 15.0121 8.25249 14.8869 8.37773L9.17272 14.0909C9.06069 14.2029 9.10508 14.3936 9.25507 14.4446L10.5239 14.8762C10.6497 14.919 10.7485 15.0178 10.7912 15.1436L11.2168 16.3974C11.2678 16.5475 11.4585 16.592 11.5706 16.4799L17.1242 10.9272C17.1711 10.8807 17.219 10.8338 17.2686 10.7864Z" fill="#00D26E"/>
</g>
<defs>
<clipPath id="clip0_114_66787">
<rect width="25.6646" height="25.6646" fill="white" transform="translate(0 -0.000976562)"/>
</clipPath>
</defs>
</svg>
