<svg width="158" height="48" viewBox="0 0 158 48" fill="none" xmlns="http://www.w3.org/2000/svg">
<path d="M102.99 21.9082C102.552 20.8035 101.925 19.9751 101.102 19.4228C100.28 18.8705 99.273 18.5943 98.0763 18.5943H97.8404C96.661 18.5943 95.6657 18.8705 94.8545 19.4228C94.0433 19.9751 93.4335 20.8035 93.0135 21.9082C93.0077 21.9139 93.0077 21.9312 93.002 21.9484C92.9962 21.9312 92.9905 21.9139 92.9847 21.9082C92.5647 20.8035 91.9607 19.9751 91.1552 19.4228C90.3555 18.8705 89.3545 18.5943 88.1578 18.5943H87.9219C86.7483 18.5943 85.753 18.8705 84.936 19.4228C84.1248 19.9751 83.515 20.8035 83.095 21.9082C82.9339 22.3339 82.8016 22.8057 82.7095 23.3292V19.1179H78.5327V35.2268H83.8084V25.9757C83.8084 25.199 84.0155 24.5604 84.4355 24.0656C84.8497 23.5708 85.4193 23.3234 86.1557 23.3234C86.8921 23.3234 87.4559 23.5708 87.8529 24.0656C88.2499 24.5604 88.4455 25.176 88.4455 25.9124V35.2268H93.7211V25.9757C93.7211 25.199 93.934 24.5604 94.3482 24.0656C94.7625 23.5708 95.3378 23.3234 96.0742 23.3234C96.8048 23.3234 97.3687 23.5708 97.7656 24.0656C98.1626 24.5604 98.364 25.176 98.364 25.9124V35.2268H103.64V26.062C103.64 24.3878 103.421 23.0013 102.99 21.9082Z" fill="#111827"/>
<path d="M115.149 31.3685C115.961 31.3685 116.628 31.1959 117.163 30.8449C117.698 30.494 118.095 29.9992 118.365 29.3721C118.636 28.7393 118.774 28.0259 118.774 27.2262C118.774 26.392 118.63 25.6555 118.354 25.0227C118.072 24.3898 117.664 23.8893 117.123 23.5211C116.576 23.1472 115.92 22.9631 115.149 22.9631C114.373 22.9631 113.717 23.1472 113.176 23.5211C112.635 23.8893 112.227 24.3898 111.945 25.0227C111.663 25.6555 111.525 26.392 111.525 27.2262C111.525 28.0259 111.663 28.7393 111.928 29.3721C112.198 29.9992 112.607 30.494 113.147 30.8449C113.688 31.1959 114.355 31.3685 115.149 31.3685ZM115.149 35.8042C113.74 35.8042 112.48 35.5913 111.381 35.1598C110.276 34.7341 109.344 34.1415 108.579 33.3821C107.82 32.6227 107.239 31.7482 106.842 30.7586C106.445 29.7633 106.249 28.7047 106.249 27.5771V26.8752C106.249 25.7073 106.451 24.62 106.871 23.6074C107.285 22.5948 107.877 21.7089 108.654 20.9552C109.425 20.1958 110.363 19.6032 111.467 19.1717C112.566 18.7402 113.792 18.5273 115.149 18.5273C116.519 18.5273 117.75 18.7402 118.843 19.1717C119.936 19.6032 120.868 20.1958 121.645 20.9552C122.416 21.7089 123.008 22.5948 123.423 23.6074C123.842 24.62 124.05 25.7073 124.05 26.8752V27.5771C124.05 28.7047 123.848 29.7633 123.457 30.7586C123.06 31.7482 122.479 32.6227 121.714 33.3821C120.949 34.1415 120.022 34.7341 118.918 35.1598C117.813 35.5913 116.559 35.8042 115.149 35.8042Z" fill="#111827"/>
<path d="M133.303 35.7454C130.979 35.7454 129.155 35.2679 127.821 34.3014C126.486 33.3348 125.773 31.9828 125.675 30.2281H130.318C130.392 30.7171 130.692 31.1314 131.215 31.4881C131.739 31.8333 132.469 32.0059 133.419 32.0059C134.092 32.0059 134.678 31.908 135.173 31.7067C135.662 31.4996 135.91 31.1659 135.91 30.6999C135.91 30.2914 135.72 29.952 135.334 29.6873C134.943 29.4284 134.241 29.2443 133.217 29.1523L132.113 29.0372C130.064 28.8186 128.557 28.2548 127.591 27.34C126.624 26.4253 126.141 25.2804 126.141 23.8996C126.141 22.7144 126.428 21.7307 127.009 20.9655C127.591 20.1946 128.39 19.6192 129.414 19.228C130.438 18.8368 131.612 18.6412 132.924 18.6412C135.07 18.6412 136.801 19.1187 138.113 20.0622C139.431 21.0058 140.127 22.3635 140.202 24.1297H135.559C135.484 23.6465 135.225 23.2322 134.776 22.8928C134.333 22.5534 133.695 22.3808 132.866 22.3808C132.268 22.3808 131.779 22.4843 131.399 22.7029C131.025 22.9158 130.835 23.2207 130.835 23.6062C130.835 24.0147 131.014 24.3196 131.376 24.5094C131.727 24.7051 132.308 24.8489 133.096 24.9467L134.201 25.0675C136.249 25.2804 137.825 25.8499 138.942 26.7704C140.052 27.6967 140.61 28.9106 140.61 30.4065C140.61 31.5111 140.311 32.4661 139.724 33.2658C139.131 34.0597 138.291 34.6753 137.198 35.1068C136.105 35.5326 134.811 35.7454 133.303 35.7454Z" fill="#111827"/>
<path d="M151.649 30.9646C151.419 31.3731 151.126 31.6607 150.769 31.8276C150.412 31.9944 150.004 32.0749 149.538 32.0749C148.824 32.0749 148.272 31.8966 147.881 31.5341C147.495 31.1717 147.305 30.7057 147.305 30.1189C147.305 29.5205 147.495 29.0373 147.881 28.6748C148.272 28.3124 148.824 28.134 149.538 28.134H152.058V29.2731C152.017 29.9923 151.885 30.5561 151.649 30.9646ZM156.188 21.748C155.578 20.7757 154.698 20.0393 153.553 19.556C152.397 19.0727 151.005 18.8253 149.359 18.8253C148.784 18.8253 148.151 18.8369 147.466 18.8541C146.776 18.8771 146.114 18.9059 145.476 18.9404C144.837 18.9807 144.291 19.021 143.825 19.0612V23.4969C144.481 23.4567 145.205 23.4164 145.999 23.3761C146.793 23.3416 147.541 23.3128 148.26 23.2898C148.974 23.2726 149.52 23.2611 149.883 23.2611C150.654 23.2611 151.212 23.4394 151.551 23.8019C151.879 24.1528 152.046 24.6821 152.058 25.3955H149.538C148.088 25.3955 146.799 25.5681 145.677 25.9133C144.555 26.27 143.681 26.8165 143.042 27.5644C142.404 28.3124 142.087 29.2904 142.087 30.4986C142.087 31.5687 142.329 32.4892 142.824 33.2543C143.313 34.0253 143.997 34.6121 144.866 35.0206C145.735 35.4291 146.736 35.6362 147.852 35.6362C148.974 35.6362 149.917 35.4291 150.683 35.0206C151.448 34.6121 152.046 34.0253 152.478 33.2543C152.656 32.9379 152.805 32.5927 152.926 32.2188V35.2277H157.103V25.4473C157.103 23.9514 156.798 22.7203 156.188 21.748Z" fill="#111827"/>
<path d="M72.0945 17.5587C73.038 17.5587 73.7342 17.3056 74.1829 16.8108C74.6259 16.316 74.8503 15.6774 74.8503 14.9007C74.8503 14.124 74.6259 13.4854 74.1829 12.9907C73.7342 12.4959 73.0323 12.2428 72.0657 12.2428C71.1165 12.2428 70.4146 12.4959 69.9658 12.9907C69.5056 13.4854 69.2812 14.124 69.2812 14.9007C69.2812 15.6774 69.5056 16.316 69.9658 16.8108C70.4146 17.3056 71.128 17.5587 72.0945 17.5587Z" fill="#60C99F"/>
<path d="M69.9187 19.1166H68.1353C68.6588 19.5769 69.1191 20.1062 69.493 20.7103C70.2927 21.9932 70.7012 23.5869 70.7012 25.4451V35.2256H75.1944V19.1166H69.9187Z" fill="#60C99F"/>
<path d="M63.7304 29.2731C63.6901 29.9923 63.5578 30.5561 63.3277 30.9646C63.0918 31.3731 62.7984 31.6607 62.4417 31.8276C62.085 31.9944 61.6765 32.0749 61.2047 32.0749C60.4913 32.0749 59.9448 31.8966 59.5593 31.5341C59.1739 31.1717 58.9783 30.7057 58.9783 30.1189C58.9783 29.5205 59.1739 29.0373 59.5593 28.6748C59.9448 28.3124 60.4913 28.134 61.2047 28.134H63.7304V29.2731ZM65.2262 19.556C64.0756 19.0727 62.6776 18.8253 61.0379 18.8253C60.4568 18.8253 59.824 18.8369 59.1336 18.8541C58.449 18.8771 57.7873 18.9059 57.1487 18.9404C56.5101 18.9807 55.9636 19.021 55.4976 19.0612V23.4969C56.1534 23.4567 56.8783 23.4164 57.6723 23.3761C58.4662 23.3416 59.2141 23.3128 59.9333 23.2898C60.6467 23.2726 61.1875 23.2611 61.5557 23.2611C62.3324 23.2611 62.8847 23.4394 63.2241 23.8019C63.552 24.1528 63.7189 24.6821 63.7304 25.3955H61.2047C59.7607 25.3955 58.4777 25.5681 57.3559 25.9133C56.2282 26.27 55.3538 26.8165 54.7151 27.5644C54.0765 28.3124 53.7601 29.2904 53.7601 30.4986C53.7601 31.5687 54.0075 32.4892 54.4965 33.2543C54.9913 34.0253 55.6702 34.6121 56.5389 35.0206C57.4076 35.4291 58.4029 35.6362 59.5248 35.6362C60.6467 35.6362 61.5902 35.4291 62.3554 35.0206C63.1206 34.6121 63.7189 34.0253 64.1504 33.2543C64.3287 32.9379 64.4783 32.5927 64.5991 32.2188V35.2277H68.7759V25.4473C68.7759 23.9514 68.471 22.7203 67.8612 21.748C67.2513 20.7757 66.3769 20.0393 65.2262 19.556Z" fill="#60C99F"/>
<g clip-path="url(#clip0_431_116534)">
<path d="M13.0805 46.5243C12.4819 47.1224 11.5118 47.1222 10.9133 46.5238C10.3146 45.9253 10.3145 44.9547 10.9131 44.356L16.9547 38.3132C17.5543 37.7135 18.5264 37.7134 19.1261 38.313C19.726 38.9128 19.7258 39.8854 19.1257 40.485L13.0805 46.5243Z" fill="#111827"/>
<path d="M3.64066 37.084C3.0422 37.6822 2.07214 37.6822 1.47374 37.0839C0.87512 36.4854 0.875172 35.5148 1.47386 34.9164L7.51721 28.8753C8.11567 28.2771 9.08574 28.2771 9.68413 28.8754C10.2828 29.4739 10.2827 30.4445 9.68402 31.0429L3.64066 37.084Z" fill="#111827"/>
<path d="M3.25106 46.9164C2.65252 47.5147 1.68231 47.5146 1.08382 46.9163C0.485239 46.3178 0.485149 45.3473 1.08362 44.7487L7.12522 38.7059C7.72466 38.1063 8.69683 38.1068 9.29573 38.7069C9.8938 39.3062 9.89321 40.2767 9.29442 40.8753L3.25106 46.9164Z" fill="#111827"/>
<path d="M38.2807 13.6479C38.329 12.7801 37.9042 11.898 37.0063 11.0062C36.1326 10.1289 35.2492 9.70697 34.3755 9.74053C33.497 9.77888 32.7005 10.1528 31.9861 10.8672C31.2669 11.5863 30.8903 12.3822 30.8565 13.2596C30.8228 14.1369 31.2524 15.0191 32.1454 15.9204C33.0239 16.793 33.8976 17.2101 34.7617 17.1669C35.6354 17.119 36.4271 16.7402 37.1415 16.0259C37.8607 15.3067 38.2373 14.5157 38.2807 13.6479Z" fill="#60C99F"/>
<path d="M23.7909 12.9817C28.3285 8.44626 34.8692 5.98198 41.299 6.39429C41.469 6.40519 41.6065 6.54071 41.6176 6.71072C42.0279 13.1351 39.5612 19.6794 35.0285 24.21L23.6066 35.6265C23.1757 36.0573 23.0268 36.6955 23.2227 37.2725L24.8615 42.1001C25.0044 42.521 25.5393 42.6458 25.8537 42.3317L39.5081 28.6879C46.2275 21.9663 49.23 12.3776 47.5357 3.02388L47.4904 2.77423C47.2824 1.62652 46.3847 0.727972 45.2372 0.518896L44.9869 0.473299C36.0519 -1.14239 26.3542 1.46572 20.856 6.96482L5.66223 22.1471C5.34771 22.4614 5.47235 22.9966 5.89336 23.1396L10.7277 24.7817C11.3047 24.9777 11.9428 24.8289 12.3737 24.3981L23.7909 12.9817Z" fill="#60C99F"/>
<path d="M32.2972 20.175C32.547 19.9362 32.5595 19.537 32.3151 19.2927L28.6911 15.6701C28.4568 15.4359 28.077 15.436 27.8427 15.6702L17.1557 26.3555C16.9461 26.565 17.0292 26.9216 17.3097 27.017L19.6827 27.8241C19.918 27.9041 20.1027 28.089 20.1826 28.3243L20.9787 30.6693C21.074 30.9499 21.4307 31.0331 21.6403 30.8236L32.0272 20.4383C32.1148 20.3514 32.2045 20.2637 32.2972 20.175Z" fill="#60C99F"/>
</g>
<defs>
<clipPath id="clip0_431_116534">
<rect width="48" height="48" fill="white"/>
</clipPath>
</defs>
</svg>
