<svg width="23" height="23" viewBox="0 0 23 23" fill="none" xmlns="http://www.w3.org/2000/svg">
<path fill-rule="evenodd" clip-rule="evenodd" d="M6.43359 1.18704C6.43359 0.911153 6.20973 0.6875 5.93359 0.6875C5.65745 0.6875 5.43359 0.911153 5.43359 1.18704V2.68565H3.43359C1.77674 2.68565 0.433594 4.02756 0.433594 5.68287V19.6699C0.433594 21.3253 1.77674 22.6671 3.43359 22.6671H19.4336C21.0905 22.6671 22.4336 21.3253 22.4336 19.6699V5.68287C22.4336 4.02756 21.0905 2.68565 19.4336 2.68565H17.4336V1.18704C17.4336 0.911153 17.2097 0.6875 16.9336 0.6875C16.6575 0.6875 16.4336 0.911153 16.4336 1.18704V2.68565H6.43359V1.18704ZM19.4336 3.68472C20.5382 3.68472 21.4336 4.57933 21.4336 5.68287V7.68102H1.43359V5.68287C1.43359 4.57933 2.32902 3.68472 3.43359 3.68472H19.4336ZM1.43359 8.6801V19.6699C1.43359 20.7735 2.32902 21.6681 3.43359 21.6681H19.4336C20.5382 21.6681 21.4336 20.7735 21.4336 19.6699V8.6801H1.43359Z" fill="black"/>
</svg>
