<svg width="16" height="15" viewBox="0 0 16 15" fill="none" xmlns="http://www.w3.org/2000/svg">
<path fill-rule="evenodd" clip-rule="evenodd" d="M12.9934 2.49023L10.8268 0.323604C10.4897 -0.0134797 9.93857 -0.0134797 9.60148 0.323604C9.2644 0.660688 9.2644 1.2118 9.60148 1.54889L10.5428 2.49023H12.9929H12.9934ZM0.945988 4.83402H14.2436C14.246 4.83402 14.2479 4.83402 14.2503 4.83402C14.6903 4.83067 15.0489 4.46964 15.0489 4.02866C15.0489 3.58575 14.6865 3.22329 14.2436 3.22329H13.6738H11.2764H3.91271H1.5153H0.945988C0.503086 3.22329 0.140625 3.58575 0.140625 4.02866C0.140625 4.46916 0.499256 4.83019 0.939284 4.83402C0.941199 4.83402 0.943594 4.83402 0.945988 4.83402ZM1.03792 5.56708L2.06354 13.2051C2.13057 13.7035 2.54953 14.0703 3.05276 14.0703H7.59478H12.1368C12.6395 14.0703 13.059 13.7035 13.126 13.2051L14.1521 5.56708H1.0384H1.03792ZM3.49231 7.6231C3.45353 7.26399 3.71592 6.97048 4.07503 6.97048C4.43414 6.97048 4.75925 7.26399 4.79803 7.6231L5.24141 11.7447C5.2802 12.1038 5.01781 12.3973 4.6587 12.3973C4.29959 12.3973 3.97448 12.1038 3.93569 11.7447L3.49231 7.6231ZM6.94216 7.6231C6.94216 7.26399 7.23567 6.97048 7.59478 6.97048C7.95389 6.97048 8.2474 7.26399 8.2474 7.6231V11.7447C8.2474 12.1038 7.95389 12.3973 7.59478 12.3973C7.23567 12.3973 6.94216 12.1038 6.94216 11.7447V7.6231ZM9.94814 11.7447L10.3915 7.6231C10.4303 7.26399 10.7554 6.97048 11.1145 6.97048C11.4736 6.97048 11.7355 7.26399 11.6972 7.6231L11.2539 11.7447C11.2151 12.1038 10.89 12.3973 10.5309 12.3973C10.1717 12.3973 9.90984 12.1038 9.94814 11.7447ZM4.64625 2.48975L5.5876 1.54841C5.92468 1.21132 5.92468 0.66021 5.5876 0.323126C5.25051 -0.0139585 4.6994 -0.0139585 4.36232 0.323126L2.19569 2.48975H4.64625Z" fill="#014DC0"/>
</svg>
