<svg width="35" height="35" viewBox="0 0 35 35" fill="none" xmlns="http://www.w3.org/2000/svg">
<path d="M11.5274 16.0921C10.8082 16.0945 10.1018 16.282 9.47604 16.6365C10.357 14.3562 11.8182 12.3454 13.7149 10.8032C13.8235 10.7138 13.9133 10.6039 13.9794 10.4798C14.0454 10.3557 14.0864 10.2199 14.0999 10.0799C14.1135 9.93999 14.0993 9.79876 14.0583 9.66429C14.0173 9.52983 13.9501 9.40477 13.8608 9.29624C13.7714 9.18772 13.6615 9.09786 13.5374 9.0318C13.4133 8.96574 13.2774 8.92477 13.1375 8.91123C12.9976 8.89769 12.8563 8.91184 12.7219 8.95288C12.5874 8.99392 12.4623 9.06104 12.3538 9.15041C8.46493 12.3101 6.73438 16.6851 6.73438 19.3976C6.74108 20.3567 7.02689 21.2931 7.55691 22.0925C8.08694 22.8918 8.83825 23.5196 9.7191 23.899C10.2892 24.1752 10.9135 24.3213 11.5469 24.3268C12.1044 24.3539 12.6616 24.2675 13.1848 24.0728C13.7079 23.8781 14.1861 23.5792 14.5902 23.1942C14.9944 22.8092 15.3162 22.3461 15.536 21.8331C15.7559 21.32 15.8692 20.7676 15.8692 20.2094C15.8692 19.6512 15.7559 19.0989 15.536 18.5858C15.3162 18.0727 14.9944 17.6097 14.5902 17.2247C14.1861 16.8397 13.7079 16.5408 13.1848 16.3461C12.6616 16.1514 12.1044 16.065 11.5469 16.0921H11.5274Z" fill="#014DC0"/>
<path d="M22.3634 16.0931C21.6441 16.0946 20.9374 16.2822 20.312 16.6375C21.1926 14.3596 22.6499 12.3495 24.5411 10.8042C24.6595 10.7189 24.7592 10.6102 24.834 10.4849C24.9088 10.3597 24.9572 10.2204 24.9762 10.0757C24.9951 9.93103 24.9843 9.78399 24.9443 9.64366C24.9044 9.50332 24.8361 9.37265 24.7437 9.25968C24.6514 9.14672 24.5368 9.05385 24.4073 8.9868C24.2777 8.91974 24.1357 8.87992 23.9901 8.86977C23.8446 8.85963 23.6985 8.87939 23.5608 8.92782C23.4232 8.97626 23.2969 9.05235 23.1898 9.15141C19.3009 12.3111 17.5703 16.6861 17.5703 19.3986C17.5749 20.3469 17.8524 21.2737 18.3696 22.0685C18.8868 22.8633 19.6219 23.4923 20.487 23.8806C21.0715 24.1648 21.7134 24.3112 22.3634 24.3084C22.9209 24.3355 23.4781 24.249 24.0013 24.0544C24.5244 23.8597 25.0025 23.5608 25.4067 23.1758C25.8109 22.7908 26.1326 22.3277 26.3525 21.8146C26.5724 21.3016 26.6857 20.7492 26.6857 20.191C26.6857 19.6328 26.5724 19.0804 26.3525 18.5674C26.1326 18.0543 25.8109 17.5912 25.4067 17.2062C25.0025 16.8212 24.5244 16.5223 24.0013 16.3276C23.4781 16.1329 22.9209 16.0465 22.3634 16.0736V16.0931Z" fill="#014DC0"/>
</svg>
