<svg width="21" height="21" viewBox="0 0 21 21" fill="none" xmlns="http://www.w3.org/2000/svg">
<path d="M13.5419 5.0944L14.8532 3.78313C14.9345 3.70189 15.0447 3.65625 15.1596 3.65625C15.2745 3.65625 15.3847 3.70189 15.4659 3.78313L17.0841 5.40077C17.1653 5.48203 17.2109 5.59223 17.2109 5.70714C17.2109 5.82204 17.1653 5.93225 17.0841 6.01351L15.7727 7.32522L13.5419 5.0944ZM12.9291 5.70714L5.14621 13.4899C5.09872 13.5375 5.06296 13.5955 5.04177 13.6593L4.23314 16.086C4.21146 16.1511 4.20554 16.2204 4.21589 16.2883C4.22624 16.3561 4.25256 16.4205 4.29267 16.4762C4.33278 16.5319 4.38555 16.5772 4.44662 16.6085C4.50769 16.6398 4.57533 16.6562 4.64396 16.6562C4.69052 16.6562 4.73678 16.6486 4.78089 16.6337L7.20764 15.8251C7.27138 15.8038 7.32936 15.768 7.37708 15.7207L15.1596 7.93795L12.9291 5.70714Z" fill="white"/>
</svg>
