<svg width="10" height="11" viewBox="0 0 10 11" fill="none" xmlns="http://www.w3.org/2000/svg">
<path d="M7.17374 2.03596L8.18244 1.02728C8.24495 0.964793 8.32972 0.929688 8.41811 0.929688C8.50651 0.929688 8.59128 0.964793 8.65379 1.02728L9.8985 2.27163C9.96099 2.33414 9.99609 2.41891 9.99609 2.50729C9.99609 2.59568 9.96099 2.68045 9.8985 2.74296L8.8898 3.75197L7.17374 2.03596ZM6.70239 2.50729L0.715531 8.494C0.679002 8.53063 0.651498 8.57525 0.635195 8.62434L0.0131747 10.491C-0.00350727 10.5411 -0.00805504 10.5944 -9.42443e-05 10.6466C0.00786655 10.6988 0.0281083 10.7484 0.0589645 10.7912C0.0898208 10.834 0.130409 10.8689 0.177388 10.893C0.224367 10.9171 0.276394 10.9296 0.329185 10.9297C0.365007 10.9297 0.400587 10.9238 0.434522 10.9124L2.30125 10.2903C2.35028 10.2739 2.39488 10.2464 2.43159 10.21L8.41811 4.22331L6.70239 2.50729Z" fill="black"/>
<path d="M7.17188 2.03596L8.18057 1.02728C8.24309 0.964793 8.32786 0.929688 8.41625 0.929688C8.50464 0.929688 8.58941 0.964793 8.65192 1.02728L9.89663 2.27163C9.95912 2.33414 9.99423 2.41891 9.99423 2.50729C9.99423 2.59568 9.95912 2.68045 9.89663 2.74296L8.88793 3.75197L7.17188 2.03596Z" fill="#014DC0"/>
</svg>
