<svg width="15" height="15" viewBox="0 0 15 15" fill="none" xmlns="http://www.w3.org/2000/svg">
<path d="M14.8672 13.4531C14.8672 13.9364 14.4754 14.3281 13.9922 14.3281H1.74219C1.25894 14.3281 0.867188 13.9364 0.867188 13.4531C0.867188 12.9699 1.25894 12.5781 1.74219 12.5781H13.9922C14.4754 12.5781 14.8672 12.9699 14.8672 13.4531ZM7.24848 10.6812C7.41935 10.8521 7.64324 10.9375 7.86719 10.9375C8.09108 10.9375 8.31508 10.8521 8.4859 10.6812L11.5861 7.58108C11.9278 7.23937 11.9278 6.68536 11.5861 6.34364C11.2444 6.00193 10.6903 6.00193 10.3486 6.34364L8.74219 7.95009V1.20312C8.74219 0.719879 8.35043 0.328125 7.86719 0.328125C7.38394 0.328125 6.99219 0.719879 6.99219 1.20312V7.95009L5.38574 6.34364C5.04403 6.00193 4.49002 6.00193 4.1483 6.34364C3.80659 6.68536 3.80659 7.23937 4.1483 7.58108L7.24848 10.6812Z" fill="black"/>
<path d="M14.8672 13.4531C14.8672 13.9364 14.4754 14.3281 13.9922 14.3281H1.74219C1.25894 14.3281 0.867188 13.9364 0.867188 13.4531C0.867188 12.9699 1.25894 12.5781 1.74219 12.5781H13.9922C14.4754 12.5781 14.8672 12.9699 14.8672 13.4531Z" fill="#014DC0"/>
</svg>
