<svg width="15" height="15" viewBox="0 0 15 15" fill="none" xmlns="http://www.w3.org/2000/svg">
<path fill-rule="evenodd" clip-rule="evenodd" d="M12.8489 3.05273L10.6822 0.886104C10.3451 0.54902 9.79403 0.54902 9.45695 0.886104C9.11987 1.22319 9.11987 1.7743 9.45695 2.11139L10.3983 3.05273H12.8484H12.8489ZM0.801456 5.39652H14.099C14.1014 5.39652 14.1033 5.39652 14.1057 5.39652C14.5458 5.39317 14.9044 5.03214 14.9044 4.59116C14.9044 4.14825 14.5419 3.78579 14.099 3.78579H13.5293H11.1318H3.76818H1.37076H0.801456C0.358555 3.78579 -0.00390625 4.14825 -0.00390625 4.59116C-0.00390625 5.03166 0.354724 5.39269 0.794753 5.39652C0.796668 5.39652 0.799062 5.39652 0.801456 5.39652ZM0.893388 6.12958L1.919 13.7676C1.98604 14.266 2.405 14.6328 2.90823 14.6328H7.45025H11.9923C12.495 14.6328 12.9145 14.266 12.9815 13.7676L14.0076 6.12958H0.893867H0.893388ZM3.34778 8.1856C3.309 7.82649 3.57139 7.53298 3.9305 7.53298C4.28961 7.53298 4.61472 7.82649 4.6535 8.1856L5.09688 12.3072C5.13567 12.6663 4.87328 12.9598 4.51417 12.9598C4.15506 12.9598 3.82995 12.6663 3.79116 12.3072L3.34778 8.1856ZM6.79762 8.1856C6.79762 7.82649 7.09114 7.53298 7.45025 7.53298C7.80936 7.53298 8.10287 7.82649 8.10287 8.1856V12.3072C8.10287 12.6663 7.80936 12.9598 7.45025 12.9598C7.09114 12.9598 6.79762 12.6663 6.79762 12.3072V8.1856ZM9.80361 12.3072L10.247 8.1856C10.2858 7.82649 10.6109 7.53298 10.97 7.53298C11.3291 7.53298 11.591 7.82649 11.5527 8.1856L11.1093 12.3072C11.0705 12.6663 10.7454 12.9598 10.3863 12.9598C10.0272 12.9598 9.76531 12.6663 9.80361 12.3072ZM4.50172 3.05225L5.44306 2.11091C5.78015 1.77382 5.78015 1.22271 5.44306 0.885626C5.10598 0.548541 4.55487 0.548541 4.21778 0.885626L2.05116 3.05225H4.50172Z" fill="white"/>
</svg>
