<svg width="27" height="31" viewBox="0 0 27 31" fill="none" xmlns="http://www.w3.org/2000/svg">
<path d="M24.6359 20.2976C24.6286 20.3401 24.6235 20.3833 24.621 20.4272C24.363 24.9728 20.6731 28.5337 16.2212 28.5337C13.9454 28.5337 11.8133 27.6176 10.2176 25.9542C10.2155 25.9519 10.2133 25.9493 10.2107 25.9471L2.46706 18.019C2.24654 17.7933 2.125 17.493 2.125 17.1737C2.125 16.8544 2.24654 16.5541 2.46706 16.3284C2.69486 16.0951 3.29274 15.9789 3.29274 15.9789C3.29274 15.9789 3.89098 16.0955 4.11841 16.3284L7.10781 19.3889C7.41166 19.7 7.86835 19.7928 8.26499 19.6248C8.662 19.4564 8.92073 19.06 8.92073 18.6203V3.36742C8.92073 2.70799 9.44474 2.17188 10.0885 2.17188C10.7326 2.17188 11.2562 2.70836 11.2562 3.36742V9.07464V13.6403C11.2562 14.2409 11.7318 14.7275 12.318 14.7275C12.9043 14.7275 13.3799 14.2405 13.3799 13.6403V9.07464C13.3799 8.41521 13.9039 7.8791 14.5476 7.8791C15.1917 7.8791 15.7154 8.41558 15.7154 9.07464V11.3577V13.6407C15.7154 14.2413 16.191 14.7278 16.7772 14.7278C17.3634 14.7278 17.8391 14.2409 17.8391 13.6407V11.3577C17.8391 10.6983 18.3631 10.1621 19.0068 10.1621C19.6509 10.1621 20.1745 10.6986 20.1745 11.3577V13.6407V14.7822C20.1745 15.3828 20.6501 15.8694 21.2364 15.8694C21.823 15.8694 22.2982 15.3824 22.2982 14.7822V13.6407C22.2982 12.9817 22.8222 12.4452 23.466 12.4452C24.1097 12.4452 24.6337 12.9817 24.6337 13.6407V20.2976H24.6359Z" fill="white"/>
<path d="M23.4665 10.2729C23.0171 10.2729 22.5887 10.3653 22.1983 10.533C21.8373 9.07329 20.5433 7.98989 19.0066 7.98989C18.5572 7.98989 18.1289 8.08229 17.7384 8.24994C17.3774 6.79025 16.0834 5.70685 14.547 5.70685C14.1358 5.70685 13.7421 5.78435 13.3793 5.92592V3.37016C13.3793 1.51184 11.9026 0 10.0875 0C8.27241 0 6.79573 1.51184 6.79573 3.37016V15.9984L5.61926 14.7939C4.3358 13.4799 2.24741 13.4799 0.963957 14.7939C0.342061 15.4306 0 16.2767 0 17.1768C0 18.0769 0.342425 18.9234 0.963957 19.5597L8.70399 27.484C10.7018 29.5648 13.3706 30.7108 16.2195 30.7108C21.7296 30.7108 26.3074 26.3544 26.7266 20.7564C26.7473 20.6714 26.7583 20.5831 26.7583 20.4918V13.6431C26.7583 11.7848 25.2816 10.2729 23.4665 10.2729ZM24.6342 20.3003C24.6269 20.3428 24.6218 20.386 24.6193 20.43C24.3613 24.9756 20.6714 28.5365 16.2195 28.5365C13.9437 28.5365 11.8116 27.6204 10.216 25.9569C10.2138 25.9547 10.2116 25.9521 10.2091 25.9498L2.46539 18.0218C2.24487 17.796 2.12332 17.4957 2.12332 17.1764C2.12332 16.8572 2.24487 16.5569 2.46539 16.3311C2.69318 16.0979 3.29106 15.9816 3.29106 15.9816C3.29106 15.9816 3.8893 16.0983 4.11674 16.3311L7.10613 19.3917C7.40998 19.7028 7.86667 19.7955 8.26332 19.6275C8.66033 19.4591 8.91905 19.0627 8.91905 18.6231V3.37016C8.91905 2.71074 9.44306 2.17462 10.0868 2.17462C10.7309 2.17462 11.2545 2.71111 11.2545 3.37016V9.07739V13.6431C11.2545 14.2437 11.7301 14.7302 12.3164 14.7302C12.9026 14.7302 13.3782 14.2433 13.3782 13.6431V9.07739C13.3782 8.41796 13.9022 7.88185 14.546 7.88185C15.19 7.88185 15.7137 8.41833 15.7137 9.07739V11.3604V13.6435C15.7137 14.244 16.1893 14.7306 16.7755 14.7306C17.3618 14.7306 17.8374 14.2437 17.8374 13.6435V11.3604C17.8374 10.701 18.3614 10.1649 19.0051 10.1649C19.6492 10.1649 20.1729 10.7014 20.1729 11.3604V13.6435V14.785C20.1729 15.3856 20.6485 15.8721 21.2347 15.8721C21.8213 15.8721 22.2965 15.3852 22.2965 14.785V13.6435C22.2965 12.9844 22.8205 12.4479 23.4643 12.4479C24.108 12.4479 24.632 12.9844 24.632 13.6435V20.3003H24.6342Z" fill="#4F4F4F"/>
</svg>
