<svg width="18" height="16" viewBox="0 0 18 16" fill="none" xmlns="http://www.w3.org/2000/svg">
<path fill-rule="evenodd" clip-rule="evenodd" d="M14.6889 2.77343L12.2127 0.297289C11.8275 -0.08795 11.1976 -0.08795 10.8124 0.297289C10.4272 0.682528 10.4272 1.31237 10.8124 1.69761L11.8882 2.77343H14.6883H14.6889ZM0.920414 5.45205H16.1177C16.1204 5.45205 16.1226 5.45205 16.1253 5.45205C16.6282 5.44822 17.0381 5.03562 17.0381 4.53163C17.0381 4.02546 16.6238 3.61122 16.1177 3.61122H15.4665H12.7266H4.31095H1.57105H0.920414C0.414241 3.61122 0 4.02546 0 4.53163C0 5.03507 0.409864 5.44767 0.912753 5.45205C0.914942 5.45205 0.917678 5.45205 0.920414 5.45205ZM1.02548 6.28983L2.19761 15.019C2.27422 15.5886 2.75304 16.0078 3.32816 16.0078H8.51903H13.7099C14.2845 16.0078 14.7638 15.5886 14.8405 15.019L16.0131 6.28983H1.02603H1.02548ZM3.8305 8.63957C3.78618 8.22916 4.08605 7.89372 4.49646 7.89372C4.90687 7.89372 5.27843 8.22916 5.32275 8.63957L5.82947 13.35C5.8738 13.7604 5.57393 14.0958 5.16351 14.0958C4.7531 14.0958 4.38155 13.7604 4.33722 13.35L3.8305 8.63957ZM7.77318 8.63957C7.77318 8.22916 8.10862 7.89372 8.51903 7.89372C8.92944 7.89372 9.26488 8.22916 9.26488 8.63957V13.35C9.26488 13.7604 8.92944 14.0958 8.51903 14.0958C8.10862 14.0958 7.77318 13.7604 7.77318 13.35V8.63957ZM11.2086 13.35L11.7153 8.63957C11.7596 8.22916 12.1312 7.89372 12.5416 7.89372C12.952 7.89372 13.2513 8.22916 13.2076 8.63957L12.7008 13.35C12.6565 13.7604 12.285 14.0958 11.8745 14.0958C11.4641 14.0958 11.1648 13.7604 11.2086 13.35ZM5.14929 2.77289L6.22511 1.69706C6.61035 1.31182 6.61035 0.68198 6.22511 0.296742C5.83987 -0.0884972 5.21003 -0.0884972 4.82479 0.296742L2.34864 2.77289H5.14929Z" fill="white"/>
</svg>
