<svg width="33" height="32" viewBox="0 0 33 32" fill="none" xmlns="http://www.w3.org/2000/svg">
<rect x="1.45312" y="0.5" width="31" height="31" rx="4.5" stroke="#D9D9D9"/>
<path d="M23.7516 12.2018C23.7516 11.7775 23.583 11.3706 23.2831 11.0705C22.983 10.7705 22.5761 10.6019 22.1517 10.6019H20.4985C20.3747 10.0001 20.0472 9.45928 19.5712 9.07074C19.0952 8.68207 18.4998 8.46957 17.8853 8.46875H16.8187C16.2042 8.46958 15.6088 8.68207 15.1329 9.07074C14.6569 9.45928 14.3294 10.0001 14.2056 10.6019H12.5523C12.0456 10.601 11.5686 10.8406 11.2669 11.2477C10.9652 11.6548 10.8747 12.181 11.0231 12.6655C11.1715 13.1499 11.5411 13.5353 12.019 13.7036V21.9292C12.0198 22.6022 12.2875 23.2476 12.7633 23.7235C13.2392 24.1993 13.8845 24.467 14.5576 24.4677H20.1465C20.8196 24.467 21.4649 24.1993 21.9408 23.7235C22.4166 23.2476 22.6843 22.6022 22.6851 21.9292V13.7036C22.9959 13.5936 23.2653 13.3904 23.4562 13.1216C23.6472 12.8527 23.7504 12.5315 23.7517 12.2018L23.7516 12.2018ZM16.8187 9.53535H17.8853C18.2151 9.53666 18.5362 9.63986 18.8052 9.8308C19.0739 10.0217 19.2771 10.2911 19.3872 10.602H15.317C15.427 10.2911 15.6302 10.0218 15.899 9.8308C16.1679 9.63986 16.4891 9.53666 16.8188 9.53535H16.8187ZM20.1465 23.4011H14.5575C14.1673 23.4006 13.7932 23.2455 13.5171 22.9696C13.2412 22.6935 13.0861 22.3194 13.0856 21.9292V13.8017H21.6184V21.9292C21.6179 22.3194 21.4628 22.6935 21.1869 22.9696C20.9108 23.2455 20.5367 23.4006 20.1464 23.4011H20.1465ZM22.1517 12.7351H12.5524C12.3618 12.7351 12.1857 12.6335 12.0905 12.4685C11.9953 12.3035 11.9953 12.1002 12.0905 11.9352C12.1857 11.7702 12.3618 11.6685 12.5524 11.6685H22.1517C22.3423 11.6685 22.5184 11.7702 22.6136 11.9352C22.7088 12.1002 22.7088 12.3035 22.6136 12.4685C22.5184 12.6335 22.3423 12.7351 22.1517 12.7351Z" fill="#FF0000"/>
<path d="M15.752 15.3984C15.6106 15.3984 15.4749 15.4546 15.3749 15.5546C15.2749 15.6546 15.2188 15.7903 15.2188 15.9317V21.2647C15.2188 21.4553 15.3204 21.6314 15.4854 21.7266C15.6504 21.8218 15.8537 21.8218 16.0187 21.7266C16.1837 21.6314 16.2853 21.4553 16.2853 21.2647V15.9317C16.2853 15.7903 16.2292 15.6546 16.1292 15.5546C16.0292 15.4546 15.8935 15.3984 15.752 15.3984Z" fill="#FF0000"/>
<path d="M18.9513 15.3984C18.8098 15.3984 18.6741 15.4546 18.5741 15.5546C18.4742 15.6546 18.418 15.7903 18.418 15.9317V21.2647C18.418 21.4553 18.5196 21.6314 18.6846 21.7266C18.8496 21.8218 19.0529 21.8218 19.2179 21.7266C19.3829 21.6314 19.4846 21.4553 19.4846 21.2647V15.9317C19.4846 15.7903 19.4284 15.6546 19.3284 15.5546C19.2284 15.4546 19.0927 15.3984 18.9513 15.3984Z" fill="#FF0000"/>
</svg>
