<svg width="13" height="17" viewBox="0 0 13 17" fill="none" xmlns="http://www.w3.org/2000/svg">
<path d="M12.7946 4.51434C12.7946 4.08995 12.626 3.68309 12.326 3.38298C12.0259 3.083 11.6191 2.91444 11.1947 2.91444H9.54145C9.41765 2.31258 9.09016 1.77178 8.61412 1.38324C8.13821 0.994569 7.54277 0.782073 6.92829 0.78125H5.8617C5.24721 0.782083 4.65178 0.994569 4.17586 1.38324C3.69983 1.77178 3.37235 2.31258 3.24854 2.91444H1.59531C1.08856 2.91349 0.611574 3.15312 0.30991 3.56022C0.00814571 3.96733 -0.082323 4.49349 0.0661167 4.97797C0.214441 5.46245 0.584056 5.8478 1.06201 6.0161V14.2417C1.06273 14.9147 1.33045 15.5601 1.80625 16.036C2.28217 16.5118 2.92749 16.7795 3.60054 16.7802H9.18951C9.86256 16.7795 10.5079 16.5118 10.9838 16.036C11.4596 15.5601 11.7273 14.9147 11.728 14.2417V6.0161C12.0388 5.90611 12.3082 5.70292 12.4992 5.43411C12.6901 5.1652 12.7933 4.84404 12.7946 4.51428L12.7946 4.51434ZM5.8617 1.84785H6.92829C7.25802 1.84916 7.57919 1.95236 7.84812 2.1433C8.11692 2.33424 8.32011 2.60361 8.43012 2.91445H4.35999C4.46998 2.60365 4.67317 2.33425 4.94199 2.1433C5.2109 1.95236 5.53206 1.84916 5.86182 1.84785H5.8617ZM9.18948 15.7136H3.60051C3.21029 15.7131 2.83616 15.558 2.56009 15.2821C2.28416 15.006 2.12904 14.6319 2.12858 14.2417V6.1142H10.6613V14.2417C10.6609 14.6319 10.5058 15.006 10.2298 15.2821C9.95378 15.558 9.57964 15.7131 9.18942 15.7136H9.18948ZM11.1947 5.04764H1.59534C1.40476 5.04764 1.22871 4.94598 1.13347 4.78099C1.03824 4.616 1.03824 4.41267 1.13347 4.24769C1.22871 4.0827 1.40477 3.98104 1.59534 3.98104H11.1947C11.3853 3.98104 11.5613 4.0827 11.6566 4.24769C11.7518 4.41268 11.7518 4.616 11.6566 4.78099C11.5613 4.94597 11.3853 5.04764 11.1947 5.04764Z" fill="#FF0000"/>
<path d="M4.79502 7.71094C4.6536 7.71094 4.51789 7.76713 4.4179 7.86712C4.31791 7.96711 4.26172 8.10282 4.26172 8.24424V13.5772C4.26172 13.7678 4.36338 13.9439 4.52837 14.0391C4.69336 14.1343 4.89668 14.1343 5.06167 14.0391C5.22665 13.9439 5.32832 13.7678 5.32832 13.5772V8.24424C5.32832 8.10282 5.27213 7.96711 5.17213 7.86712C5.07214 7.76713 4.93644 7.71094 4.79502 7.71094Z" fill="#FF0000"/>
<path d="M7.99424 7.71094C7.85282 7.71094 7.71711 7.76713 7.61712 7.86712C7.51713 7.96711 7.46094 8.10282 7.46094 8.24424V13.5772C7.46094 13.7678 7.5626 13.9439 7.72759 14.0391C7.89258 14.1343 8.0959 14.1343 8.26088 14.0391C8.42587 13.9439 8.52753 13.7678 8.52753 13.5772V8.24424C8.52753 8.10282 8.47135 7.96711 8.37135 7.86712C8.27136 7.76713 8.13565 7.71094 7.99424 7.71094Z" fill="#FF0000"/>
</svg>
