<svg width="16" height="11" viewBox="0 0 16 11" fill="none" xmlns="http://www.w3.org/2000/svg">
<path d="M7.58774 0.5C6.21071 0.5 3.43971 1.02337 0.362134 4.52608C0.126165 4.79566 -0.00390625 5.14174 -0.00390625 5.5C-0.00390625 5.85826 0.126165 6.20434 0.362134 6.47392C3.43971 9.97663 6.21071 10.5 7.58774 10.5C8.96478 10.5 11.7358 9.97663 14.8134 6.47392C15.0493 6.20434 15.1794 5.85826 15.1794 5.5C15.1794 5.14174 15.0493 4.79566 14.8134 4.52608C11.7358 1.02337 8.96478 0.5 7.58774 0.5ZM14.1765 5.92005C13.189 7.03794 10.5705 9.65312 7.58774 9.65312C4.60502 9.65312 1.98646 7.03794 0.998991 5.91497C0.898456 5.80011 0.84304 5.65265 0.84304 5.5C0.84304 5.34735 0.898456 5.19989 0.998991 5.08503C1.98646 3.96206 4.60502 1.34688 7.58774 1.34688C10.5705 1.34688 13.189 3.96206 14.1765 5.08503C14.277 5.19989 14.3324 5.34735 14.3324 5.5C14.3324 5.65265 14.277 5.80011 14.1765 5.91497V5.92005Z" fill="#232222"/>
<path d="M7.58858 2.29689C6.95617 2.30023 6.33892 2.49082 5.81472 2.8446C5.29051 3.19839 4.88284 3.69951 4.64314 4.28474C4.40345 4.86998 4.34246 5.5131 4.46789 6.13295C4.59331 6.75281 4.89953 7.32162 5.34789 7.76763C5.79626 8.21364 6.36669 8.51684 6.98719 8.639C7.6077 8.76115 8.25049 8.69678 8.83445 8.45399C9.41841 8.21121 9.91738 7.8009 10.2684 7.27484C10.6194 6.74877 10.8067 6.13052 10.8067 5.49811C10.8056 5.0766 10.7215 4.65945 10.5592 4.27045C10.3968 3.88146 10.1595 3.52825 9.86066 3.23099C9.56182 2.93373 9.20737 2.69824 8.81752 2.53797C8.42768 2.37769 8.01008 2.29577 7.58858 2.29689Z" fill="#014DC0"/>
</svg>
