<svg width="21" height="21" viewBox="0 0 21 21" fill="none" xmlns="http://www.w3.org/2000/svg">
<path d="M0.996094 10.9141C0.996094 5.66736 5.24939 1.41406 10.4961 1.41406C15.7428 1.41406 19.9961 5.66736 19.9961 10.9141C19.9961 16.1608 15.7428 20.4141 10.4961 20.4141C5.24939 20.4141 0.996094 16.1608 0.996094 10.9141Z" fill="white" stroke="#5A5A5A"/>
<path d="M9.98234 9.60166H11.0539C11.3121 9.60166 11.4671 9.71784 11.4671 9.97603C11.4671 10.1826 11.4413 10.4021 11.4026 10.6087C11.2605 11.3834 11.1185 12.1709 10.9765 12.9455C10.9249 13.2037 10.8732 13.4619 10.8474 13.7202C10.8345 13.8494 10.8474 13.9784 10.8861 14.0946C10.9248 14.2625 11.054 14.3528 11.2217 14.327C11.3638 14.3141 11.4929 14.2624 11.6349 14.2108C11.7382 14.1721 11.8415 14.0946 11.9448 14.0559C12.0997 13.9913 12.2417 14.1075 12.1901 14.2625C12.1643 14.3529 12.1127 14.4561 12.0352 14.5207C11.635 14.9209 11.1574 15.1662 10.5893 15.1662C10.3181 15.1662 10.0599 15.1662 9.7888 15.1275C9.34986 15.0629 8.79465 14.5207 8.87209 13.9526C8.92369 13.5524 8.98827 13.165 9.05284 12.7777C9.16901 12.0934 9.28518 11.4091 9.41434 10.7249C9.42722 10.6861 9.42722 10.6344 9.42722 10.5957C9.42722 10.3117 9.3368 10.2084 9.05285 10.1697C8.93667 10.1568 8.80752 10.1438 8.69135 10.1051C8.54932 10.0535 8.48475 9.95018 8.49772 9.83391C8.5106 9.71774 8.58814 9.64029 8.74305 9.61444C8.8205 9.60156 8.91092 9.60156 8.98838 9.60156C9.31106 9.60165 9.64672 9.60165 9.98235 9.60165L9.98234 9.60166Z" fill="#014DC0"/>
<path d="M10.6131 6.91406C11.2199 6.91406 11.6976 7.4047 11.6976 8.02439C11.6976 8.6312 11.2069 9.12186 10.6131 9.12186C10.0063 9.12186 9.51562 8.61834 9.51562 8.01153C9.51562 7.40472 10.0063 6.91406 10.6131 6.91406Z" fill="#014DC0"/>
</svg>
