<svg width="12" height="11" viewBox="0 0 12 11" fill="none" xmlns="http://www.w3.org/2000/svg">
<path d="M0.849733 0.429688C0.378281 0.429688 -0.00390625 0.811876 -0.00390625 1.28333C-0.00390625 1.75478 0.378281 2.13697 0.849734 2.13697H10.8498C11.3213 2.13697 11.7035 1.75478 11.7035 1.28333C11.7035 0.811876 11.3213 0.429688 10.8498 0.429688H0.849733ZM-0.00390625 5.42966C-0.00390625 5.90115 0.378316 6.28337 0.84981 6.28337H7.19126C7.66272 6.28337 8.04491 5.90118 8.04491 5.42972C8.04491 4.95827 7.66273 4.57608 7.19128 4.57607L0.849828 4.57594C0.378326 4.57593 -0.00390625 4.95815 -0.00390625 5.42966ZM-0.00390625 9.57605C-0.00390625 10.0475 0.378282 10.4297 0.849735 10.4297H3.04499C3.51645 10.4297 3.89864 10.0475 3.89864 9.57605C3.89864 9.10459 3.51645 8.72241 3.04499 8.72241H0.849735C0.378282 8.72241 -0.00390625 9.10459 -0.00390625 9.57605Z" fill="#014DC0"/>
</svg>
