<svg width="71" height="90" viewBox="0 0 71 90" fill="none" xmlns="http://www.w3.org/2000/svg">
<path d="M50 0H6C2.69 0 0 2.69 0 6V68C0 71.31 2.69 74 6 74H21V86H6C4.9 86 4 86.9 4 88C4 89.1 4.9 90 6 90H23H33H50C51.1 90 52 89.1 52 88C52 86.9 51.1 86 50 86H35V74H50C53.31 74 56 71.31 56 68V6C56 2.69 53.31 0 50 0ZM31 86H25V74H31V86ZM52 68C52 69.1 51.1 70 50 70H33H23H6C4.9 70 4 69.1 4 68V6C4 4.9 4.9 4 6 4H50C51.1 4 52 4.9 52 6V68ZM44 12H12C10.9 12 10 12.9 10 14V30C10 31.1 10.9 32 12 32H44C45.1 32 46 31.1 46 30V14C46 12.9 45.1 12 44 12ZM42 28H14V16H42V28ZM46 40C46 41.1 45.1 42 44 42H12C10.9 42 10 41.1 10 40C10 38.9 10.9 38 12 38H44C45.1 38 46 38.9 46 40ZM46 50C46 51.1 45.1 52 44 52H12C10.9 52 10 51.1 10 50C10 48.9 10.9 48 12 48H44C45.1 48 46 48.9 46 50ZM46 60C46 61.1 45.1 62 44 62H12C10.9 62 10 61.1 10 60C10 58.9 10.9 58 12 58H44C45.1 58 46 58.9 46 60Z" fill="#D9D9D9"/>
<circle cx="17" cy="17" r="17" transform="matrix(-1 0 0 1 71 45)" fill="#FBFBFB"/>
<path fill-rule="evenodd" clip-rule="evenodd" d="M54 52.9245C58.8705 52.9245 62.9481 56.9173 62.9481 62C62.9481 67.0827 58.8705 71.0755 54 71.0755C49.1295 71.0755 45.0519 67.0827 45.0519 62C45.0519 56.9173 49.1295 52.9245 54 52.9245ZM67 62C67 54.8908 61.2511 49 54 49C46.7489 49 41 54.8908 41 62C41 69.1092 46.7489 75 54 75C61.2511 75 67 69.1092 67 62Z" fill="#D9D9D9"/>
<path fill-rule="evenodd" clip-rule="evenodd" d="M61.1957 54.7597C60.3898 54.008 59.1072 54.0315 58.3311 54.8121L46.7476 66.4628C45.9715 67.2435 45.9957 68.4857 46.8017 69.2374C47.6076 69.9891 48.8902 69.9657 49.6663 69.185L61.2498 57.5343C62.0259 56.7537 62.0017 55.5115 61.1957 54.7597Z" fill="#D9D9D9"/>
</svg>
