<svg width="25" height="25" viewBox="0 0 25 25" fill="none" xmlns="http://www.w3.org/2000/svg">
<path d="M6.75 13.6799L6.75 13.6784C6.74943 13.5797 6.76834 13.4819 6.80567 13.3905C6.84294 13.2992 6.89782 13.2162 6.96719 13.1462C6.96729 13.1461 6.96739 13.146 6.9675 13.1459L13.9066 6.21677L13.9071 6.21632L16.7271 3.38632L16.7275 3.38591C16.7972 3.31562 16.8802 3.25982 16.9716 3.22174C17.063 3.18367 17.161 3.16406 17.26 3.16406C17.359 3.16406 17.457 3.18367 17.5484 3.22174C17.6398 3.2598 17.7227 3.31556 17.7924 3.3858C17.7924 3.38584 17.7925 3.38588 17.7925 3.38591L22.0322 7.67561L22.0339 7.67736C22.1042 7.74709 22.16 7.83004 22.1981 7.92143C22.2362 8.01282 22.2558 8.11085 22.2558 8.20986C22.2558 8.30887 22.2362 8.4069 22.1981 8.49829C22.1601 8.58946 22.1045 8.67223 22.0345 8.74185C22.0343 8.74202 22.0341 8.74219 22.0339 8.74236L19.1951 11.5212L19.1951 11.5212L19.1931 11.5232L12.2739 18.4524C12.2738 18.4525 12.2736 18.4527 12.2735 18.4528C12.2035 18.5221 12.1205 18.577 12.0294 18.6142C11.938 18.6515 11.8402 18.6704 11.7414 18.6699H11.74H7.5C7.30109 18.6699 7.11032 18.5908 6.96967 18.4502C6.82902 18.3095 6.75 18.1188 6.75 17.9199L6.75 13.6799ZM7.5 18.9199H11.74L6.79 12.9699C6.69732 13.0633 6.62399 13.1741 6.57423 13.296C6.52446 13.4178 6.49924 13.5483 6.5 13.6799V17.9199C6.5 18.1851 6.60536 18.4394 6.79289 18.627C6.98043 18.8145 7.23478 18.9199 7.5 18.9199ZM17.4368 5.15308L17.26 4.97631L17.0832 5.15308L15.6632 6.57308L15.4864 6.74986L15.6632 6.92664L18.4932 9.75664L18.67 9.93341L18.8468 9.75664L20.2668 8.33664L20.4436 8.15986L20.2668 7.98308L17.4368 5.15308ZM8.32322 13.9131L8.25 13.9863V14.0899V16.9199V17.1699H8.5H11.33H11.4336L11.5068 17.0966L17.4368 11.1666L17.6136 10.9899L17.4368 10.8131L14.6068 7.98308L14.43 7.80631L14.2532 7.98308L8.32322 13.9131ZM20.9697 13.3895C21.1103 13.2489 21.3011 13.1699 21.5 13.1699C21.6989 13.1699 21.8897 13.2489 22.0303 13.3895C22.171 13.5302 22.25 13.7209 22.25 13.9199V19.9199C22.25 20.6492 21.9603 21.3487 21.4445 21.8644C20.9288 22.3801 20.2293 22.6699 19.5 22.6699H5.5C4.77065 22.6699 4.07118 22.3801 3.55546 21.8644C3.03973 21.3487 2.75 20.6492 2.75 19.9199V5.91986C2.75 5.19052 3.03973 4.49104 3.55546 3.97532C4.07118 3.45959 4.77065 3.16986 5.5 3.16986H11.5C11.6989 3.16986 11.8897 3.24888 12.0303 3.38953C12.171 3.53018 12.25 3.72095 12.25 3.91986C12.25 4.11877 12.171 4.30954 12.0303 4.45019C11.8897 4.59084 11.6989 4.66986 11.5 4.66986H5.5C5.16848 4.66986 4.85054 4.80156 4.61612 5.03598C4.3817 5.2704 4.25 5.58834 4.25 5.91986V19.9199C4.25 20.2514 4.3817 20.5693 4.61612 20.8037C4.85054 21.0382 5.16848 21.1699 5.5 21.1699H19.5C19.8315 21.1699 20.1495 21.0382 20.3839 20.8037C20.6183 20.5693 20.75 20.2514 20.75 19.9199V13.9199C20.75 13.7209 20.829 13.5302 20.9697 13.3895Z" fill="black" stroke="white" stroke-width="0.5"/>
<path d="M6.75002 13.6799L6.75001 13.6784C6.74944 13.5797 6.76836 13.4819 6.80568 13.3905C6.84295 13.2993 6.89783 13.2163 6.96718 13.1462C6.96729 13.1461 6.9674 13.146 6.96751 13.1459L13.9067 6.21677L13.9071 6.21632L16.7271 3.38632L16.7275 3.38591C16.7972 3.31562 16.8802 3.25982 16.9716 3.22174C17.063 3.18367 17.161 3.16406 17.26 3.16406C17.359 3.16406 17.4571 3.18367 17.5485 3.22174C17.6398 3.2598 17.7227 3.31556 17.7924 3.3858C17.7924 3.38584 17.7925 3.38588 17.7925 3.38591L22.0322 7.6756L22.0322 7.67561L22.034 7.67736C22.1043 7.74708 22.1601 7.83004 22.1981 7.92143C22.2362 8.01282 22.2558 8.11085 22.2558 8.20986C22.2558 8.30887 22.2362 8.4069 22.1981 8.49829C22.1602 8.58946 22.1045 8.67223 22.0345 8.74185C22.0343 8.74202 22.0341 8.74219 22.034 8.74236L19.1951 11.5212L19.1951 11.5212L19.1931 11.5232L12.274 18.4524C12.2738 18.4525 12.2737 18.4527 12.2735 18.4528C12.2035 18.5221 12.1206 18.5769 12.0294 18.6142C11.938 18.6515 11.8402 18.6704 11.7415 18.6699H11.74H7.50002C7.3011 18.6699 7.11034 18.5908 6.96969 18.4502C6.82903 18.3095 6.75002 18.1188 6.75002 17.9199L6.75002 13.6799ZM17.4368 5.15308L17.26 4.97631L17.0832 5.15308L15.6632 6.57308L15.4865 6.74986L15.6632 6.92664L18.4932 9.75664L18.67 9.93341L18.8468 9.75664L20.2668 8.33664L20.4436 8.15986L20.2668 7.98308L17.4368 5.15308ZM8.32324 13.9131L8.25002 13.9863V14.0899V16.9199V17.1699H8.50002H11.33H11.4336L11.5068 17.0966L17.4368 11.1666L17.6136 10.9899L17.4368 10.8131L14.6068 7.98308L14.43 7.80631L14.2532 7.98308L8.32324 13.9131Z" fill="#014DC0" stroke="white" stroke-width="0.5"/>
</svg>
