<svg width="23" height="23" viewBox="0 0 23 23" fill="none" xmlns="http://www.w3.org/2000/svg">
<path fill-rule="evenodd" clip-rule="evenodd" d="M6.42969 0.9375C6.42969 0.66136 6.20583 0.4375 5.92969 0.4375C5.65355 0.4375 5.42969 0.66136 5.42969 0.9375V2.4375H3.42969C1.77284 2.4375 0.429688 3.78065 0.429688 5.4375V19.4375C0.429688 21.0944 1.77284 22.4375 3.42969 22.4375H19.4297C21.0866 22.4375 22.4297 21.0944 22.4297 19.4375V5.4375C22.4297 3.78065 21.0866 2.4375 19.4297 2.4375H17.4297V0.9375C17.4297 0.66136 17.2058 0.4375 16.9297 0.4375C16.6536 0.4375 16.4297 0.66136 16.4297 0.9375V2.4375H6.42969V0.9375ZM19.4297 3.4375C20.5343 3.4375 21.4297 4.33293 21.4297 5.4375V7.4375H1.42969V5.4375C1.42969 4.33293 2.32512 3.4375 3.42969 3.4375H19.4297ZM1.42969 8.4375V19.4375C1.42969 20.5421 2.32512 21.4375 3.42969 21.4375H19.4297C20.5343 21.4375 21.4297 20.5421 21.4297 19.4375V8.4375H1.42969Z" fill="white"/>
</svg>
