<svg width="20" height="13" viewBox="0 0 20 13" fill="none" xmlns="http://www.w3.org/2000/svg">
<path d="M19.0252 0.570312C18.6388 0.365767 18.1843 0.388494 17.8207 0.615767L14.0707 3.00213V2.66122C14.0707 1.2294 12.9116 0.0703125 11.4798 0.0703125H3.29794C1.86612 0.0703125 0.707031 1.2294 0.707031 2.66122V9.4794C0.707031 10.9112 1.86612 12.0703 3.29794 12.0703H11.4798C12.9116 12.0703 14.0707 10.9112 14.0707 9.4794V9.16122L17.7979 11.5249C18.0025 11.6612 18.207 11.7067 18.4343 11.7067C18.6388 11.7067 18.8434 11.6612 19.0025 11.5703C19.4116 11.3658 19.6388 10.9339 19.6388 10.5021V1.63849C19.6616 1.18395 19.4116 0.774858 19.0252 0.570312ZM18.6616 10.4794C18.6616 10.5703 18.6161 10.6385 18.5252 10.6839C18.457 10.7294 18.3888 10.7067 18.3207 10.6839L14.0479 7.9794V4.18395L18.3207 1.43395C18.3888 1.38849 18.457 1.38849 18.5252 1.43395C18.5934 1.4794 18.6388 1.54759 18.6388 1.63849L18.6616 10.4794ZM13.0934 2.66122V9.4794C13.0934 10.3658 12.3661 11.093 11.4798 11.093H3.29794C2.41158 11.093 1.6843 10.3658 1.6843 9.4794V2.66122C1.6843 1.77486 2.41158 1.04759 3.29794 1.04759H11.4798C12.3661 1.07031 13.0934 1.79759 13.0934 2.66122Z" fill="#014DC0"/>
</svg>
