<svg width="16" height="11" viewBox="0 0 16 11" fill="none" xmlns="http://www.w3.org/2000/svg">
<path d="M7.58774 0.929688C6.21071 0.929688 3.43971 1.45306 0.362134 4.95577C0.126165 5.22535 -0.00390625 5.57143 -0.00390625 5.92969C-0.00390625 6.28795 0.126165 6.63403 0.362134 6.9036C3.43971 10.4063 6.21071 10.9297 7.58774 10.9297C8.96478 10.9297 11.7358 10.4063 14.8134 6.9036C15.0493 6.63403 15.1794 6.28795 15.1794 5.92969C15.1794 5.57143 15.0493 5.22535 14.8134 4.95577C11.7358 1.45306 8.96478 0.929688 7.58774 0.929688ZM14.1765 6.34974C13.189 7.46763 10.5705 10.0828 7.58774 10.0828C4.60502 10.0828 1.98646 7.46763 0.998991 6.34466C0.898456 6.22979 0.84304 6.08234 0.84304 5.92969C0.84304 5.77704 0.898456 5.62958 0.998991 5.51471C1.98646 4.39175 4.60502 1.77657 7.58774 1.77657C10.5705 1.77657 13.189 4.39175 14.1765 5.51471C14.277 5.62958 14.3324 5.77704 14.3324 5.92969C14.3324 6.08234 14.277 6.22979 14.1765 6.34466V6.34974Z" fill="black"/>
<path d="M7.58663 2.72657C6.95422 2.72992 6.33697 2.92051 5.81276 3.27429C5.28856 3.62807 4.88089 4.1292 4.64119 4.71443C4.40149 5.29966 4.34051 5.94278 4.46593 6.56264C4.59136 7.18249 4.89758 7.75131 5.34594 8.19732C5.79431 8.64332 6.36473 8.94653 6.98524 9.06869C7.60575 9.19084 8.24854 9.12646 8.8325 8.88368C9.41646 8.6409 9.91542 8.23059 10.2664 7.70452C10.6174 7.17846 10.8048 6.56021 10.8048 5.92779C10.8037 5.50629 10.7196 5.08913 10.5572 4.70014C10.3949 4.31115 10.1575 3.95794 9.8587 3.66068C9.55987 3.36342 9.20541 3.12793 8.81557 2.96765C8.42572 2.80738 8.00813 2.72546 7.58663 2.72657Z" fill="#014DC0"/>
</svg>
