<svg width="92" height="12" viewBox="0 0 92 12" fill="none" xmlns="http://www.w3.org/2000/svg">
<path d="M4.47642 11.0764V6.07784L0.906701 0.935058C0.800369 0.758825 0.830749 0.502487 0.982652 0.390339C1.14975 0.246149 1.39279 0.278191 1.49912 0.454423L4.8258 5.27678L8.16767 0.454423C8.274 0.278191 8.51704 0.246149 8.68413 0.390339C8.85123 0.502487 8.88161 0.758825 8.76009 0.935058L5.20556 6.0458V11.0764C5.20556 11.2847 5.05365 11.4609 4.84099 11.4609C4.64351 11.4609 4.47642 11.2847 4.47642 11.0764Z" fill="white"/>
<path d="M9.35168 5.77344C9.36687 2.6333 11.615 0.0859375 14.486 0.0859375C17.3266 0.0859375 19.5596 2.6333 19.5747 5.77344C19.5596 8.91358 17.3266 11.4609 14.486 11.4609C11.615 11.4609 9.36687 8.91358 9.35168 5.77344ZM10.096 5.77344C10.096 8.51305 12.0707 10.6759 14.486 10.6759C16.8253 10.6759 18.8 8.51305 18.8152 5.77344C18.8 3.00178 16.8253 0.886994 14.486 0.886994C12.0707 0.886994 10.096 3.00178 10.096 5.77344Z" fill="white"/>
<path d="M22.0612 6.92696V0.630655C22.0612 0.422382 22.2283 0.246149 22.4258 0.246149C22.6384 0.246149 22.8055 0.422382 22.8055 0.630655V6.92696C22.8055 8.99368 24.4005 10.6599 26.3449 10.6759C28.3196 10.6599 29.9146 8.99368 29.9146 6.92696V0.630655C29.9146 0.422382 30.0817 0.246149 30.2792 0.246149C30.4918 0.246149 30.6589 0.422382 30.6589 0.630655V6.92696C30.6589 9.42625 28.7298 11.4609 26.3449 11.4609C23.9904 11.4609 22.0612 9.42625 22.0612 6.92696Z" fill="white"/>
<path d="M39.607 10.772C39.4247 10.4035 39.3183 9.87485 39.3183 8.9296C39.3183 8.11252 38.9234 7.59984 38.4525 7.23136C37.9816 6.87889 37.4196 6.70266 37.2221 6.67062C37.1765 6.6546 37.1613 6.63858 37.1461 6.63858H34.5638V11.0764C34.5638 11.2847 34.3967 11.4609 34.184 11.4609C33.9865 11.4609 33.8195 11.2847 33.8195 11.0764V0.630655C33.8195 0.438402 33.9714 0.26217 34.1536 0.246149H37.1917C38.8626 0.246149 40.2146 1.67203 40.2146 3.45037C40.2146 4.73206 39.5006 5.83752 38.4677 6.3502C38.5133 6.38224 38.5588 6.39826 38.6196 6.4303C39.3183 6.84685 40.0475 7.66393 40.0475 8.9296C40.0475 9.58646 40.1082 9.98699 40.1842 10.2273C40.245 10.4196 40.3209 10.4836 40.3361 10.4997C40.5032 10.4836 40.6855 10.5798 40.7462 10.756C40.7918 10.9643 40.7007 11.1886 40.5032 11.2687C40.488 11.2687 40.412 11.2847 40.3209 11.2847H40.2905C40.093 11.2847 39.7741 11.1245 39.607 10.772ZM39.4854 3.45037C39.4854 2.1046 38.4525 1.03118 37.1917 1.03118H34.5638V5.86956H37.2525C38.4829 5.83752 39.4854 4.76411 39.4854 3.45037Z" fill="white"/>
<path d="M53.9133 11.4609H48.4447C48.2473 11.4609 48.0802 11.2847 48.0802 11.0764V0.630655C48.0802 0.422382 48.2473 0.246149 48.4447 0.246149C48.6574 0.246149 48.8245 0.422382 48.8245 0.630655V10.6759H53.9133C54.1259 10.6759 54.293 10.8521 54.293 11.0764C54.293 11.2847 54.1259 11.4609 53.9133 11.4609Z" fill="white"/>
<path d="M55.5605 5.77344C55.5756 2.6333 57.8238 0.0859375 60.6948 0.0859375C63.5354 0.0859375 65.7683 2.6333 65.7835 5.77344C65.7683 8.91358 63.5354 11.4609 60.6948 11.4609C57.8238 11.4609 55.5756 8.91358 55.5605 5.77344ZM56.3048 5.77344C56.3048 8.51305 58.2795 10.6759 60.6948 10.6759C63.0341 10.6759 65.0088 8.51305 65.024 5.77344C65.0088 3.00178 63.0341 0.886994 60.6948 0.886994C58.2795 0.886994 56.3048 3.00178 56.3048 5.77344Z" fill="white"/>
<path d="M76.8058 6.41428H73.9044C73.6917 6.41428 73.5246 6.25407 73.5246 6.02978C73.5246 5.80548 73.6917 5.62925 73.9044 5.62925H77.2311C77.4134 5.64527 77.5653 5.8215 77.5653 6.02978V9.93893C77.5501 10.0511 77.5045 10.1632 77.4286 10.2273C76.4868 11.0123 75.3019 11.4609 73.9955 11.4609C70.9423 11.4449 68.4663 8.9296 68.4663 5.75742C68.4663 2.6333 70.9423 0.0859375 73.9955 0.0859375C75.3171 0.0859375 76.4868 0.566572 77.4437 1.35161C77.5805 1.46375 77.626 1.73611 77.4893 1.89633C77.3678 2.05654 77.1399 2.08858 76.9576 1.96041C76.1829 1.28752 75.1348 0.870973 73.9955 0.870973C71.3372 0.870973 69.2106 3.06587 69.2106 5.75742C69.2106 8.48101 71.3372 10.6759 73.9955 10.6759C75.0285 10.6759 76.0159 10.3234 76.8058 9.71463V6.41428Z" fill="white"/>
<path d="M80.8381 5.77344C80.8533 2.6333 83.1014 0.0859375 85.9724 0.0859375C88.813 0.0859375 91.046 2.6333 91.0611 5.77344C91.046 8.91358 88.813 11.4609 85.9724 11.4609C83.1014 11.4609 80.8533 8.91358 80.8381 5.77344ZM81.5824 5.77344C81.5824 8.51305 83.5571 10.6759 85.9724 10.6759C88.3117 10.6759 90.2864 8.51305 90.3016 5.77344C90.2864 3.00178 88.3117 0.886994 85.9724 0.886994C83.5571 0.886994 81.5824 3.00178 81.5824 5.77344Z" fill="white"/>
</svg>
