<svg width="25" height="24" viewBox="0 0 25 24" fill="none" xmlns="http://www.w3.org/2000/svg">
<path d="M9.10742 22H15.1074C20.1074 22 22.1074 20 22.1074 15V9C22.1074 4 20.1074 2 15.1074 2H9.10742C4.10742 2 2.10742 4 2.10742 9V15C2.10742 20 4.10742 22 9.10742 22Z" stroke="#60C99F" stroke-width="1.5" stroke-linecap="round" stroke-linejoin="round"/>
<path d="M15.6777 18.4996V14.5996" stroke="#60C99F" stroke-width="1.5" stroke-miterlimit="10" stroke-linecap="round" stroke-linejoin="round"/>
<path d="M15.6777 7.45V5.5" stroke="#60C99F" stroke-width="1.5" stroke-miterlimit="10" stroke-linecap="round" stroke-linejoin="round"/>
<path d="M15.6771 12.6502C17.1131 12.6502 18.2771 11.4861 18.2771 10.0502C18.2771 8.61426 17.1131 7.4502 15.6771 7.4502C14.2412 7.4502 13.0771 8.61426 13.0771 10.0502C13.0771 11.4861 14.2412 12.6502 15.6771 12.6502Z" stroke="#60C99F" stroke-width="1.5" stroke-miterlimit="10" stroke-linecap="round" stroke-linejoin="round"/>
<path d="M8.53711 18.4998V16.5498" stroke="#60C99F" stroke-width="1.5" stroke-miterlimit="10" stroke-linecap="round" stroke-linejoin="round"/>
<path d="M8.53711 9.4V5.5" stroke="#60C99F" stroke-width="1.5" stroke-miterlimit="10" stroke-linecap="round" stroke-linejoin="round"/>
<path d="M8.5375 16.5496C9.97344 16.5496 11.1375 15.3855 11.1375 13.9496C11.1375 12.5137 9.97344 11.3496 8.5375 11.3496C7.10156 11.3496 5.9375 12.5137 5.9375 13.9496C5.9375 15.3855 7.10156 16.5496 8.5375 16.5496Z" stroke="#60C99F" stroke-width="1.5" stroke-miterlimit="10" stroke-linecap="round" stroke-linejoin="round"/>
</svg>
