<svg width="24" height="24" viewBox="0 0 24 24" fill="none" xmlns="http://www.w3.org/2000/svg">
<path d="M9 22H15C20 22 22 20 22 15V9C22 4 20 2 15 2H9C4 2 2 4 2 9V15C2 20 4 22 9 22Z" stroke="white" stroke-width="1.5" stroke-linecap="round" stroke-linejoin="round"/>
<path d="M11.868 14.5308C11.9203 14.6483 11.9464 14.7527 11.9464 14.8441C11.9464 15.0268 11.8713 15.1835 11.7212 15.314C11.5776 15.438 11.4112 15.5 11.2219 15.5C11.0979 15.5 10.9804 15.4674 10.8694 15.4021C10.7585 15.3303 10.6736 15.2259 10.6149 15.0888L10.096 13.9336H6.77713L6.25825 15.0888C6.19951 15.2259 6.11466 15.3303 6.00371 15.4021C5.89928 15.4674 5.78179 15.5 5.65126 15.5C5.46198 15.5 5.29228 15.438 5.14217 15.314C4.99205 15.1835 4.91699 15.0268 4.91699 14.8441C4.91699 14.7527 4.9431 14.6483 4.99531 14.5308L7.63867 8.97972C7.71047 8.82308 7.81816 8.70559 7.96175 8.62727C8.10534 8.54242 8.25872 8.5 8.42189 8.5C8.59158 8.5 8.74823 8.54242 8.89182 8.62727C9.03541 8.71212 9.14636 8.8296 9.22468 8.97972L11.868 14.5308ZM7.29601 12.7783H9.57713L8.44147 10.2329L7.29601 12.7783Z" fill="white"/>
<path d="M13.5028 15.4608C13.2743 15.4608 13.0981 15.3988 12.9741 15.2748C12.8501 15.1508 12.7881 14.9746 12.7881 14.7462V9.27343C12.7881 9.04499 12.8501 8.86876 12.9741 8.74475C13.0981 8.62075 13.2743 8.55874 13.5028 8.55874H15.4706C16.2212 8.55874 16.8673 8.6958 17.4091 8.96993C17.9508 9.24406 18.3652 9.63893 18.6524 10.1545C18.9396 10.6702 19.0832 11.2869 19.0832 12.0049C19.0832 12.7228 18.9396 13.3429 18.6524 13.865C18.3718 14.3807 17.9606 14.7755 17.4189 15.0497C16.8771 15.3238 16.2277 15.4608 15.4706 15.4608H13.5028ZM15.3629 14.2273C16.8314 14.2273 17.5657 13.4865 17.5657 12.0049C17.5657 10.5298 16.8314 9.79231 15.3629 9.79231H14.3154V14.2273H15.3629Z" fill="white"/>
</svg>
