<!-- icon666.com - MILLIONS vector ICONS FREE --><svg xmlns="http://www.w3.org/2000/svg" id="Outline" viewBox="0 0 512 512"><path d="M456,192H336V104a40.045,40.045,0,0,0-40-40H56a40.045,40.045,0,0,0-40,40V232a40.045,40.045,0,0,0,40,40H83.52c6.653,12.016,5.928,23.41-2.176,35.562a8,8,0,0,0,7.971,12.329,87.147,87.147,0,0,0,26.716-9.981c15.71-9.164,25.061-22.163,27.392-37.91H176v88a40.045,40.045,0,0,0,40,40H368.577c2.331,15.747,11.682,28.746,27.392,37.91a87.147,87.147,0,0,0,26.716,9.981,8,8,0,0,0,7.971-12.329c-8.1-12.152-8.829-23.546-2.176-35.562H456a40.045,40.045,0,0,0,40-40V232A40.045,40.045,0,0,0,456,192ZM136,256a8,8,0,0,0-8,8c0,13.413-6.617,24.137-19.667,31.876a63.484,63.484,0,0,1-5.71,2.993c3.244-13.143.588-26.478-7.967-39.307A8,8,0,0,0,88,256H56a24.027,24.027,0,0,1-24-24V104A24.027,24.027,0,0,1,56,80H296a24.027,24.027,0,0,1,24,24V232a24.027,24.027,0,0,1-24,24ZM480,360a24.027,24.027,0,0,1-24,24H424a8,8,0,0,0-6.656,3.562c-8.555,12.829-11.211,26.164-7.967,39.307a63.336,63.336,0,0,1-5.709-2.993C390.617,416.137,384,405.413,384,392a8,8,0,0,0-8-8H216a24.027,24.027,0,0,1-24-24V272H296a39.965,39.965,0,0,0,31.979-16H440a8,8,0,0,0,0-16H335.2a40.028,40.028,0,0,0,.805-8V208H456a24.027,24.027,0,0,1,24,24Z"></path><path d="M440,288H232a8,8,0,0,0,0,16H440a8,8,0,0,0,0-16Z"></path><path d="M408,336H232a8,8,0,0,0,0,16H408a8,8,0,0,0,0-16Z"></path><circle cx="440" cy="344" r="8"></circle><path d="M80,144h24a8,8,0,0,0,0-16H80a24.028,24.028,0,0,0-24,24v48a8,8,0,0,0,16,0V176h32a8,8,0,0,0,0-16H72v-8A8.009,8.009,0,0,1,80,144Z"></path><path d="M168,128H152a24.028,24.028,0,0,0-24,24v48a8,8,0,0,0,16,0V176h32v24a8,8,0,0,0,16,0V152A24.028,24.028,0,0,0,168,128Zm-24,32v-8a8.009,8.009,0,0,1,8-8h16a8.009,8.009,0,0,1,8,8v8Z"></path><path d="M293.657,194.343,272,172.686V152a24.028,24.028,0,0,0-24-24H232a24.028,24.028,0,0,0-24,24v32a24.028,24.028,0,0,0,24,24h16a24.035,24.035,0,0,0,22.082-14.6l12.261,12.261a8,8,0,1,0,11.314-11.314ZM248,192H232a8.009,8.009,0,0,1-8-8V152a8.009,8.009,0,0,1,8-8h16a8.009,8.009,0,0,1,8,8v16h-8a8,8,0,0,0,0,16h8A8.009,8.009,0,0,1,248,192Z"></path></svg>