<svg width="20" height="21" viewBox="0 0 20 21" fill="none" xmlns="http://www.w3.org/2000/svg">
<path d="M4.50004 2.25H15.5C16.4167 2.25 17.1667 3 17.1667 3.91667V5.75C17.1667 6.41667 16.75 7.25 16.3334 7.66667L12.75 10.8333C12.25 11.25 11.9167 12.0833 11.9167 12.75V16.3333C11.9167 16.8333 11.5834 17.5 11.1667 17.75L10 18.5C8.91671 19.1667 7.41671 18.4167 7.41671 17.0833V12.6667C7.41671 12.0833 7.08337 11.3333 6.75004 10.9167L3.58337 7.58333C3.16671 7.16667 2.83337 6.41667 2.83337 5.91667V4C2.83337 3 3.58337 2.25 4.50004 2.25Z" stroke="#3d3d3d" stroke-width="1.5" stroke-miterlimit="10" stroke-linecap="round" stroke-linejoin="round"/>
</svg>
