<?xml version="1.0" standalone="no"?>
<!DOCTYPE svg PUBLIC "-//W3C//DTD SVG 20010904//EN"
 "http://www.w3.org/TR/2001/REC-SVG-20010904/DTD/svg10.dtd">
<svg version="1.0" xmlns="http://www.w3.org/2000/svg"
 width="50.000000pt" height="50.000000pt" viewBox="0 0 50.000000 50.000000"
 preserveAspectRatio="xMidYMid meet">

<g transform="translate(0.000000,50.000000) scale(0.100000,-0.100000)"
fill="#000000" stroke="none">
<path d="M50 270 c0 -223 1 -230 20 -230 13 0 20 -7 20 -20 0 -19 7 -20 180
-20 l180 0 0 230 c0 223 -1 230 -20 230 -13 0 -20 7 -20 20 0 19 -7 20 -180
20 l-180 0 0 -230z m340 0 l0 -210 -160 0 -160 0 0 210 0 210 160 0 160 0 0
-210z m40 -40 l0 -210 -160 0 c-100 0 -160 4 -160 10 0 6 57 10 150 10 l150 0
0 200 c0 127 4 200 10 200 6 0 10 -77 10 -210z"/>
<path d="M182 378 c-15 -15 -16 -48 -1 -48 6 0 18 9 27 21 11 13 23 18 34 14
28 -11 30 -36 4 -74 -28 -41 -36 -72 -20 -78 6 -2 26 25 44 61 32 62 33 65 16
90 -13 20 -25 26 -54 26 -21 0 -43 -5 -50 -12z"/>
<path d="M210 165 c0 -8 9 -15 20 -15 11 0 20 7 20 15 0 8 -9 15 -20 15 -11 0
-20 -7 -20 -15z"/>
</g>
</svg>
