<svg width="22" height="22" viewBox="0 0 22 22" fill="none" xmlns="http://www.w3.org/2000/svg">
<path d="M11 6.23303V9.08732" stroke="#6B7280" stroke-width="1.5" stroke-miterlimit="10" stroke-linecap="round"/>
<path d="M11.0181 2.42761C7.86386 2.42761 5.30957 4.9819 5.30957 8.13618V9.93618C5.30957 10.519 5.06957 11.3933 4.76957 11.8905L3.681 13.7076C3.01243 14.8305 3.47529 16.0819 4.70957 16.4933C8.80672 17.8562 13.2381 17.8562 17.3353 16.4933C18.4924 16.1076 18.9896 14.7533 18.3639 13.7076L17.2753 11.8905C16.9753 11.3933 16.7353 10.5105 16.7353 9.93618V8.13618C16.7267 4.99904 14.1553 2.42761 11.0181 2.42761Z" stroke="#6B7280" stroke-width="1.5" stroke-miterlimit="10" stroke-linecap="round"/>
<path d="M13.853 16.8459C13.853 18.4145 12.5673 19.7002 10.9988 19.7002C10.2188 19.7002 9.49876 19.3745 8.98447 18.8602C8.47018 18.3459 8.14447 17.6259 8.14447 16.8459" stroke="#6B7280" stroke-width="1.5" stroke-miterlimit="10"/>
</svg>
