<svg width="24" height="24" viewBox="0 0 24 24" fill="none" xmlns="http://www.w3.org/2000/svg">
<path d="M3.73005 19.455L3.38955 20.1233H3.38955L3.73005 19.455ZM1 12H1.75H1ZM1.54497 17.2699L0.876712 17.6104H0.876713L1.54497 17.2699ZM22.455 17.2699L21.7868 16.9294V16.9294L22.455 17.2699ZM20.27 19.455L19.9295 18.7868L20.27 19.455ZM20.2699 4.54497L19.9294 5.21322L20.2699 4.54497ZM22.455 6.73005L21.7867 7.07054V7.07054L22.455 6.73005ZM3.73 4.54497L4.07049 5.21322L4.07049 5.21322L3.73 4.54497ZM1.54492 6.73005L2.21318 7.07054L2.21318 7.07054L1.54492 6.73005ZM11.1482 15.7892L10.6956 15.1912L11.1482 15.7892ZM15.1004 12.7984L15.553 13.3965L15.1004 12.7984ZM15.1004 11.2016L14.6478 11.7996L15.1004 11.2016ZM11.1482 8.21073L10.6956 8.80878L11.1482 8.21073ZM8.99995 4.75H15V3.25H8.99995V4.75ZM15 19.25H9V20.75H15V19.25ZM9 19.25C7.5875 19.25 6.57322 19.2494 5.77709 19.1844C4.9897 19.12 4.48197 18.9964 4.07054 18.7868L3.38955 20.1233C4.04768 20.4586 4.7748 20.6075 5.65494 20.6794C6.52633 20.7506 7.61225 20.75 9 20.75V19.25ZM0.25 12C0.25 13.3877 0.249417 14.4737 0.320612 15.345C0.392522 16.2252 0.541378 16.9523 0.876712 17.6104L2.21322 16.9294C2.00359 16.518 1.87996 16.0103 1.81563 15.2229C1.75058 14.4268 1.75 13.4125 1.75 12H0.25ZM4.07054 18.7868C3.27085 18.3793 2.62068 17.7291 2.21322 16.9294L0.876713 17.6104C1.42798 18.6924 2.30762 19.572 3.38955 20.1233L4.07054 18.7868ZM22.25 12C22.25 13.4125 22.2494 14.4268 22.1844 15.2229C22.12 16.0103 21.9964 16.518 21.7868 16.9294L23.1233 17.6104C23.4586 16.9523 23.6075 16.2252 23.6794 15.345C23.7506 14.4737 23.75 13.3877 23.75 12H22.25ZM15 20.75C16.3878 20.75 17.4737 20.7506 18.3451 20.6794C19.2252 20.6075 19.9523 20.4586 20.6104 20.1233L19.9295 18.7868C19.518 18.9964 19.0103 19.12 18.2229 19.1844C17.4268 19.2494 16.4125 19.25 15 19.25V20.75ZM21.7868 16.9294C21.3793 17.7291 20.7291 18.3793 19.9295 18.7868L20.6104 20.1233C21.6924 19.572 22.572 18.6924 23.1233 17.6104L21.7868 16.9294ZM15 4.75C16.4125 4.75 17.4267 4.75058 18.2229 4.81563C19.0103 4.87996 19.518 5.00359 19.9294 5.21322L20.6104 3.87671C19.9523 3.54138 19.2252 3.39252 18.345 3.32061C17.4736 3.24942 16.3877 3.25 15 3.25V4.75ZM23.75 12C23.75 10.6122 23.7506 9.5263 23.6794 8.65492C23.6074 7.77478 23.4586 7.04768 23.1232 6.38955L21.7867 7.07054C21.9964 7.48198 22.12 7.98971 22.1843 8.77709C22.2494 9.57321 22.25 10.5875 22.25 12H23.75ZM19.9294 5.21322C20.7291 5.62068 21.3793 6.27085 21.7867 7.07054L23.1232 6.38955C22.572 5.30762 21.6923 4.42798 20.6104 3.87671L19.9294 5.21322ZM8.99995 3.25C7.6122 3.25 6.52628 3.24942 5.65489 3.32061C4.77475 3.39252 4.04764 3.54138 3.38951 3.87671L4.07049 5.21322C4.48192 5.00359 4.98966 4.87996 5.77704 4.81563C6.57317 4.75058 7.58745 4.75 8.99995 4.75V3.25ZM1.75 12C1.75 10.5877 1.75058 9.57341 1.81563 8.77721C1.87995 7.98972 2.00358 7.4819 2.21318 7.07054L0.876667 6.38955C0.541342 7.04767 0.392506 7.77491 0.320605 8.65508C0.249417 9.52652 0.25 10.6125 0.25 12H1.75ZM3.38951 3.87671C2.30758 4.42798 1.42794 5.30762 0.876667 6.38955L2.21318 7.07054C2.62064 6.27085 3.27081 5.62068 4.07049 5.21322L3.38951 3.87671ZM8.75 9.00914V14.9908H10.25V9.00914H8.75ZM11.6008 16.3873L15.553 13.3965L14.6478 12.2003L10.6956 15.1912L11.6008 16.3873ZM15.553 10.6035L11.6008 7.61267L10.6956 8.80878L14.6478 11.7996L15.553 10.6035ZM15.553 13.3965C16.4823 12.6931 16.4823 11.3068 15.553 10.6035L14.6478 11.7996C14.7841 11.9027 14.7841 12.0972 14.6478 12.2003L15.553 13.3965ZM8.75 14.9908C8.75 16.4694 10.4521 17.2566 11.6008 16.3873L10.6956 15.1912C10.6035 15.2609 10.4959 15.2667 10.3986 15.2195C10.302 15.1728 10.25 15.092 10.25 14.9908H8.75ZM10.25 9.00914C10.25 8.90795 10.302 8.82719 10.3986 8.78043C10.4959 8.73328 10.6035 8.73905 10.6956 8.80878L11.6008 7.61267C10.4521 6.74338 8.75 7.53061 8.75 9.00914H10.25Z" fill="#00D26E"/>
</svg>
