<svg width="20" height="21" viewBox="0 0 20 21" fill="none" xmlns="http://www.w3.org/2000/svg">
<path d="M8.75008 17.0833V3.91663C8.75008 2.66663 8.21675 2.16663 6.89175 2.16663H3.52508C2.20008 2.16663 1.66675 2.66663 1.66675 3.91663V17.0833C1.66675 18.3333 2.20008 18.8333 3.52508 18.8333H6.89175C8.21675 18.8333 8.75008 18.3333 8.75008 17.0833Z" stroke="#6B7280" stroke-width="1.5" stroke-linecap="round" stroke-linejoin="round"/>
<path d="M18.3333 17.0833V3.91663C18.3333 2.66663 17.8 2.16663 16.475 2.16663H13.1083C11.7833 2.16663 11.25 2.66663 11.25 3.91663V17.0833C11.25 18.3333 11.7833 18.8333 13.1083 18.8333H16.475C17.8 18.8333 18.3333 18.3333 18.3333 17.0833Z" stroke="#6B7280" stroke-width="1.5" stroke-linecap="round" stroke-linejoin="round"/>
</svg>
