<svg width="24" height="25" viewBox="0 0 24 25" fill="none" xmlns="http://www.w3.org/2000/svg">
<path d="M20.5725 7.35533V9.42962C20.5725 10.7839 19.7154 11.641 18.3611 11.641H15.4297V5.64962C15.4297 4.69819 16.2097 3.92676 17.1611 3.92676C18.0954 3.93533 18.9526 4.31247 19.5697 4.92962C20.1868 5.55533 20.5725 6.41247 20.5725 7.35533Z" stroke="#4B5563" stroke-width="1.5" stroke-miterlimit="10" stroke-linecap="round" stroke-linejoin="round"/>
<path d="M3.42773 8.21247V20.2125C3.42773 20.9239 4.23343 21.3268 4.79914 20.8982L6.26487 19.801C6.60773 19.5439 7.08774 19.5782 7.39631 19.8868L8.81914 21.3182C9.15343 21.6525 9.70204 21.6525 10.0363 21.3182L11.4763 19.8782C11.7763 19.5782 12.2563 19.5439 12.5906 19.801L14.0563 20.8982C14.622 21.3182 15.4277 20.9153 15.4277 20.2125V5.64104C15.4277 4.69819 16.1992 3.92676 17.142 3.92676H7.71345H6.85631C4.28488 3.92676 3.42773 5.46104 3.42773 7.35533V8.21247Z" stroke="#4B5563" stroke-width="1.5" stroke-miterlimit="10" stroke-linecap="round" stroke-linejoin="round"/>
<path d="M6.85742 9.92773H12.0003" stroke="#4B5563" stroke-width="1.5" stroke-linecap="round" stroke-linejoin="round"/>
<path d="M7.5 13.3574H11.3571" stroke="#4B5563" stroke-width="1.5" stroke-linecap="round" stroke-linejoin="round"/>
</svg>
