<svg width="24" height="24" viewBox="0 0 24 24" fill="none" xmlns="http://www.w3.org/2000/svg">
<path d="M20.5724 6.85618V8.93047C20.5724 10.2848 19.7153 11.1419 18.361 11.1419H15.4296V5.15047C15.4296 4.19904 16.2096 3.42761 17.161 3.42761C18.0953 3.43618 18.9524 3.81333 19.5696 4.43047C20.1867 5.05618 20.5724 5.91333 20.5724 6.85618Z" stroke="#6B7280" stroke-width="1.5" stroke-miterlimit="10" stroke-linecap="round" stroke-linejoin="round"/>
<path d="M3.42761 7.71333V19.7133C3.42761 20.4248 4.23331 20.8276 4.79902 20.399L6.26475 19.3019C6.60761 19.0448 7.08762 19.079 7.39619 19.3876L8.81902 20.819C9.15331 21.1533 9.70192 21.1533 10.0362 20.819L11.4762 19.379C11.7762 19.079 12.2562 19.0448 12.5905 19.3019L14.0562 20.399C14.6219 20.819 15.4276 20.4162 15.4276 19.7133V5.1419C15.4276 4.19904 16.199 3.42761 17.1419 3.42761H7.71333H6.85618C4.28476 3.42761 3.42761 4.9619 3.42761 6.85618V7.71333Z" stroke="#6B7280" stroke-width="1.5" stroke-miterlimit="10" stroke-linecap="round" stroke-linejoin="round"/>
<path d="M6.85718 9.42847H12" stroke="#6B7280" stroke-width="1.5" stroke-linecap="round" stroke-linejoin="round"/>
<path d="M7.5 12.858H11.3571" stroke="#6B7280" stroke-width="1.5" stroke-linecap="round" stroke-linejoin="round"/>
</svg>
