<svg width="24" height="25" viewBox="0 0 24 25" fill="none" xmlns="http://www.w3.org/2000/svg">
<path d="M10.4901 2.72957L5.50015 4.59957C4.35015 5.02957 3.41016 6.38955 3.41016 7.61955V15.0495C3.41016 16.2295 4.19017 17.7795 5.14017 18.4895L9.44016 21.6996C10.8502 22.7596 13.1701 22.7596 14.5801 21.6996L18.8802 18.4895C19.8302 17.7795 20.6101 16.2295 20.6101 15.0495V7.61955C20.6101 6.38955 19.6701 5.02957 18.5201 4.59957L13.5302 2.72957C12.6802 2.41957 11.3201 2.41957 10.4901 2.72957Z" stroke="#4B5563" stroke-width="1.5" stroke-linecap="round" stroke-linejoin="round"/>
<path d="M12.0002 11.4204C11.9602 11.4204 11.9102 11.4204 11.8702 11.4204C10.9302 11.3904 10.1802 10.6104 10.1802 9.6604C10.1802 8.6904 10.9702 7.90039 11.9402 7.90039C12.9102 7.90039 13.7002 8.6904 13.7002 9.6604C13.6902 10.6204 12.9402 11.3904 12.0002 11.4204Z" stroke="#4B5563" stroke-width="1.5" stroke-linecap="round" stroke-linejoin="round"/>
<path d="M10.01 14.2204C9.05004 14.8604 9.05004 15.9103 10.01 16.5503C11.1 17.2803 12.89 17.2803 13.98 16.5503C14.94 15.9103 14.94 14.8604 13.98 14.2204C12.9 13.4904 11.11 13.4904 10.01 14.2204Z" stroke="#4B5563" stroke-width="1.5" stroke-linecap="round" stroke-linejoin="round"/>
</svg>
