<svg width="20" height="21" viewBox="0 0 20 21" fill="none" xmlns="http://www.w3.org/2000/svg">
<rect x="-5.30554" y="0.194458" width="30.6111" height="21.7222" rx="1.75" fill="white" stroke="#F5F5F5" stroke-width="0.5"/>
<mask id="mask0_785_88927" style="mask-type:luminance" maskUnits="userSpaceOnUse" x="-6" y="-1" width="32" height="24">
<rect x="-5.30554" y="0.194458" width="30.6111" height="21.7222" rx="1.75" fill="white" stroke="white" stroke-width="0.5"/>
</mask>
<g mask="url(#mask0_785_88927)">
<rect x="16.6667" y="-0.055542" width="8.88889" height="22.2222" fill="#FF3131"/>
<path fill-rule="evenodd" clip-rule="evenodd" d="M-5.55554 22.1667H3.33335V-0.055542H-5.55554V22.1667Z" fill="#FF3131"/>
<path fill-rule="evenodd" clip-rule="evenodd" d="M12.26 10.2771C12.0268 10.5103 11.6327 10.2994 11.6974 9.976L12.2222 7.35184L10.7407 8.09258L10 5.87036L9.25926 8.09258L7.77778 7.35184L8.30261 9.976C8.36729 10.2994 7.97326 10.5103 7.74005 10.2771L7.27274 9.80977C7.14257 9.67959 6.93151 9.67959 6.80134 9.80977L6.2963 10.3148L4.81482 9.57406L5.55556 11.0555L5.05052 11.5606C4.92035 11.6908 4.92035 11.9018 5.05052 12.032L7.03704 14.0185H9.25926L9.62963 16.2407H10.3704L10.7407 14.0185H12.963L14.9495 12.032C15.0797 11.9018 15.0797 11.6908 14.9495 11.5606L14.4444 11.0555L15.1852 9.57406L13.7037 10.3148L13.1987 9.80977C13.0685 9.67959 12.8574 9.67959 12.7273 9.80977L12.26 10.2771Z" fill="#FF3131"/>
</g>
</svg>
