<svg width="20" height="21" viewBox="0 0 20 21" fill="none" xmlns="http://www.w3.org/2000/svg">
<rect x="-3.33331" y="-0.055542" width="31.1111" height="22.2222" rx="2" fill="white"/>
<mask id="mask0_785_88941" style="mask-type:luminance" maskUnits="userSpaceOnUse" x="-4" y="-1" width="32" height="24">
<rect x="-3.33331" y="-0.055542" width="31.1111" height="22.2222" rx="2" fill="white"/>
</mask>
<g mask="url(#mask0_785_88941)">
<path fill-rule="evenodd" clip-rule="evenodd" d="M27.7778 -0.055542H-3.33331V1.42594H27.7778V-0.055542ZM27.7778 2.90742H-3.33331V4.3889H27.7778V2.90742ZM-3.33331 5.87038H27.7778V7.35187H-3.33331V5.87038ZM27.7778 8.83335H-3.33331V10.3148H27.7778V8.83335ZM-3.33331 11.7963H27.7778V13.2778H-3.33331V11.7963ZM27.7778 14.7593H-3.33331V16.2408H27.7778V14.7593ZM-3.33331 17.7222H27.7778V19.2037H-3.33331V17.7222ZM27.7778 20.6852H-3.33331V22.1667H27.7778V20.6852Z" fill="#D02F44"/>
<rect x="-3.33331" y="-0.055542" width="13.3333" height="10.3704" fill="#46467F"/>
<g filter="url(#filter0_d_785_88941)">
<path fill-rule="evenodd" clip-rule="evenodd" d="M-0.370325 2.16664C-0.370325 2.57574 -0.701966 2.90738 -1.11107 2.90738C-1.52017 2.90738 -1.85181 2.57574 -1.85181 2.16664C-1.85181 1.75754 -1.52017 1.4259 -1.11107 1.4259C-0.701966 1.4259 -0.370325 1.75754 -0.370325 2.16664ZM2.59264 2.16664C2.59264 2.57574 2.261 2.90738 1.8519 2.90738C1.4428 2.90738 1.11116 2.57574 1.11116 2.16664C1.11116 1.75754 1.4428 1.4259 1.8519 1.4259C2.261 1.4259 2.59264 1.75754 2.59264 2.16664ZM4.81486 2.90738C5.22396 2.90738 5.5556 2.57574 5.5556 2.16664C5.5556 1.75754 5.22396 1.4259 4.81486 1.4259C4.40576 1.4259 4.07412 1.75754 4.07412 2.16664C4.07412 2.57574 4.40576 2.90738 4.81486 2.90738ZM8.51856 2.16664C8.51856 2.57574 8.18692 2.90738 7.77782 2.90738C7.36872 2.90738 7.03708 2.57574 7.03708 2.16664C7.03708 1.75754 7.36872 1.4259 7.77782 1.4259C8.18692 1.4259 8.51856 1.75754 8.51856 2.16664ZM0.370416 4.38887C0.779516 4.38887 1.11116 4.05723 1.11116 3.64813C1.11116 3.23903 0.779516 2.90738 0.370416 2.90738C-0.0386841 2.90738 -0.370325 3.23903 -0.370325 3.64813C-0.370325 4.05723 -0.0386841 4.38887 0.370416 4.38887ZM4.07412 3.64813C4.07412 4.05723 3.74248 4.38887 3.33338 4.38887C2.92428 4.38887 2.59264 4.05723 2.59264 3.64813C2.59264 3.23903 2.92428 2.90738 3.33338 2.90738C3.74248 2.90738 4.07412 3.23903 4.07412 3.64813ZM6.29634 4.38887C6.70544 4.38887 7.03708 4.05723 7.03708 3.64813C7.03708 3.23903 6.70544 2.90738 6.29634 2.90738C5.88724 2.90738 5.5556 3.23903 5.5556 3.64813C5.5556 4.05723 5.88724 4.38887 6.29634 4.38887ZM8.51856 5.12961C8.51856 5.53871 8.18692 5.87035 7.77782 5.87035C7.36872 5.87035 7.03708 5.53871 7.03708 5.12961C7.03708 4.72051 7.36872 4.38887 7.77782 4.38887C8.18692 4.38887 8.51856 4.72051 8.51856 5.12961ZM4.81486 5.87035C5.22396 5.87035 5.5556 5.53871 5.5556 5.12961C5.5556 4.72051 5.22396 4.38887 4.81486 4.38887C4.40576 4.38887 4.07412 4.72051 4.07412 5.12961C4.07412 5.53871 4.40576 5.87035 4.81486 5.87035ZM2.59264 5.12961C2.59264 5.53871 2.261 5.87035 1.8519 5.87035C1.4428 5.87035 1.11116 5.53871 1.11116 5.12961C1.11116 4.72051 1.4428 4.38887 1.8519 4.38887C2.261 4.38887 2.59264 4.72051 2.59264 5.12961ZM-1.11107 5.87035C-0.701966 5.87035 -0.370325 5.53871 -0.370325 5.12961C-0.370325 4.72051 -0.701966 4.38887 -1.11107 4.38887C-1.52017 4.38887 -1.85181 4.72051 -1.85181 5.12961C-1.85181 5.53871 -1.52017 5.87035 -1.11107 5.87035ZM1.11116 6.61109C1.11116 7.02019 0.779516 7.35183 0.370416 7.35183C-0.0386841 7.35183 -0.370325 7.02019 -0.370325 6.61109C-0.370325 6.20199 -0.0386841 5.87035 0.370416 5.87035C0.779516 5.87035 1.11116 6.20199 1.11116 6.61109ZM3.33338 7.35183C3.74248 7.35183 4.07412 7.02019 4.07412 6.61109C4.07412 6.20199 3.74248 5.87035 3.33338 5.87035C2.92428 5.87035 2.59264 6.20199 2.59264 6.61109C2.59264 7.02019 2.92428 7.35183 3.33338 7.35183ZM7.03708 6.61109C7.03708 7.02019 6.70544 7.35183 6.29634 7.35183C5.88724 7.35183 5.5556 7.02019 5.5556 6.61109C5.5556 6.20199 5.88724 5.87035 6.29634 5.87035C6.70544 5.87035 7.03708 6.20199 7.03708 6.61109ZM7.77782 8.83331C8.18692 8.83331 8.51856 8.50167 8.51856 8.09257C8.51856 7.68347 8.18692 7.35183 7.77782 7.35183C7.36872 7.35183 7.03708 7.68347 7.03708 8.09257C7.03708 8.50167 7.36872 8.83331 7.77782 8.83331ZM5.5556 8.09257C5.5556 8.50167 5.22396 8.83331 4.81486 8.83331C4.40576 8.83331 4.07412 8.50167 4.07412 8.09257C4.07412 7.68347 4.40576 7.35183 4.81486 7.35183C5.22396 7.35183 5.5556 7.68347 5.5556 8.09257ZM1.8519 8.83331C2.261 8.83331 2.59264 8.50167 2.59264 8.09257C2.59264 7.68347 2.261 7.35183 1.8519 7.35183C1.4428 7.35183 1.11116 7.68347 1.11116 8.09257C1.11116 8.50167 1.4428 8.83331 1.8519 8.83331ZM-0.370325 8.09257C-0.370325 8.50167 -0.701966 8.83331 -1.11107 8.83331C-1.52017 8.83331 -1.85181 8.50167 -1.85181 8.09257C-1.85181 7.68347 -1.52017 7.35183 -1.11107 7.35183C-0.701966 7.35183 -0.370325 7.68347 -0.370325 8.09257Z" fill="url(#paint0_linear_785_88941)"/>
</g>
</g>
<defs>
<filter id="filter0_d_785_88941" x="-1.85181" y="1.4259" width="10.3704" height="8.40735" filterUnits="userSpaceOnUse" color-interpolation-filters="sRGB">
<feFlood flood-opacity="0" result="BackgroundImageFix"/>
<feColorMatrix in="SourceAlpha" type="matrix" values="0 0 0 0 0 0 0 0 0 0 0 0 0 0 0 0 0 0 127 0" result="hardAlpha"/>
<feOffset dy="1"/>
<feColorMatrix type="matrix" values="0 0 0 0 0 0 0 0 0 0 0 0 0 0 0 0 0 0 0.06 0"/>
<feBlend mode="normal" in2="BackgroundImageFix" result="effect1_dropShadow_785_88941"/>
<feBlend mode="normal" in="SourceGraphic" in2="effect1_dropShadow_785_88941" result="shape"/>
</filter>
<linearGradient id="paint0_linear_785_88941" x1="-1.85181" y1="1.4259" x2="-1.85181" y2="8.83331" gradientUnits="userSpaceOnUse">
<stop stop-color="white"/>
<stop offset="1" stop-color="#F0F0F0"/>
</linearGradient>
</defs>
</svg>
