<svg width="25" height="24" viewBox="0 0 25 24" fill="none" xmlns="http://www.w3.org/2000/svg">
<path d="M20.6079 16V18.5C20.6079 20.43 19.0379 22 17.1079 22H7.10791C5.17791 22 3.60791 20.43 3.60791 18.5V17.85C3.60791 16.28 4.88791 15 6.45791 15H19.6079C20.1579 15 20.6079 15.45 20.6079 16Z" fill="white"/>
<path d="M15.6079 2H8.60791C4.60791 2 3.60791 3 3.60791 7V14.58C4.36791 13.91 5.36791 13.5 6.45791 13.5H19.6079C20.1579 13.5 20.6079 13.05 20.6079 12.5V7C20.6079 3 19.6079 2 15.6079 2ZM13.1079 10.75H8.10791C7.69791 10.75 7.35791 10.41 7.35791 10C7.35791 9.59 7.69791 9.25 8.10791 9.25H13.1079C13.5179 9.25 13.8579 9.59 13.8579 10C13.8579 10.41 13.5179 10.75 13.1079 10.75ZM16.1079 7.25H8.10791C7.69791 7.25 7.35791 6.91 7.35791 6.5C7.35791 6.09 7.69791 5.75 8.10791 5.75H16.1079C16.5179 5.75 16.8579 6.09 16.8579 6.5C16.8579 6.91 16.5179 7.25 16.1079 7.25Z" fill="white"/>
</svg>
