<svg width="25" height="25" viewBox="0 0 25 25" fill="none" xmlns="http://www.w3.org/2000/svg">
<path d="M22.1079 5.35018V17.2402C22.1079 18.2102 21.3179 19.1002 20.3479 19.2202L20.0379 19.2602C18.3979 19.4802 16.0879 20.1602 14.2279 20.9402C13.5779 21.2102 12.8579 20.7202 12.8579 20.0102V6.10018C12.8579 5.73018 13.0679 5.39018 13.3979 5.21018C15.2279 4.22018 17.9979 3.34018 19.8779 3.18018H19.9379C21.1379 3.18018 22.1079 4.15018 22.1079 5.35018Z" fill="white"/>
<path d="M10.8181 5.21018C8.98814 4.22018 6.21814 3.34018 4.33814 3.18018H4.26814C3.06814 3.18018 2.09814 4.15018 2.09814 5.35018V17.2402C2.09814 18.2102 2.88814 19.1002 3.85814 19.2202L4.16814 19.2602C5.80814 19.4802 8.11814 20.1602 9.97814 20.9402C10.6281 21.2102 11.3481 20.7202 11.3481 20.0102V6.10018C11.3481 5.72018 11.1481 5.39018 10.8181 5.21018ZM5.10814 8.24018H7.35814C7.76814 8.24018 8.10814 8.58018 8.10814 8.99018C8.10814 9.41018 7.76814 9.74018 7.35814 9.74018H5.10814C4.69814 9.74018 4.35814 9.41018 4.35814 8.99018C4.35814 8.58018 4.69814 8.24018 5.10814 8.24018ZM8.10814 12.7402H5.10814C4.69814 12.7402 4.35814 12.4102 4.35814 11.9902C4.35814 11.5802 4.69814 11.2402 5.10814 11.2402H8.10814C8.51814 11.2402 8.85814 11.5802 8.85814 11.9902C8.85814 12.4102 8.51814 12.7402 8.10814 12.7402Z" fill="white"/>
</svg>
