<svg width="25" height="24" viewBox="0 0 25 24" fill="none" xmlns="http://www.w3.org/2000/svg">
<path d="M22.1079 16.74V4.67001C22.1079 3.47001 21.1279 2.58001 19.9379 2.68001H19.8779C17.7779 2.86001 14.5879 3.93001 12.8079 5.05001L12.6379 5.16001C12.3479 5.34001 11.8679 5.34001 11.5779 5.16001L11.3279 5.01001C9.54791 3.90001 6.36791 2.84001 4.26791 2.67001C3.07791 2.57001 2.10791 3.47001 2.10791 4.66001V16.74C2.10791 17.7 2.88791 18.6 3.84791 18.72L4.13791 18.76C6.30791 19.05 9.65791 20.15 11.5779 21.2L11.6179 21.22C11.8879 21.37 12.3179 21.37 12.5779 21.22C14.4979 20.16 17.8579 19.05 20.0379 18.76L20.3679 18.72C21.3279 18.6 22.1079 17.7 22.1079 16.74Z" stroke="white" stroke-width="1.5" stroke-linecap="round" stroke-linejoin="round"/>
<path d="M12.1079 5.48999V20.49" stroke="white" stroke-width="1.5" stroke-linecap="round" stroke-linejoin="round"/>
<path d="M7.85791 8.48999H5.60791" stroke="white" stroke-width="1.5" stroke-linecap="round" stroke-linejoin="round"/>
<path d="M8.60791 11.49H5.60791" stroke="white" stroke-width="1.5" stroke-linecap="round" stroke-linejoin="round"/>
</svg>
