<svg width="25" height="24" viewBox="0 0 25 24" fill="none" xmlns="http://www.w3.org/2000/svg">
<path d="M9.10791 22H15.1079C20.1079 22 22.1079 20 22.1079 15V9C22.1079 4 20.1079 2 15.1079 2H9.10791C4.10791 2 2.10791 4 2.10791 9V15C2.10791 20 4.10791 22 9.10791 22Z" stroke="#6B7280" stroke-width="1.5" stroke-linecap="round" stroke-linejoin="round"/>
<path d="M11.976 14.5308C12.0282 14.6483 12.0543 14.7527 12.0543 14.8441C12.0543 15.0268 11.9792 15.1835 11.8291 15.314C11.6855 15.438 11.5191 15.5 11.3298 15.5C11.2058 15.5 11.0883 15.4674 10.9773 15.4021C10.8664 15.3303 10.7815 15.2259 10.7228 15.0888L10.2039 13.9336H6.88504L6.36616 15.0888C6.30742 15.2259 6.22257 15.3303 6.11162 15.4021C6.00719 15.4674 5.8897 15.5 5.75917 15.5C5.56989 15.5 5.40019 15.438 5.25008 15.314C5.09996 15.1835 5.0249 15.0268 5.0249 14.8441C5.0249 14.7527 5.05101 14.6483 5.10322 14.5308L7.74658 8.97973C7.81838 8.82309 7.92607 8.70561 8.06966 8.62729C8.21325 8.54244 8.36663 8.50002 8.5298 8.50002C8.69949 8.50002 8.85614 8.54244 8.99973 8.62729C9.14332 8.71214 9.25427 8.82962 9.33259 8.97973L11.976 14.5308ZM7.40392 12.7783H9.68504L8.54938 10.2329L7.40392 12.7783Z" fill="#6B7280"/>
<path d="M13.6107 15.4609C13.3822 15.4609 13.206 15.3988 13.082 15.2748C12.958 15.1508 12.896 14.9746 12.896 14.7462V9.27344C12.896 9.045 12.958 8.86878 13.082 8.74477C13.206 8.62076 13.3822 8.55876 13.6107 8.55876H15.5785C16.3291 8.55876 16.9753 8.69582 17.517 8.96994C18.0587 9.24407 18.4732 9.63894 18.7603 10.1546C19.0475 10.6702 19.1911 11.287 19.1911 12.0049C19.1911 12.7229 19.0475 13.3429 18.7603 13.8651C18.4797 14.3807 18.0685 14.7755 17.5268 15.0497C16.985 15.3238 16.3356 15.4609 15.5785 15.4609H13.6107ZM15.4708 14.2273C16.9394 14.2273 17.6736 13.4865 17.6736 12.0049C17.6736 10.5299 16.9394 9.79232 15.4708 9.79232H14.4233V14.2273H15.4708Z" fill="#6B7280"/>
</svg>
