<svg xmlns="http://www.w3.org/2000/svg" xmlns:xlink="http://www.w3.org/1999/xlink" version="1.1" width="256" height="256" viewBox="0 0 256 256" xml:space="preserve">

<defs>
</defs>
<g style="stroke: none; stroke-width: 0; stroke-dasharray: none; stroke-linecap: butt; stroke-linejoin: miter; stroke-miterlimit: 10; fill: none; fill-rule: nonzero; opacity: 1;" transform="translate(1.4065934065934016 1.4065934065934016) scale(2.81 2.81)" >
	<path d="M 45 49.804 c -1.104 0 -2 -0.896 -2 -2 v -5.235 c 0 -0.55 0.227 -1.076 0.627 -1.454 l 8.401 -7.933 c 1.716 -1.766 2.693 -4.173 2.693 -6.72 V 26.15 c 0 -2.644 -1.043 -5.117 -2.938 -6.963 c -1.893 -1.845 -4.384 -2.834 -7.042 -2.755 c -5.218 0.134 -9.463 4.613 -9.463 9.982 c 0 1.104 -0.896 2 -2 2 s -2 -0.896 -2 -2 c 0 -7.519 5.994 -13.791 13.36 -13.981 c 3.738 -0.092 7.265 1.285 9.938 3.89 c 2.673 2.605 4.146 6.096 4.146 9.828 v 0.312 c 0 3.595 -1.381 6.993 -3.887 9.569 L 47 43.43 v 4.374 C 47 48.908 46.104 49.804 45 49.804 z" style="stroke: none; stroke-width: 1; stroke-dasharray: none; stroke-linecap: butt; stroke-linejoin: miter; stroke-miterlimit: 10; fill: rgb(0,0,0); fill-rule: nonzero; opacity: 1;" transform=" matrix(1 0 0 1 0 0) " stroke-linecap="round" />
	<path d="M 45 60.859 c -0.23 0 -0.46 -0.029 -0.68 -0.069 c -0.23 -0.05 -0.45 -0.11 -0.66 -0.2 s -0.41 -0.2 -0.6 -0.32 c -0.19 -0.13 -0.37 -0.279 -0.53 -0.439 c -0.66 -0.65 -1.03 -1.55 -1.03 -2.471 c 0 -0.229 0.02 -0.46 0.07 -0.689 c 0.04 -0.22 0.11 -0.44 0.2 -0.65 c 0.09 -0.21 0.19 -0.42 0.32 -0.609 c 0.13 -0.19 0.27 -0.37 0.43 -0.53 c 0.17 -0.16 0.35 -0.311 0.54 -0.44 c 0.19 -0.12 0.39 -0.229 0.6 -0.319 s 0.43 -0.15 0.66 -0.2 c 1.13 -0.23 2.34 0.149 3.15 0.96 c 0.17 0.16 0.311 0.34 0.44 0.53 c 0.13 0.189 0.229 0.399 0.319 0.609 s 0.16 0.431 0.2 0.65 c 0.05 0.229 0.07 0.46 0.07 0.689 c 0 0.921 -0.37 1.82 -1.03 2.471 C 46.819 60.479 45.92 60.859 45 60.859 z" style="stroke: none; stroke-width: 1; stroke-dasharray: none; stroke-linecap: butt; stroke-linejoin: miter; stroke-miterlimit: 10; fill: rgb(0,0,0); fill-rule: nonzero; opacity: 1;" transform=" matrix(1 0 0 1 0 0) " stroke-linecap="round" />
	<path d="M 45 90 L 45 90 c -0.748 0 -1.434 -0.418 -1.777 -1.082 l -7.848 -15.196 H 20.227 c -6.665 0 -12.088 -5.423 -12.088 -12.088 V 12.088 C 8.139 5.422 13.562 0 20.227 0 h 49.545 C 76.438 0 81.86 5.422 81.86 12.088 v 49.546 c 0 6.665 -5.423 12.088 -12.088 12.088 H 54.625 l -7.848 15.196 C 46.434 89.582 45.748 90 45 90 z M 20.227 4 c -4.459 0 -8.088 3.628 -8.088 8.088 v 49.546 c 0 4.46 3.628 8.088 8.088 8.088 h 16.366 c 0.748 0 1.434 0.418 1.777 1.082 L 45 83.642 l 6.63 -12.838 c 0.344 -0.664 1.029 -1.082 1.777 -1.082 h 16.365 c 4.46 0 8.088 -3.628 8.088 -8.088 V 12.088 C 77.86 7.628 74.232 4 69.772 4 H 20.227 z" style="stroke: none; stroke-width: 1; stroke-dasharray: none; stroke-linecap: butt; stroke-linejoin: miter; stroke-miterlimit: 10; fill: rgb(0,0,0); fill-rule: nonzero; opacity: 1;" transform=" matrix(1 0 0 1 0 0) " stroke-linecap="round" />
</g>
</svg>