<?xml version="1.0" encoding="utf-8"?>
<!-- Generator: Adobe Illustrator 26.0.3, SVG Export Plug-In . SVG Version: 6.00 Build 0)  -->
<svg version="1.1" id="Layer_1" xmlns="http://www.w3.org/2000/svg" xmlns:xlink="http://www.w3.org/1999/xlink" x="0px" y="0px"
	 viewBox="0 0 500 300" style="enable-background:new 0 0 500 300;" xml:space="preserve">
<style type="text/css">
	.st0{display:none;}
	.st1{display:inline;}
	.st2{display:inline;fill:#FFFFFF;}
</style>
<g class="st0">
	<path class="st1" d="M301.6,353.8c-14.7-8.1-29.4-16.2-44.2-24.4c2.2-4.3,5.3-6,10.1-5.7c5.8,0.4,11.6,0.1,17.7,0.1
		c0-9.6,0-18.8,0-28.8c-3.8,2.5-7.3,4.8-10.9,7.1c-0.2-0.2-0.3-0.4-0.5-0.6c9.4-12.4,18.8-24.7,28.7-37.6c10.7,13,21,25.4,31.3,37.9
		c-0.2,0.2-0.4,0.4-0.6,0.6c-3.9-2.4-7.8-4.7-12.3-7.5c0,12.2,0,23.6,0,35.6c-13.5,0-26.5,0-39.6,0c-0.2,0.4-0.3,0.8-0.5,1.2
		c6.9,5.8,13.8,11.6,20.9,17.2c0.7,0.6,2.8-0.2,4-0.8c11.6-5.7,23.2-11.5,34.8-17.3c1.4-0.7,2.9-1.3,4.7-1.3
		c-13.9,8.1-27.8,16.2-41.7,24.4C303,353.8,302.3,353.8,301.6,353.8z"/>
	<path class="st1" d="M350.6-88.2c6.9,15.1,13.8,30.2,20.7,45.3c0.7,1.6,1.4,3.3,1.3,5.6c-3.4-3.7-6.7-7.5-10.1-11.2
		c-0.5,0.2-1,0.5-1.5,0.7c0,18.3,0,36.6,0,55c-0.4,0-0.8,0-1.2,0c-3.1-30-6.2-60-9.3-90.1c-0.3,0-0.6,0-0.9,0
		c-3.1,30.3-6.3,60.6-9.4,90.8c-0.3,0-0.5,0-0.8,0c0-18.7,0-37.4,0-56c-0.5-0.2-0.9-0.5-1.4-0.7c-3.3,4-6.7,7.9-10,11.9
		c-0.5-0.4-0.9-0.8-1.4-1.2c5.5-11.9,11.1-23.7,16.5-35.6c2.2-4.8,4.2-9.7,6.3-14.6C350-88.2,350.3-88.2,350.6-88.2z"/>
	<path class="st1" d="M22.6,68.9c6.7,7.2,4.5,15.9,4.5,24c0.2,21.6,0.1,43.3,0.1,64.9c0,2.1,0,4.3,0,6.7c-11.8,0-23.2,0-35.5,0
		c0-1.6,0-3.4,0-5.1c0-24.1-0.1-48.3,0.1-72.4c0.1-5.9,1.3-11.8,2.1-18.4c-4.2-1.3-5.9,3.8-8.8,6.3c-3.1,2.7-5.6,6-8.4,9
		c-0.4-0.3-0.8-0.6-1.3-1C-13.6,60.7-2.7,38.5,8.8,15.2C20.7,38.3,32,60.3,43.7,83C35.7,78.9,31.8,70.3,22.6,68.9z"/>
	<path class="st1" d="M347,68.5c2.3-4.9,3.9-8.5,5.6-12.1c-31.7-1.4-58.6,20.6-62.4,51.3c-1.2-0.9-2.3-1.5-3.2-2.3
		c-3.1-2.8-6.1-5.7-9.2-8.5c-8.8-8-9.5-11.8-3.6-22.5c6.7-12.1,17.4-20,29.3-26.3c14.1-7.5,29-12.6,45-13.5c1.1-0.1,2.3-0.4,4.1-0.6
		c-1.8-3.7-3.4-7.1-5-10.4c0.2-0.3,0.4-0.6,0.6-0.9c14.2,7.8,28.4,15.6,43.8,24.1C376.8,54.1,362.6,61,347,68.5z"/>
	<path class="st1" d="M79.4,14.6c1.8,11.6,3.7,23.2,5.5,34.8c0.4,0,0.7-0.1,1.1-0.1C83.4,30.2,80.9,11.1,78.4-8
		c-0.3,0-0.6-0.1-1-0.1c-3.1,22.8-6.2,45.6-9.2,68.4c0.4,0.1,0.8,0.1,1.2,0.2c2.5-15.7,5.1-31.4,7.6-47.1c0.3,0,0.5,0.1,0.8,0.1
		c-3.3,38.8-6.6,77.6-9.9,116.4c-0.3,0-0.6,0-0.9-0.1c0-17.5,0-35.1,0-52.6c-0.3,0-0.6-0.1-0.9-0.1c-1.5,11.2-3.1,22.4-4.6,33.6
		c-0.2,0-0.4,0-0.6,0c0-30.5,0-61.1,0-92.6c-4.2,2.8-7.7,5.1-11.2,7.4c-0.2-0.2-0.5-0.4-0.7-0.6c9.6-12.6,19.1-25.1,29-38.2
		c10.8,13,21.2,25.6,31.7,38.2c-0.2,0.3-0.4,0.5-0.6,0.8c-3.8-2.4-7.7-4.8-12.7-7.9c0,32,0,62.8,0,93.7c-0.5,0-1.1,0.1-1.6,0.1
		c-1.4-9.4-2.7-18.8-4.1-28.2c-0.3,0-0.7,0-1,0.1c0,15.2,0,30.3,0,45.5c-0.4,0-0.8,0-1.2,0.1C85,91,81.8,52.7,78.5,14.5
		C78.8,14.6,79.1,14.6,79.4,14.6z"/>
	<path class="st1" d="M476.2,261.9c5,0,8.6,0,12.1,0c6.2,0,7.1-1,7.2-7.3c0-9.2,0.2-18.3-0.1-27.5c-0.1-4.7,1.7-6.6,6.5-6.4
		c9.5,0.2,19,0.1,28.5,0.1c5.8,0,6.5,0.7,6.5,6.8c0,9.2,0,18.3,0,27.5c0,5.9,1.1,6.9,7.1,6.9c3.3,0,6.6,0.1,10,0.2
		c0.3,0,0.5,0.4,1.2,0.9c-1.1,0.8-2.1,1.6-3.1,2.1c-10.1,5.1-20.1,10.4-30.4,15c-2.8,1.3-7.1,1.6-9.9,0.4
		c-11.1-4.9-21.8-10.6-32.7-16.1C478.4,264.3,478,263.6,476.2,261.9z"/>
	<path class="st1" d="M411.3,139.8c-3.6,0-7.2,0-10.9,0c0-0.3,0-0.6,0-0.9c6.3,0,12.6-0.6,18.8,0.2c3.7,0.5,7.2,2.9,10.6,4.6
		c0.7,0.4,1.4,2.1,1.1,2.9c-0.3,1-1.5,2-2.6,2.3c-7.9,2-15.8,3.8-23.7,5.8c-7.3,1.8-14.5,3.8-22.2,5.8c10,3.8,19.7,7.5,30.3,11.5
		c-8.5,5.9-4.2,14.1-4.4,21.8c3.9-4.8,7.7-9.6,11.6-14.4c0.3,0.2,0.5,0.3,0.8,0.5c-7.4,16.6-14.9,33.1-22.8,50.6
		c-9.5-17.3-18.6-33.8-27.6-50.2c0.4-0.3,0.8-0.6,1.2-0.9c4.8,5,9.5,9.9,14.4,14.9c0.4-0.6,0.7-0.8,0.7-1.1
		c-2.2-11.5,3-18.1,14.5-20.6c-0.1-0.5-0.1-0.9-0.2-1.4c-8.4-3.7-16.7-7.4-25.6-11.3c13.1-3.2,25.7-6.3,38.3-9.4
		c0-0.3-0.1-0.7-0.1-1c-7.7,0-15.5,0.2-23.2-0.1c-2.7-0.1-6.1-1-8-2.9c-10-9.7-19.8-19.7-29.1-30.1c-1.5-1.6-1.6-6.8-0.2-8.3
		c11-11.7,22.5-22.9,34.7-33.6c-5.2,8-10.5,16-15.6,24.1c-9.6,15.1-9.9,10.2,1.5,24.5c3.5,4.4,7.4,8.6,10.7,13.2
		c2.1,2.9,4.5,4.2,7.9,4.2c6.4,0,12.8,0,19.2,0C411.3,140.3,411.3,140.1,411.3,139.8z"/>
	<path class="st1" d="M132.7,263.8c-3.2,0.3-7.2-0.5-9.5,1.1c-6.3,4.2-11.9,9.5-17.8,14.4c-1.4,1.2-2.4,2.7-4.2,4.6
		c-4.9-6.2-9.4-11.9-14.9-18.9c11.1-3.6,21.3-7.5,31.8-10.1c5.8-1.5,12.2-1.7,18.2-1.2c7.3,0.6,10.4,4.9,10.5,12.1
		c0.1,8.8,0,17.5,1.1,26.8c3.7-3.9,7.7-7.6,11-11.8c1.9-2.5,3.4-3,5.5-0.9c8.8,9,17.6,18.1,26.3,27.2c4.9,5,9.8,10,15.6,16
		c0.2-4.4,0.3-7.6,0.5-10.8c0.3-0.1,0.6-0.2,0.9-0.2c3.7,12.6,7.5,25.2,11.6,39.1c-13.5-3.7-26-7.2-38.4-10.6c0-0.3,0-0.5,0-0.8
		c4.3-0.4,8.5-0.8,13.5-1.3c-1.3-2.4-2.4-4.4-3.5-6.3c-8.2-14.3-16.4-28.6-24.6-42.8c-3.4-5.9-6.1-6-10.3-0.5
		c-6.2,8.2-12.3,16.4-19.5,24.2c0-5.4,0-10.8,0-16.2c0-8,0.3-16-0.1-24c-0.1-2.8-1.9-5.6-2.9-8.4
		C133.2,264.4,132.9,264.1,132.7,263.8z"/>
	<path class="st1" d="M428.7,316c-3.8,4.5-7,8.3-10.2,12.1c-3.1,3.7-6.2,7.3-9.7,11.4c-5.7-7.2-11-13.9-16.1-20.5
		c5.1,5,10.3,10.2,15.7,15.6c7.2-7.2,13.5-13.6,20.2-20.4c5.3,5.4,10.5,10.7,15.8,15.9c4.6,4.7,17.5,4.6,22.2-0.2
		c4.7-4.9,9.4-9.9,14.4-15.1c9.6,7.9,19.1,15.7,28.9,23.7c7.4-9.7,14.5-19,22.4-29.3c-6.6,0-12,0-17.3,0c-0.1-0.4-0.1-0.7-0.2-1.1
		c17.7-10,35.5-20,54.1-30.5c-3.2,18.9-6.3,36.8-9.4,54.7c-0.3,0.1-0.5,0.1-0.8,0.2c-1.8-4.9-3.6-9.8-5.7-15.3
		c-6.3,4.8-12.2,9.2-18.2,13.7c-5.2,3.9-10.4,7.8-15.5,11.8c-5.6,4.3-11.4,4-16.4-0.6c-7.2-6.7-14.3-13.4-21.5-20.2
		c-0.2-0.2-0.6-0.2-0.1-0.1c-6.6,6.2-13,12-19.2,18c-4.2,4.1-15.5,3.3-18.8-1.6C438.5,331.1,433.9,323.9,428.7,316z"/>
	<path class="st1" d="M30.9,210.6c10.9-2.5,21.7-5.2,32.5-1c0.1,0.7,0.2,1.3,0.4,2c-2.3,0.7-4.8,2.1-7,1.9c-13.7-1.7-24.8,4.6-36,11
		c-3.1,1.8-7.1,2.1-10.8,2.4c-3.2,0.3-4.2-1.7-3.3-5c3.8-14.4,7.5-28.9,11.2-43.3c1-3.7,4.8-5,10.3-4c4.3,0.7,3.8,3.4,3.2,6.3
		c-0.9,4.9-1.9,9.8-3,15.6c1.9-1.3,3.2-2,4.4-2.9c7.6-6,15.9-7.2,24.9-4c7.7,2.7,15.1,6,22.8,8.7c3.9,1.4,8,2.5,12.1,2.9
		c6.7,0.7,9.9-3,9.1-9.7c-1.1-9.9-12.1-22.3-21.8-24.4c-1.1-0.2-2.3-0.3-3.5-0.3c-4.1,0.2-7,2.8-7.1,6.3c0,1.9,3.2,4.5,5.6,5.6
		c2,0.9,4.9,0.2,8.2,0.2c-1.8-3.7-3.1-6.5-4.5-9.4c0.4,0,0.8-0.1,0.9,0c2.9,3.1,7.1,5.8,4.8,10.9c-1.5,3.3-9.5,3.6-14.8,0.9
		c-4.9-2.5-6.6-6.6-4.7-11.7c2.5-6.6,9.5-10.5,16.7-8.3c13.5,4.2,23.5,12.5,27.3,26.6c3.6,13.1-3.7,22.7-17.2,21.7
		c-7.5-0.6-14.8-3.4-22.1-5.5c-4-1.1-7.8-2.7-11.7-4.3c-8.4-3.4-15.5-1.7-21.8,4.7c-1.8,1.9-4,3.4-6.1,5.1
		C30.4,209.9,30.7,210.3,30.9,210.6z"/>
	<path class="st1" d="M427.7,8.4c-9.1,0-17.4,0-26.1,0c0-19.4,0-38.7,0-58.5c-4.4,0-8.3,0-13.4,0c9.2-10.5,17.5-20.1,26.2-30
		c8.7,9.9,17,19.5,26,29.8c-4.7,0-8.5,0-12.7,0C427.7-30.7,427.7-11.5,427.7,8.4z"/>
	<path class="st1" d="M235.4-1c14.4-18.9,28-36.7,41.7-54.8c-2.6-2.1-4.9-4.1-7.8-6.5c14.8-8.1,29.2-16,44.5-24.3
		c-4,16.8-7.7,32.7-11.6,49.4c-2.9-2-5.4-3.8-8.3-5.9c-13.7,17.9-27.3,35.7-41.7,54.6c-0.6-5.8-1-10.3-1.5-15.2
		C245.7-2.9,241.1-2.1,235.4-1z"/>
	<path class="st1" d="M546.5-59.7c0,24.4,0,47.1,0,70.3c5.8-1.4,11.2-2.7,16-3.8c-8.6,8.6-17.4,17.5-25.9,25.9
		c-8.2-8.2-17.1-17.1-26-26.1c5.4,1.3,11,2.6,16.8,4c0-19.9,0-39.5,0-59.7c-23.4,2.9-46.6,5.8-69.8,8.6
		C486.9-46.9,515.8-55.2,546.5-59.7z"/>
	<path class="st1" d="M283.2,163.4c0.3-2.9,0.7-5.8,1.1-9.1c-19.2,0-39.3,0-60.9,0c2-2.2,3.1-3.5,4.3-4.6c6.4-5.8,6.4-5.8-0.2-11.6
		c-1.2-1.1-3-1.5-4.5-2.2c0.6-0.8,1.1-1.5,1.7-2.3c20.2,0,40.3,0,59.6,0c-0.4-3.5-0.7-6.4-1.1-10.7c16.3,7.2,30.9,13.7,45.5,20.2
		c0,0.5,0.1,1.1,0.1,1.6c-14.6,6.5-29.3,13.1-43.9,19.6C284.2,163.9,283.7,163.6,283.2,163.4z"/>
	<path class="st1" d="M194.7,155.4c-0.8-4.1-1.6-7.6-2.1-10.6c10.4,10,21,20.2,32.4,31.2c-16.1-0.8-31.2-1.5-46.3-2.2
		c-0.1-0.3-0.2-0.6-0.2-0.9c3.4-1.9,6.8-3.8,10.8-6c-4.7-2.7-9.1-4.7-12.8-7.5c-11.7-8.8-23.7-17.2-34.4-27.1
		c-11.5-10.6-18.6-24-18.8-40.5c-0.1-11.1-1.2-22.2-1.8-34.1c2.2,10.1,3.9,19.6,6.4,28.8c3,11.2,8.6,20.9,17.6,28.4
		c15.6,13,31.2,26,46.8,38.9C192.8,154.4,193.5,154.6,194.7,155.4z"/>
	<path class="st1" d="M336.9,248.9c-3.4,2.8-6.5,5.4-9.6,8c0-0.1-0.1-0.1-0.1-0.2c3.2-3.3,6.4-6.5,9.9-10.1
		c8.5,8.5,17.2,17,25.6,25.7c2.4,2.5,4.8,3.6,8.2,3.5c8.8-0.3,17.7,0.2,26.5-0.2c2.9-0.1,6.2-1.2,8.4-3c9.2-7.5,17.9-15.4,26.9-23.1
		c0.7-0.6,1.7-0.9,2.6-1.3c-0.3-0.4-0.6-0.9-0.9-1.3c-5.1,0-10.2,0-15.3,0c-0.1-0.4-0.2-0.7-0.3-1.1c18-7,35.9-13.9,55-21.3
		c-6.5,16.4-12.6,31.8-18.7,47.3c-0.3,0-0.6,0-1-0.1c-0.8-4.3-1.7-8.6-2.7-13.6c-1.8,1-3.2,1.8-4.5,2.6c-11,6.7-21.8,13.4-32.9,19.9
		c-2.6,1.5-5.8,2.5-8.8,2.5c-11.7,0.3-23.3,0-35,0.2c-3.1,0-5.2-0.8-7.2-3.3C354.6,269.7,345.8,259.5,336.9,248.9z"/>
	<path class="st1" d="M255.6,287.4c-7.8-6.7-15.1-13-23.4-20.1c4.3,0,7.5,0,11,0c0-13.9,0-27.3,0-41.1c-1.3,0-2.6,0-4.2,0
		c0.2-0.5,0.2-1,0.5-1.3c4.9-4.7,9.4-10,14.8-13.9c5.6-4.1,10.2-1.9,11.8,4.9c0.9,3.7,1.2,7.6,1.3,11.4c0.1,13,0.1,26,0.1,39.4
		c3.5,0,6.8,0,10,0c0.2,0.4,0.5,0.8,0.7,1.3C270.8,274.3,263.4,280.7,255.6,287.4z"/>
	<path class="st1" d="M0.4,294.5c-1.7,4.3-3.7,8.4-5.2,12.8c-2.8,8.5,0.7,14,9.6,13.3c15-1.2,29.9-3.5,44.8-5.3
		c0.1-0.5,0.1-1.1,0.2-1.6c-3.4-2.8-6.8-5.5-10.3-8.3c0.1-0.3,0.3-0.6,0.4-0.9c16.8,3.6,33.6,7.3,51.6,11.2
		c-14.8,9.1-28.4,17.5-42.1,25.9c-0.2-0.2-0.5-0.4-0.7-0.6c2-3.5,4-7,6.4-11.4c-2.1,0.2-3.4,0.3-4.7,0.6
		c-16.7,3.3-33.5,5.8-50.6,3.5c-2.1-0.3-4.3-0.6-6.4-1.2c-6.3-1.8-9-5.9-8-12.4C-12.9,309.8-6.4,302.1,0.4,294.5z"/>
	<path class="st1" d="M542,84c-3.2-1.5-5.2-2.5-7.3-3.5c0-0.4,0.1-0.7,0.1-1.1c12.4,0,24.7,0,38,0c-10.2,8.2-20.2,16.2-31.2,25
		c1-3.7,1.7-6.2,2.5-9.4c-10.5,2.1-20.5,4.1-30.5,6.1c-1.3,0.3-2.7,0.3-3.9,0.8c-12.5,5.4-22.3,1.8-30.9-8.3
		c-5.1-6-11.7-10.8-17.6-16.2c-0.2-0.2-0.3-0.6-0.8-1.3c7-12,14-24.2,21.3-36.2c0.6-1,2.7-1.6,4.1-1.5c7.3,0.7,14.6,1.5,21.8,2.5
		c1.4,0.2,3.3,1.1,3.9,2.2c5.5,11.7,10.8,23.4,16.4,35.6c-10.5,4.4-20.6,8.5-31.3,13c-4.1-9.3-8.2-18.3-12.1-27.5
		c-0.4-0.9,0.5-2.3,0.8-3.4c0.1-0.3,0.5-0.4,0.7-0.6c10.7-10.1,10.7-10.1,23.5-2.6c1.7,1,3.3,1.9,6.3,3.5c-2.7-4.8-4.5-8.4-6.7-11.8
		c-0.6-0.9-2.1-1.5-3.3-1.8c-15.5-3.9-15.5-3.8-25.8,8.2c-5.2,6.1-10.4,12.1-16.1,18.7c3.8,3.8,7.5,7.5,11.2,11.2
		c5.1,5.1,10.1,10.2,15.3,15.1c1,0.9,3,1.7,4.1,1.3C510,96.3,525.5,90.3,542,84z M497.9,54.3c-2.8,2.4-5.2,4.4-7.5,6.6
		c-0.8,0.8-1.7,2.4-1.4,3.3c2.8,7.9,5.9,15.7,8.9,23.8c9.3-3.6,18.1-7,27.3-10.5c-3.1-5.5-6-10.5-9-15.8c-3.5,2.2-6.7,4.2-9.9,6.2
		c-6.2,3.9-8,3.7-13.1-1.2c1.6-1.7,3.3-3.4,6-6.1c-1.7,2.8-2.7,4.3-3.7,5.9c4.9,2.8,6.4,2.2,13.2-5.2
		C505.2,59,501.7,56.8,497.9,54.3z"/>
	<path class="st1" d="M145.3,214.2c0.2-1,0.3-1.9,0.5-2.9c0.4,0,0.7,0,1.1,0c-0.5,8.7-1,17.4-1.5,27.1c14.6-5.4,28.3-10.4,42.9-15.8
		c-3.5-1.6-6-2.8-8.5-4c0-0.3,0-0.6,0-0.9c14.7-1.2,29.4-2.4,43.3-3.6c-8.3,8.8-16.9,17.9-26.2,27.7c-0.5-3.8-0.9-6.7-1.3-9.5
		c-20.7,1.2-40.4,9.5-61.7,6.6c0-9.8-0.3-18.9,0.2-28c0.1-2,2.5-4.1,4.2-5.8c1.5-1.5,3.4-2.6,5.6-4.2c-6.8-6.7-12.7-12.4-18.5-18.1
		c-8.4-8.3-7.7-15.1,3.5-22.4c-1,1.5-1.3,1.9-1.6,2.3c-5.5,7.2-4.4,13.2,3.5,17.8c9.2,5.3,18.7,10.2,28,15.4
		c1.5,0.8,2.6,2.3,3.9,3.5c-1.3,1.3-2.5,2.9-4,3.8c-3.6,2.1-7.5,3.7-11,5.9c-1.4,0.9-2.2,2.8-3.3,4.3
		C144.5,213.7,144.9,213.9,145.3,214.2z"/>
	<path class="st1" d="M81.3-69.1c-14,0-27.3,0-41,0c0-2.5,0-4.5,0-7c17.9,0,35.7,0,54.5,0c0,5.2-0.4,10.3,0.1,15.3
		c0.3,2.9,1.4,6.1,3.2,8.3c3,3.7,6.8,6.8,10.4,10.3c2-4,4-8.1,6.7-13.5c2.2,13.3,4.1,25.2,6.2,38.1c-12.9-3-25-5.8-38.5-8.9
		c5.6-1.9,10-3.3,16.4-5.4c-5.5-4.9-10.4-8.6-14.5-13.1c-2-2.2-3.1-5.7-3.4-8.7C80.8-58.7,81.3-63.7,81.3-69.1z"/>
	<path class="st1" d="M213.1-24.4c-3.1,3.2-5.4,5.6-8.1,8.3c-14.7-14.9-29.1-29.6-43.6-44.3c-0.4,0.2-0.8,0.4-1.2,0.6
		c0.2,2.5,0.1,5.1,0.8,7.4c2.2,6.6-0.6,10.8-6.7,14.5c-1.9-14.1-3.7-27.8-5.7-42.3c14.4,1.7,28.5,3.4,42.6,5.1
		c-4.8,11.5-14.2,6.9-22.7,6.4C183.5-53.8,198.1-39.2,213.1-24.4z"/>
	<path class="st1" d="M431.6,101.6c-3.8,0-6.9,0-10.8,0c0-6.9-0.4-13.7,0.2-20.4c0.2-2,2.9-3.8,4.6-5.7c1.3-1.5,2.6-2.8,4.5-4.9
		c-3.5-0.3-6.2-0.6-9.3-0.9c0-10,0-19.7,0-30.9c-6.3,5.6-10.7,13.2-18.9,9.7c8.1-8.1,16.5-16.6,25.4-25.6c7.5,8.1,15.7,17,24.1,26.1
		c-3.1-0.4-7.4,0.1-10.5-1.5c-3.3-1.7-5.5-5.5-8.2-8.4c-0.4,0.2-0.8,0.4-1.2,0.6c0,4.1,0,8.1,0,12.2c0,4,0,8,0,12.5
		c5.5,0,10.7,0,17.4,0c-5.5,5.1-10.1,9-14.2,13.5c-1.7,1.8-2.9,4.7-3.1,7.2C431.3,90.5,431.6,95.8,431.6,101.6z"/>
	<path class="st1" d="M430.6,193.8c0.9-1.2,1.6-2.8,2.8-3.6c10.7-7.9,21.7-15.5,32.3-23.6c1.8-1.3,3.3-4.2,3.3-6.4
		c0.3-11.9,0.2-23.9,0.2-37.2c-2.8,3.2-4.7,5.4-6.6,7.5c-0.2-0.1-0.5-0.3-0.7-0.4c3.8-7.5,7.5-15,11.8-23.6
		c4.1,8.2,7.7,15.5,11.4,22.7c-0.3,0.2-0.6,0.4-0.9,0.6c-1.6-1.8-3.2-3.6-5.5-6.3c-0.2,2.6-0.4,4.3-0.4,6c0,8.8-0.2,17.7,0.1,26.5
		c0.1,4-1.3,6.4-4.3,8.8c-7.4,5.9-14.6,12.1-22.1,18.3c2,4.2,5.9,4,9.4,3.8c13.3-0.7,26.6-1.7,39.8-2.6c0.9-0.1,1.9-0.1,2.9,0.4
		c-20.5,3.3-41,6.7-61.5,10c-2.9,0.5-5.9,0.7-8.9,1.1C432.6,195.1,431.6,194.4,430.6,193.8z"/>
	<path class="st1" d="M11.8-17.7c4.1,3.2,3.2,6.3,0.4,9.4c2.3,2.6,4,5.7,0.6,8.1c-1.4,1-4.8,1.1-6.1,0C3.4-2.6,4.9-5.7,7.5-8.4
		c-3.3-3.1-3.8-6.3,0.1-9.3c-3.4-3.1-3.7-6.2-0.2-9.6c-2.7-2.8-3.9-5.6-0.7-8.7c0.3-0.3,0.1-1.5-0.2-1.9c-2.7-3.1-1.7-5.8,1-8.3
		c-2.5-2.7-3.8-5.4-1-8.5c0.4-0.4,0.3-1.7,0-2.2c-1.9-2.5-1.9-4.7-0.1-7.2c0.5-0.7-0.2-2.3-0.5-4.1c-1.3,1-1.7,1.8-2.2,1.8
		c-2.3,0.1-5.1,0.7-6.6-0.4c-1.1-0.8-1.2-5-0.2-5.9c1.4-1.2,4.3-0.9,6.5-1.1c1.3-0.1,2.6,0.2,4-0.2c-2.4-3.4-4.1-6.5-0.5-9
		c1.4-1,4.8-0.9,6.1,0.2c3.2,2.6,1.5,5.6-1.9,9c2.3,0.1,3.5,0.2,4.8,0.2c2.4,0.2,5.1-0.3,7,0.8c0.8,0.5,0.6,5.4-0.3,5.8
		c-1.9,0.9-4.7,0.2-7.1,0.1c-0.4,0-0.9-0.4-1.3-0.6c-0.2,0.2-0.4,0.3-0.4,0.4c-0.1,4.3-0.2,8.6-0.2,13c0,1.9,0.2,3.7,0.3,5.6
		c0,1.4,0,2.8-0.1,4.1c-0.2,2.9-1.4,6.1-0.6,8.5c1.6,4.5,2.1,4.3-0.9,8.6C15.5-24,15.5-20.9,11.8-17.7z"/>
	<path class="st1" d="M540.7,181.7c5.4-8.3,10.8-16.6,16.6-25.4c-8.5,0-16.3,0-24.7,0c0.7,3.3,1.4,6.4,2.2,10.6
		c-7-5.6-13.2-10.5-20.1-16c6.6-5.3,12.9-10.3,20-16.1c-0.8,4-1.4,6.9-2.1,10.3c7.7,0,14.9,0,22.8,0c0-6.3,0-12.7,0-19.1
		c0.4-0.1,0.8-0.2,1.2-0.3c3.1,6.6,6.3,13.3,9.3,20c0.4,0.8-0.1,2.3-0.6,3.1c-7.9,11.3-15.9,22.5-23.9,33.8
		C541.2,182.2,540.9,181.9,540.7,181.7z M557.8,155.1c6.4-8.5,6.3-12.3,0-20.1C557.8,141.4,557.8,147.7,557.8,155.1z"/>
	<path class="st1" d="M33.2,272.5c-11.2-3.4-21.1-7.1-31.4-9.4c-7.1-1.6-11-4.9-12.1-12.1c-0.6-3.5-2-6.9-2.4-10.5
		c1.6,3.1,3.7,6,4.8,9.2c1.6,4.8,5,6.3,9.5,7.3c9.7,2.2,19.3,4.8,29,7.3c1.1,0.3,2.2,0.3,4,0.6c-2.3-2.7-4-4.7-5.8-6.8
		c0.2-0.2,0.3-0.4,0.5-0.6c8.9,5.5,17.9,11,28.1,17.3c-12.2,1.1-22.8,2-33.4,3c-0.1-0.2-0.2-0.4-0.3-0.7
		C26.6,275.7,29.4,274.3,33.2,272.5z"/>
	<path class="st1" d="M300,206.1c0-2.1,0-3.4,0-4.9c1.6-0.2,3-0.4,4.4-0.6c-0.2-0.3-0.5-0.6-0.7-0.9c1.5-1.6,3.1-3.2,4.6-4.8
		c0.3,0.3,0.7,0.5,1,0.8c0.2-1.4,0.4-2.8,0.6-4.4c1.5-0.2,2.8-0.4,2.6-0.4c2.5-2.5,4.2-4.1,5.9-5.8c0.3,0.2,0.6,0.5,0.9,0.7
		c0.2-1.3,0.4-2.6,0.6-4.2c1.4,0,2.8,0,4.4,0c0.2,1.4,0.4,2.6,0.4,3c2.4,1.9,4.2,3.3,6,4.8c-0.4,0.4-0.7,0.9-1.1,1.3
		c3.6-0.2,5.9,0.9,5.2,3.3c2.4,2.2,4,3.7,5.6,5.2c-0.3,0.4-0.5,0.7-0.8,1.1c1.4,0.2,2.8,0.4,4.7,0.7c0,1.2,0.5,2.8-0.1,3.3
		c-1,1-2.6,1.3-4.4,2.1c-0.5-2.1-0.8-3.5-1-4c-3-2.4-5.4-4.3-7.8-6.4c-0.7-0.6-1-1.4-1.6-2.1c-1.1-1.1-2.4-2.2-3.6-3.3
		c-0.4,0.4-0.9,0.7-1.3,1.1c0,15.9,0,31.9,0,48c-1.8,0-3.2,0-5,0c0-16.3,0-32.2,0-48.1c-0.5-0.3-0.9-0.7-1.4-1
		c-1.2,1.1-2.3,2.3-3.5,3.4c-0.7,0.7-1.5,1.4-2.2,2.1c-0.9,0.9-1.7,2.2-2.8,2.6C306,200.2,305.8,206.4,300,206.1z"/>
	<path class="st1" d="M463.9-12.2c0.3,1.8,1,3.6,0.7,5.3c-2.4,12.2,2.5,19.7,14.1,23.6c2.5,0.8,4.6,2.6,6.9,4
		c0.4,0.2,0.5,0.8,0.7,1.2c-4.1,2.4-24,2.5-26.9-1.2c2.8,0,5.5,0.1,8.3,0c2.8-0.1,5.6-0.3,8.8-1.5c-3.7-2.1-7.3-4.4-11.2-6.3
		c-2.7-1.3-3.9-3-3.8-6.2c0.3-6.2,0.1-12.4,0.1-18.6C462.4-12.1,463.1-12.1,463.9-12.2z"/>
	<path class="st1" d="M463.1-16.8c-2.7,4.8-4.9,9.2-7.5,13.5c-0.6,1-2.2,1.4-3.3,2c0-1.3-0.6-2.9-0.1-3.9c2.7-5.3,5.6-10.6,8.5-15.8
		c1.5-2.8,3.2-2.7,4.7,0c2.9,5.2,5.9,10.4,8.5,15.8c0.5,1-0.2,2.6-0.3,3.9c-1.1-0.8-2.6-1.3-3.2-2.3C468-7.8,465.7-12,463.1-16.8z"
		/>
	<path class="st1" d="M91.2,289.9c-2.3,1.1-4,1.9-6.1,2.9c-1.3-7.6-2.4-14.7-3.6-21.8c0.5-0.2,0.9-0.3,1.4-0.5
		C85.5,276.7,88.2,282.9,91.2,289.9z"/>
	<path class="st1" d="M86.4,267.6c3.7,5.8,7.4,11.6,11.4,17.9c-1.3,1.1-2.5,2.1-4.4,3.7c-3.2-7.1-6.3-13.9-9.3-20.6
		C84.9,268.2,85.6,267.9,86.4,267.6z"/>
	<path class="st1" d="M45.3-50.9c-3.3,2.2-5.2,4.5-6.9,4.4c-1.7-0.2-4.2-2.5-4.6-4.3c-0.8-3.1,1.8-5.2,4.7-4.9
		C40.3-55.5,42-53.3,45.3-50.9z"/>
	<path class="st1" d="M-11.6-51.2c-3.2,2.4-5.1,4.7-6.8,4.6c-1.8-0.1-4.4-2.4-4.9-4.1c-0.8-3,1.6-5.3,4.6-5
		C-16.8-55.5-15-53.4-11.6-51.2z"/>
	<path class="st1" d="M34.3-59.3c-1.8,1.2-3.8,3.5-5.5,3.3c-1.8-0.2-4.4-2.6-4.7-4.4c-0.6-2.9,1.7-5.3,4.9-4.7
		c2,0.4,3.6,2.4,5.4,3.6C34.4-60.7,34.3-60,34.3-59.3z"/>
	<path class="st1" d="M-3.6-59.4C-5.4-58.2-7.4-55.9-9-56c-1.8-0.2-4.5-2.5-4.8-4.3c-0.6-2.8,1.6-5.4,4.8-4.8c2,0.3,3.6,2.3,5.4,3.5
		C-3.6-60.8-3.6-60.1-3.6-59.4z"/>
	<path class="st1" d="M132.7,263.8c0.3,0.3,0.5,0.6,0.8,0.9c0.3,4.7,0.7,9.5,1.1,14.9c-3.3-5.2-1.9-14.7-12.2-11
		C125.6,264.6,127.7,263.7,132.7,263.8z"/>
	<path class="st1" d="M80.4,292.7c-0.9-6.6-1.7-13.3-2.6-19.9c0.4-0.1,0.9-0.1,1.3-0.2c0.9,6.7,1.8,13.5,2.7,20.2
		C81.4,292.7,80.9,292.7,80.4,292.7z"/>
	<path class="st1" d="M430.6,193.8c1,0.7,2,1.3,3,2c-1.9,2.9-4.3,3.5-8.9,1C427.3,195.5,428.9,194.6,430.6,193.8z"/>
	<path class="st2" d="M497.9,54.3c3.8,2.4,7.3,4.6,10.8,6.9c-6.8,7.4-8.3,8-13.2,5.2c1-1.6,2-3.2,3.7-5.9c-2.7,2.7-4.3,4.4-6,6.1
		c5.2,4.9,7,5.1,13.1,1.2c3.2-2,6.4-4,9.9-6.2c3,5.3,5.9,10.3,9,15.8C516.1,81,507.3,84.4,498,88c-3.1-8.1-6.1-15.9-8.9-23.8
		c-0.3-0.8,0.6-2.5,1.4-3.3C492.7,58.7,495.1,56.8,497.9,54.3z"/>
	<path class="st2" d="M557.8,155.1c0-7.4,0-13.7,0-20.1C564,142.8,564.2,146.6,557.8,155.1z"/>
</g>
<path d="M223.5,206.7c-4.7-12.6-8.1-25.4-5.9-38.8c1.9-11.8,9.4-19.3,21.2-20.5c10.9-1.1,22,0.1,33.1,0.3
	c13.2,0.2,26.4,1.6,39.4,0.5c15.2-1.3,20.6-7,21.9-21.9c1.1-13.5,0.6-27.2,0.8-40.8c-0.7-0.2-1.4-0.5-2-0.7c-2.1,3.5-4.3,7-6.4,10.6
	c-2.8,4.8-6.6,7.3-12.1,4.3c-5.5-3-5.9-7.7-3.2-12.6c9.1-16.7,18.2-33.4,27.7-49.9c4.2-7.3,11.6-7,16.1,0.5
	c10.5,17.5,20.7,35.1,31,52.7c2.9,4.9,3.1,9.4-2.1,12.7c-4.5,2.8-9.4,0.9-12.9-4.8c-3.3-5.4-6.4-10.9-11.3-16.1
	c-0.1,6.1,0,12.1-0.5,18.2c-0.9,11.5-1.1,23.2-3.4,34.4c-4.1,20.2-17.4,31.7-38.4,32.6c-13.2,0.6-26.7-1.3-40.1-2.6
	c-8.4-0.8-16.8-2.9-25.2-4.1c-17.2-2.3-23.9,3.1-25,20.1c-0.4,6.2-0.1,12.5-0.2,18.8c0,2.4-0.2,4.8-0.4,7.3
	C224.9,206.7,224.2,206.7,223.5,206.7z"/>
</svg>
